<svg xmlns="http://www.w3.org/2000/svg" xmlns:xlink="http://www.w3.org/1999/xlink" width="700" height="350" class="main-svg" viewBox="0 0 700 350"><rect width="700" height="350" x="0" y="0" style="fill:#fff;fill-opacity:1"/><defs id="defs-7ea37c"><g class="clips"><clipPath id="clip7ea37cxyplot" class="plotclip"><rect width="637" height="274"/></clipPath><clipPath id="clip7ea37cx" class="axesclip"><rect width="637" height="350" x="33" y="0"/></clipPath><clipPath id="clip7ea37cy" class="axesclip"><rect width="700" height="274" x="0" y="46"/></clipPath><clipPath id="clip7ea37cxy" class="axesclip"><rect width="637" height="274" x="33" y="46"/></clipPath></g></defs><g class="bglayer"><rect width="637" height="274" x="33" y="46" class="bg" style="fill:#e5ecf6;fill-opacity:1;stroke-width:0"/></g><g class="cartesianlayer"><g class="subplot xy"><g class="gridlayer"><g class="y"><path d="M33,0h637" class="ygrid crisp" transform="translate(0,306.3)" style="stroke:#fff;stroke-opacity:1;stroke-width:1px"/><path d="M33,0h637" class="ygrid crisp" transform="translate(0,265.2)" style="stroke:#fff;stroke-opacity:1;stroke-width:1px"/><path d="M33,0h637" class="ygrid crisp" transform="translate(0,224.1)" style="stroke:#fff;stroke-opacity:1;stroke-width:1px"/><path d="M33,0h637" class="ygrid crisp" transform="translate(0,183)" style="stroke:#fff;stroke-opacity:1;stroke-width:1px"/><path d="M33,0h637" class="ygrid crisp" transform="translate(0,141.9)" style="stroke:#fff;stroke-opacity:1;stroke-width:1px"/><path d="M33,0h637" class="ygrid crisp" transform="translate(0,100.8)" style="stroke:#fff;stroke-opacity:1;stroke-width:1px"/><path d="M33,0h637" class="ygrid crisp" transform="translate(0,59.7)" style="stroke:#fff;stroke-opacity:1;stroke-width:1px"/></g></g><path class="xlines-below"/><path class="ylines-below"/><g class="plot" clip-path="url('#clip7ea37cxyplot')" transform="translate(33, 46)"><g class="boxlayer mlayer"><g class="trace boxes" style="opacity:1"><path d="M81.22,178.1H237.28M81.22,239.75H237.28V116.45H81.22ZM159.25,239.75V260.3M159.25,116.45V95.9M120.23,260.3H198.27M120.23,95.9H198.27" class="box" style="vector-effect:non-scaling-stroke;stroke-width:2px;stroke:#1f77b4;stroke-opacity:1;fill:#1f77b4;fill-opacity:.5"/></g><g class="trace boxes" style="opacity:1"><path d="M399.72,178.1H555.78M399.72,239.75H555.78V54.8H399.72ZM477.75,239.75V260.3M477.75,54.8V13.7M438.73,260.3H516.77M438.73,13.7H516.77" class="box" style="vector-effect:non-scaling-stroke;stroke-width:2px;stroke:#ff7f0e;stroke-opacity:1;fill:#ff7f0e;fill-opacity:.5"/></g></g></g><path d="M0,0" class="xlines-above crisp" style="fill:none"/><path d="M0,0" class="ylines-above crisp" style="fill:none"/><g class="xaxislayer-above"><g class="xtick"><text x="0" y="333" text-anchor="middle" transform="translate(192.25,0)" style="font-family:'Open Sans',verdana,arial,sans-serif;font-size:12px;fill:#2a3f5f;fill-opacity:1;white-space:pre">a</text></g><g class="xtick"><text x="0" y="333" text-anchor="middle" transform="translate(510.75,0)" style="font-family:'Open Sans',verdana,arial,sans-serif;font-size:12px;fill:#2a3f5f;fill-opacity:1;white-space:pre">b</text></g></g><g class="yaxislayer-above"><g class="ytick"><text x="32" y="4.2" text-anchor="end" transform="translate(0,306.3)" style="font-family:'Open Sans',verdana,arial,sans-serif;font-size:12px;fill:#2a3f5f;fill-opacity:1;white-space:pre">1</text></g><g class="ytick"><text x="32" y="4.2" text-anchor="end" transform="translate(0,265.2)" style="font-family:'Open Sans',verdana,arial,sans-serif;font-size:12px;fill:#2a3f5f;fill-opacity:1;white-space:pre">1.5</text></g><g class="ytick"><text x="32" y="4.2" text-anchor="end" transform="translate(0,224.1)" style="font-family:'Open Sans',verdana,arial,sans-serif;font-size:12px;fill:#2a3f5f;fill-opacity:1;white-space:pre">2</text></g><g class="ytick"><text x="32" y="4.2" text-anchor="end" transform="translate(0,183)" style="font-family:'Open Sans',verdana,arial,sans-serif;font-size:12px;fill:#2a3f5f;fill-opacity:1;white-space:pre">2.5</text></g><g class="ytick"><text x="32" y="4.2" text-anchor="end" transform="translate(0,141.9)" style="font-family:'Open Sans',verdana,arial,sans-serif;font-size:12px;fill:#2a3f5f;fill-opacity:1;white-space:pre">3</text></g><g class="ytick"><text x="32" y="4.2" text-anchor="end" transform="translate(0,100.8)" style="font-family:'Open Sans',verdana,arial,sans-serif;font-size:12px;fill:#2a3f5f;fill-opacity:1;white-space:pre">3.5</text></g><g class="ytick"><text x="32" y="4.2" text-anchor="end" transform="translate(0,59.7)" style="font-family:'Open Sans',verdana,arial,sans-serif;font-size:12px;fill:#2a3f5f;fill-opacity:1;white-space:pre">4</text></g></g></g></g><defs id="topdefs-7ea37c"><clipPath id="legend7ea37c"><rect width="105" height="29" x="0" y="0"/></clipPath></defs><g class="infolayer"><g class="legend" pointer-events="all" transform="translate(565, 11.519999999999996)"><rect width="105" height="29" x="0" y="0" class="bg" shape-rendering="crispEdges" style="stroke:#444;stroke-opacity:1;fill:#fff;fill-opacity:1;stroke-width:0"/><g class="scrollbox" clip-path="url('#legend7ea37c')" transform="translate(0, 0)"><g class="groups"><g class="traces" transform="translate(0, 14.5)" style="opacity:1"><text x="40" y="4.68" class="legendtext" text-anchor="start" style="font-family:'Open Sans',verdana,arial,sans-serif;font-size:12px;fill:#2a3f5f;fill-opacity:1;white-space:pre">a</text><g class="layers" style="opacity:1"><g class="legendsymbols"><g class="legendpoints"><path d="M6,6H-6V-6H6Z" class="legendbox" transform="translate(20,0)" style="stroke-width:2px;fill:#1f77b4;fill-opacity:.5;stroke:#1f77b4;stroke-opacity:1"/></g></g></g><rect width="49.719" height="19" x="0" y="-9.5" class="legendtoggle" style="fill:#000;fill-opacity:0"/></g><g class="traces" transform="translate(52.21875, 14.5)" style="opacity:1"><text x="40" y="4.68" class="legendtext" text-anchor="start" style="font-family:'Open Sans',verdana,arial,sans-serif;font-size:12px;fill:#2a3f5f;fill-opacity:1;white-space:pre">b</text><g class="layers" style="opacity:1"><g class="legendsymbols"><g class="legendpoints"><path d="M6,6H-6V-6H6Z" class="legendbox" transform="translate(20,0)" style="stroke-width:2px;fill:#ff7f0e;fill-opacity:.5;stroke:#ff7f0e;stroke-opacity:1"/></g></g></g><rect width="49.984" height="19" x="0" y="-9.5" class="legendtoggle" style="fill:#000;fill-opacity:0"/></g></g></g><rect width="0" height="0" x="0" y="0" class="scrollbar" rx="20" ry="3" style="fill:#808ba4;fill-opacity:1"/></g></g></svg>