<svg xmlns="http://www.w3.org/2000/svg" xmlns:xlink="http://www.w3.org/1999/xlink" width="750" height="380" class="main-svg" viewBox="0 0 750 380"><rect width="750" height="380" x="0" y="0" style="fill:#fff;fill-opacity:1"/><defs id="defs-a4cd17"><g class="clips"><clipPath id="clipa4cd17xyplot" class="plotclip"><rect width="672" height="245"/></clipPath><clipPath id="clipa4cd17x" class="axesclip"><rect width="672" height="380" x="48" y="0"/></clipPath><clipPath id="clipa4cd17y" class="axesclip"><rect width="750" height="245" x="0" y="67"/></clipPath><clipPath id="clipa4cd17xy" class="axesclip"><rect width="672" height="245" x="48" y="67"/></clipPath></g></defs><g class="bglayer"><rect width="672" height="245" x="48" y="67" class="bg" style="fill:#e5ecf6;fill-opacity:1;stroke-width:0"/></g><g class="cartesianlayer"><g class="subplot xy"><g class="gridlayer"><g class="x"><path d="M0,67v245" class="xgrid crisp" transform="translate(85.35,0)" style="stroke:#fff;stroke-opacity:1;stroke-width:1px"/><path d="M0,67v245" class="xgrid crisp" transform="translate(218.08,0)" style="stroke:#fff;stroke-opacity:1;stroke-width:1px"/><path d="M0,67v245" class="xgrid crisp" transform="translate(350.82,0)" style="stroke:#fff;stroke-opacity:1;stroke-width:1px"/><path d="M0,67v245" class="xgrid crisp" transform="translate(483.55,0)" style="stroke:#fff;stroke-opacity:1;stroke-width:1px"/><path d="M0,67v245" class="xgrid crisp" transform="translate(616.28,0)" style="stroke:#fff;stroke-opacity:1;stroke-width:1px"/></g><g class="y"><path d="M48,0h672" class="ygrid crisp" transform="translate(0,275.78)" style="stroke:#fff;stroke-opacity:1;stroke-width:1px"/><path d="M48,0h672" class="ygrid crisp" transform="translate(0,231.59)" style="stroke:#fff;stroke-opacity:1;stroke-width:1px"/><path d="M48,0h672" class="ygrid crisp" transform="translate(0,187.39)" style="stroke:#fff;stroke-opacity:1;stroke-width:1px"/><path d="M48,0h672" class="ygrid crisp" transform="translate(0,143.19)" style="stroke:#fff;stroke-opacity:1;stroke-width:1px"/><path d="M48,0h672" class="ygrid crisp" transform="translate(0,98.99)" style="stroke:#fff;stroke-opacity:1;stroke-width:1px"/></g></g><path class="xlines-below"/><path class="ylines-below"/><g class="plot" clip-path="url(#clipa4cd17xyplot)" transform="translate(48,67)"><g class="scatterlayer mlayer"><g class="trace scatter trace8183bb6e-1ace-4c55-9e94-90c07e2f2f06" style="stroke-miterlimit:2;opacity:1"><g class="lines"><path d="M37.35,164.59L103.72,213.13L170.08,163.93L236.45,180.86L302.82,146.32L369.18,116.66L435.55,16L501.92,95.69L568.28,76.35L634.65,123.41" class="js-line" style="vector-effect:non-scaling-stroke;fill:none;stroke:#1f77b4;stroke-opacity:1;stroke-width:2px;opacity:1"/></g><g class="points"><path d="M3,0A3,3 0 1,1 0,-3A3,3 0 0,1 3,0Z" class="point" transform="translate(37.35,164.59)" style="opacity:1;stroke-width:0;fill:#1f77b4;fill-opacity:1"/><path d="M3,0A3,3 0 1,1 0,-3A3,3 0 0,1 3,0Z" class="point" transform="translate(103.72,213.13)" style="opacity:1;stroke-width:0;fill:#1f77b4;fill-opacity:1"/><path d="M3,0A3,3 0 1,1 0,-3A3,3 0 0,1 3,0Z" class="point" transform="translate(170.08,163.93)" style="opacity:1;stroke-width:0;fill:#1f77b4;fill-opacity:1"/><path d="M3,0A3,3 0 1,1 0,-3A3,3 0 0,1 3,0Z" class="point" transform="translate(236.45,180.86)" style="opacity:1;stroke-width:0;fill:#1f77b4;fill-opacity:1"/><path d="M3,0A3,3 0 1,1 0,-3A3,3 0 0,1 3,0Z" class="point" transform="translate(302.82,146.32)" style="opacity:1;stroke-width:0;fill:#1f77b4;fill-opacity:1"/><path d="M3,0A3,3 0 1,1 0,-3A3,3 0 0,1 3,0Z" class="point" transform="translate(369.18,116.66)" style="opacity:1;stroke-width:0;fill:#1f77b4;fill-opacity:1"/><path d="M3,0A3,3 0 1,1 0,-3A3,3 0 0,1 3,0Z" class="point" transform="translate(435.55,16)" style="opacity:1;stroke-width:0;fill:#1f77b4;fill-opacity:1"/><path d="M3,0A3,3 0 1,1 0,-3A3,3 0 0,1 3,0Z" class="point" transform="translate(501.92,95.69)" style="opacity:1;stroke-width:0;fill:#1f77b4;fill-opacity:1"/><path d="M3,0A3,3 0 1,1 0,-3A3,3 0 0,1 3,0Z" class="point" transform="translate(568.28,76.35)" style="opacity:1;stroke-width:0;fill:#1f77b4;fill-opacity:1"/><path d="M3,0A3,3 0 1,1 0,-3A3,3 0 0,1 3,0Z" class="point" transform="translate(634.65,123.41)" style="opacity:1;stroke-width:0;fill:#1f77b4;fill-opacity:1"/></g></g><g class="trace scatter trace8b06ca38-9e3a-48a5-82fc-55430421caf6" style="stroke-miterlimit:2;opacity:1"><g class="lines"><path d="M37.35,164.59L103.72,197.34L170.08,160.12L236.45,116.47L302.82,67.36L369.18,20.78L435.55,122.39L501.92,166.49L568.28,215.85L634.65,229" class="js-line" style="vector-effect:non-scaling-stroke;fill:none;stroke:#ff7f0e;stroke-opacity:1;stroke-width:2px;opacity:1"/></g><g class="points"><path d="M3,0A3,3 0 1,1 0,-3A3,3 0 0,1 3,0Z" class="point" transform="translate(37.35,164.59)" style="opacity:1;stroke-width:0;fill:#ff7f0e;fill-opacity:1"/><path d="M3,0A3,3 0 1,1 0,-3A3,3 0 0,1 3,0Z" class="point" transform="translate(103.72,197.34)" style="opacity:1;stroke-width:0;fill:#ff7f0e;fill-opacity:1"/><path d="M3,0A3,3 0 1,1 0,-3A3,3 0 0,1 3,0Z" class="point" transform="translate(170.08,160.12)" style="opacity:1;stroke-width:0;fill:#ff7f0e;fill-opacity:1"/><path d="M3,0A3,3 0 1,1 0,-3A3,3 0 0,1 3,0Z" class="point" transform="translate(236.45,116.47)" style="opacity:1;stroke-width:0;fill:#ff7f0e;fill-opacity:1"/><path d="M3,0A3,3 0 1,1 0,-3A3,3 0 0,1 3,0Z" class="point" transform="translate(302.82,67.36)" style="opacity:1;stroke-width:0;fill:#ff7f0e;fill-opacity:1"/><path d="M3,0A3,3 0 1,1 0,-3A3,3 0 0,1 3,0Z" class="point" transform="translate(369.18,20.78)" style="opacity:1;stroke-width:0;fill:#ff7f0e;fill-opacity:1"/><path d="M3,0A3,3 0 1,1 0,-3A3,3 0 0,1 3,0Z" class="point" transform="translate(435.55,122.39)" style="opacity:1;stroke-width:0;fill:#ff7f0e;fill-opacity:1"/><path d="M3,0A3,3 0 1,1 0,-3A3,3 0 0,1 3,0Z" class="point" transform="translate(501.92,166.49)" style="opacity:1;stroke-width:0;fill:#ff7f0e;fill-opacity:1"/><path d="M3,0A3,3 0 1,1 0,-3A3,3 0 0,1 3,0Z" class="point" transform="translate(568.28,215.85)" style="opacity:1;stroke-width:0;fill:#ff7f0e;fill-opacity:1"/><path d="M3,0A3,3 0 1,1 0,-3A3,3 0 0,1 3,0Z" class="point" transform="translate(634.65,229)" style="opacity:1;stroke-width:0;fill:#ff7f0e;fill-opacity:1"/></g></g></g></g><path d="M0,0" class="xlines-above crisp" style="fill:none"/><path d="M0,0" class="ylines-above crisp" style="fill:none"/><g class="xaxislayer-above"><g class="xtick"><text x="0" y="325" text-anchor="middle" transform="translate(85.35,0)" style="font-family:'Open Sans',verdana,arial,sans-serif;font-size:12px;fill:#2a3f5f;fill-opacity:1;white-space:pre;opacity:1"><tspan x="0" y="325" class="line" dy="0em">Jan 1</tspan><tspan x="0" y="325" class="line" dy="1.3em">2021</tspan></text></g><g class="xtick"><text x="0" y="325" text-anchor="middle" transform="translate(218.08,0)" style="font-family:'Open Sans',verdana,arial,sans-serif;font-size:12px;fill:#2a3f5f;fill-opacity:1;white-space:pre;opacity:1">Jan 3</text></g><g class="xtick"><text x="0" y="325" text-anchor="middle" transform="translate(350.82,0)" style="font-family:'Open Sans',verdana,arial,sans-serif;font-size:12px;fill:#2a3f5f;fill-opacity:1;white-space:pre;opacity:1">Jan 5</text></g><g class="xtick"><text x="0" y="325" text-anchor="middle" transform="translate(483.55,0)" style="font-family:'Open Sans',verdana,arial,sans-serif;font-size:12px;fill:#2a3f5f;fill-opacity:1;white-space:pre;opacity:1">Jan 7</text></g><g class="xtick"><text x="0" y="325" text-anchor="middle" transform="translate(616.28,0)" style="font-family:'Open Sans',verdana,arial,sans-serif;font-size:12px;fill:#2a3f5f;fill-opacity:1;white-space:pre;opacity:1">Jan 9</text></g></g><g class="yaxislayer-above"><g class="ytick"><text x="47" y="4.2" text-anchor="end" transform="translate(0,275.78)" style="font-family:'Open Sans',verdana,arial,sans-serif;font-size:12px;fill:#2a3f5f;fill-opacity:1;white-space:pre;opacity:1">99.9</text></g><g class="ytick"><text x="47" y="4.2" text-anchor="end" transform="translate(0,231.59)" style="font-family:'Open Sans',verdana,arial,sans-serif;font-size:12px;fill:#2a3f5f;fill-opacity:1;white-space:pre;opacity:1">100</text></g><g class="ytick"><text x="47" y="4.2" text-anchor="end" transform="translate(0,187.39)" style="font-family:'Open Sans',verdana,arial,sans-serif;font-size:12px;fill:#2a3f5f;fill-opacity:1;white-space:pre;opacity:1">100.1</text></g><g class="ytick"><text x="47" y="4.2" text-anchor="end" transform="translate(0,143.19)" style="font-family:'Open Sans',verdana,arial,sans-serif;font-size:12px;fill:#2a3f5f;fill-opacity:1;white-space:pre;opacity:1">100.2</text></g><g class="ytick"><text x="47" y="4.2" text-anchor="end" transform="translate(0,98.99)" style="font-family:'Open Sans',verdana,arial,sans-serif;font-size:12px;fill:#2a3f5f;fill-opacity:1;white-space:pre;opacity:1">100.3</text></g></g></g></g><defs id="topdefs-a4cd17"><clipPath id="legenda4cd17"><rect width="210" height="29" x="0" y="0"/></clipPath></defs><g class="infolayer"><g class="legend" pointer-events="all" transform="translate(510,12.210526315789501)"><rect style="stroke:#444;stroke-opacity:1;fill:#fff;fill-opacity:1;stroke-width:0" width="210" height="29" x="0" y="0" class="bg" shape-rendering="crispEdges"/><g class="scrollbox" clip-path="url(#legenda4cd17)"><g class="groups"><g class="traces" transform="translate(0,14.5)" style="opacity:1"><text x="40" y="4.68" class="legendtext" text-anchor="start" style="font-family:'Open Sans',verdana,arial,sans-serif;font-size:12px;fill:#2a3f5f;fill-opacity:1;white-space:pre">RANDNX1</text><g class="layers" style="opacity:1"><g class="legendlines"><path d="M5,0h30" class="js-line" style="fill:none;stroke:#1f77b4;stroke-opacity:1;stroke-width:2px"/></g><g class="legendsymbols"><g class="legendpoints"><path d="M3,0A3,3 0 1,1 0,-3A3,3 0 0,1 3,0Z" class="scatterpts" transform="translate(20,0)" style="opacity:1;stroke-width:0;fill:#1f77b4;fill-opacity:1"/></g></g></g><rect width="102.109" height="19" x="0" y="-9.5" class="legendtoggle" style="fill:#000;fill-opacity:0"/></g><g class="traces" transform="translate(104.609375,14.5)" style="opacity:1"><text x="40" y="4.68" class="legendtext" text-anchor="start" style="font-family:'Open Sans',verdana,arial,sans-serif;font-size:12px;fill:#2a3f5f;fill-opacity:1;white-space:pre">RANDNX2</text><g class="layers" style="opacity:1"><g class="legendlines"><path d="M5,0h30" class="js-line" style="fill:none;stroke:#ff7f0e;stroke-opacity:1;stroke-width:2px"/></g><g class="legendsymbols"><g class="legendpoints"><path d="M3,0A3,3 0 1,1 0,-3A3,3 0 0,1 3,0Z" class="scatterpts" transform="translate(20,0)" style="opacity:1;stroke-width:0;fill:#ff7f0e;fill-opacity:1"/></g></g></g><rect width="102.109" height="19" x="0" y="-9.5" class="legendtoggle" style="fill:#000;fill-opacity:0"/></g></g></g><rect width="0" height="0" x="0" y="0" class="scrollbar" rx="20" ry="3" style="fill:#808ba4;fill-opacity:1"/></g><g class="g-xtitle"><text x="384" y="367.909" class="xtitle" text-anchor="middle" style="font-family:'Open Sans',verdana,arial,sans-serif;font-size:14px;fill:#2a3f5f;opacity:1;font-weight:400;white-space:pre">Index</text></g><g class="annotation" data-index="0" style="opacity:1"><g class="annotation-text-g"><g class="cursor-pointer" transform="rotate(0,384,55) translate(367,43)"><rect width="33" height="23" x=".5" y=".5" class="bg" style="stroke-width:1px;stroke:#000;stroke-opacity:0;fill:#000;fill-opacity:0"/><text x="17.188" y="18" class="annotation-text" text-anchor="middle" style="font-family:'Open Sans',verdana,arial,sans-serif;font-size:16px;fill:#2a3f5f;fill-opacity:1;white-space:pre">plot</text></g></g></g></g></svg>