<svg xmlns="http://www.w3.org/2000/svg" xmlns:xlink="http://www.w3.org/1999/xlink" width="750" height="380" class="main-svg" viewBox="0 0 750 380"><rect width="750" height="380" x="0" y="0" style="fill:#fff;fill-opacity:1"/><defs id="defs-e6e3e6"><g class="clips"><clipPath id="clipe6e3e6xyplot" class="plotclip"><rect width="687" height="260"/></clipPath><clipPath id="clipe6e3e6x" class="axesclip"><rect width="687" height="380" x="33" y="0"/></clipPath><clipPath id="clipe6e3e6y" class="axesclip"><rect width="750" height="260" x="0" y="68"/></clipPath><clipPath id="clipe6e3e6xy" class="axesclip"><rect width="687" height="260" x="33" y="68"/></clipPath></g></defs><g class="bglayer"><rect width="687" height="260" x="33" y="68" class="bg" style="fill:#e5ecf6;fill-opacity:1;stroke-width:0"/></g><g class="layer-below"><g class="shapelayer"><path fill-rule="evenodd" d="M223.64,328H376.19V68H223.64Z" clip-path="url(#clipe6e3e6x)" data-index="0" style="opacity:.2;stroke:#000;stroke-opacity:0;fill:red;fill-opacity:1;stroke-width:0"/><path fill-rule="evenodd" d="M376.19,328H528.73V68H376.19Z" clip-path="url(#clipe6e3e6x)" data-index="1" style="opacity:.2;stroke:#000;stroke-opacity:0;fill:green;fill-opacity:1;stroke-width:0"/><path fill-rule="evenodd" d="M528.73,328H681.28V68H528.73Z" clip-path="url(#clipe6e3e6x)" data-index="2" style="opacity:.2;stroke:#000;stroke-opacity:0;fill:orange;fill-opacity:1;stroke-width:0"/></g></g><g class="cartesianlayer"><g class="subplot xy"><g class="gridlayer"><g class="x"><path d="M0,68v260" class="xgrid crisp" transform="translate(147.37,0)" style="stroke:#fff;stroke-opacity:1;stroke-width:1px"/><path d="M0,68v260" class="xgrid crisp" transform="translate(223.64,0)" style="stroke:#fff;stroke-opacity:1;stroke-width:1px"/><path d="M0,68v260" class="xgrid crisp" transform="translate(299.92,0)" style="stroke:#fff;stroke-opacity:1;stroke-width:1px"/><path d="M0,68v260" class="xgrid crisp" transform="translate(376.19,0)" style="stroke:#fff;stroke-opacity:1;stroke-width:1px"/><path d="M0,68v260" class="xgrid crisp" transform="translate(452.46,0)" style="stroke:#fff;stroke-opacity:1;stroke-width:1px"/><path d="M0,68v260" class="xgrid crisp" transform="translate(528.73,0)" style="stroke:#fff;stroke-opacity:1;stroke-width:1px"/><path d="M0,68v260" class="xgrid crisp" transform="translate(605,0)" style="stroke:#fff;stroke-opacity:1;stroke-width:1px"/><path d="M0,68v260" class="xgrid crisp" transform="translate(681.28,0)" style="stroke:#fff;stroke-opacity:1;stroke-width:1px"/></g><g class="y"><path d="M33,0h687" class="ygrid crisp" transform="translate(0,310.63)" style="stroke:#fff;stroke-opacity:1;stroke-width:1px"/><path d="M33,0h687" class="ygrid crisp" transform="translate(0,254.31)" style="stroke:#fff;stroke-opacity:1;stroke-width:1px"/><path d="M33,0h687" class="ygrid crisp" transform="translate(0,198)" style="stroke:#fff;stroke-opacity:1;stroke-width:1px"/><path d="M33,0h687" class="ygrid crisp" transform="translate(0,141.69)" style="stroke:#fff;stroke-opacity:1;stroke-width:1px"/><path d="M33,0h687" class="ygrid crisp" transform="translate(0,85.38)" style="stroke:#fff;stroke-opacity:1;stroke-width:1px"/></g></g><g class="zerolinelayer"><path d="M0,68v260" class="xzl zl crisp" transform="translate(71.1,0)" style="stroke:#fff;stroke-opacity:1;stroke-width:2px"/></g><path class="xlines-below"/><path class="ylines-below"/><g class="plot" clip-path="url(#clipe6e3e6xyplot)" transform="translate(33,68)"><g class="scatterlayer mlayer"><g class="trace scatter trace09e46f2b-b1aa-4952-831f-5454a1b2dfa8" style="stroke-miterlimit:2;opacity:1"><g class="lines"><path d="M38.1,242.63L190.64,130L343.19,242.63L495.73,17.38L648.28,130" class="js-line" style="vector-effect:non-scaling-stroke;fill:none;stroke:#1f77b4;stroke-opacity:1;stroke-width:2px;opacity:1"/></g><g class="points"><path d="M3,0A3,3 0 1,1 0,-3A3,3 0 0,1 3,0Z" class="point" transform="translate(38.1,242.63)" style="opacity:1;stroke-width:0;fill:#1f77b4;fill-opacity:1"/><path d="M3,0A3,3 0 1,1 0,-3A3,3 0 0,1 3,0Z" class="point" transform="translate(190.64,130)" style="opacity:1;stroke-width:0;fill:#1f77b4;fill-opacity:1"/><path d="M3,0A3,3 0 1,1 0,-3A3,3 0 0,1 3,0Z" class="point" transform="translate(343.19,242.63)" style="opacity:1;stroke-width:0;fill:#1f77b4;fill-opacity:1"/><path d="M3,0A3,3 0 1,1 0,-3A3,3 0 0,1 3,0Z" class="point" transform="translate(495.73,17.38)" style="opacity:1;stroke-width:0;fill:#1f77b4;fill-opacity:1"/><path d="M3,0A3,3 0 1,1 0,-3A3,3 0 0,1 3,0Z" class="point" transform="translate(648.28,130)" style="opacity:1;stroke-width:0;fill:#1f77b4;fill-opacity:1"/></g></g><g class="trace scatter traceb25d3020-3afa-4bfd-8f8d-8e1400fccd02" style="stroke-miterlimit:2;opacity:1"><g class="points"><path d="M4.55,0L0,4.55L-4.55,0L0,-4.55Z" class="point plotly-customdata" transform="translate(190.64,130)" style="opacity:1;stroke-width:1px;fill:#4285f4;fill-opacity:1;stroke:#0b54cd;stroke-opacity:1"/></g></g><g class="trace scatter traceb559d577-7976-4956-bd32-36df5b9c957a" style="stroke-miterlimit:2;opacity:1"><g class="points"><path d="M4.55,0L0,4.55L-4.55,0L0,-4.55Z" class="point plotly-customdata" transform="translate(343.19,242.63)" style="opacity:1;stroke-width:1px;fill:#ea4335;fill-opacity:1;stroke:#b51f12;stroke-opacity:1"/></g></g><g class="trace scatter trace86d88f19-21ac-4ad2-878c-78e69d078daa" style="stroke-miterlimit:2;opacity:1"><g class="points"><path d="M4.55,0L0,4.55L-4.55,0L0,-4.55Z" class="point plotly-customdata" transform="translate(495.73,17.38)" style="opacity:1;stroke-width:1px;fill:#37b13f;fill-opacity:1;stroke:#267b2c;stroke-opacity:1"/></g></g><g class="trace scatter trace14d06068-2fd7-4148-bee4-65249f076dff" style="stroke-miterlimit:2;opacity:1"><g class="points"><path d="M4.55,0L0,4.55L-4.55,0L0,-4.55Z" class="point plotly-customdata" transform="translate(648.28,130)" style="opacity:1;stroke-width:1px;fill:#fa0;fill-opacity:1;stroke:#b27600;stroke-opacity:1"/></g></g></g></g><path d="M0,0" class="xlines-above crisp" style="fill:none"/><path d="M0,0" class="ylines-above crisp" style="fill:none"/><g class="xaxislayer-above"><g class="xtick"><text x="0" y="341" text-anchor="middle" transform="translate(71.1,0)" style="font-family:'Open Sans',verdana,arial,sans-serif;font-size:12px;fill:#2a3f5f;fill-opacity:1;white-space:pre;opacity:1">0</text></g><g class="xtick"><text x="0" y="341" text-anchor="middle" transform="translate(147.37,0)" style="font-family:'Open Sans',verdana,arial,sans-serif;font-size:12px;fill:#2a3f5f;fill-opacity:1;white-space:pre;opacity:1">0.5</text></g><g class="xtick"><text x="0" y="341" text-anchor="middle" transform="translate(223.64,0)" style="font-family:'Open Sans',verdana,arial,sans-serif;font-size:12px;fill:#2a3f5f;fill-opacity:1;white-space:pre;opacity:1">1</text></g><g class="xtick"><text x="0" y="341" text-anchor="middle" transform="translate(299.92,0)" style="font-family:'Open Sans',verdana,arial,sans-serif;font-size:12px;fill:#2a3f5f;fill-opacity:1;white-space:pre;opacity:1">1.5</text></g><g class="xtick"><text x="0" y="341" text-anchor="middle" transform="translate(376.19,0)" style="font-family:'Open Sans',verdana,arial,sans-serif;font-size:12px;fill:#2a3f5f;fill-opacity:1;white-space:pre;opacity:1">2</text></g><g class="xtick"><text x="0" y="341" text-anchor="middle" transform="translate(452.46,0)" style="font-family:'Open Sans',verdana,arial,sans-serif;font-size:12px;fill:#2a3f5f;fill-opacity:1;white-space:pre;opacity:1">2.5</text></g><g class="xtick"><text x="0" y="341" text-anchor="middle" transform="translate(528.73,0)" style="font-family:'Open Sans',verdana,arial,sans-serif;font-size:12px;fill:#2a3f5f;fill-opacity:1;white-space:pre;opacity:1">3</text></g><g class="xtick"><text x="0" y="341" text-anchor="middle" transform="translate(605,0)" style="font-family:'Open Sans',verdana,arial,sans-serif;font-size:12px;fill:#2a3f5f;fill-opacity:1;white-space:pre;opacity:1">3.5</text></g><g class="xtick"><text x="0" y="341" text-anchor="middle" transform="translate(681.28,0)" style="font-family:'Open Sans',verdana,arial,sans-serif;font-size:12px;fill:#2a3f5f;fill-opacity:1;white-space:pre;opacity:1">4</text></g></g><g class="yaxislayer-above"><g class="ytick"><text x="32" y="4.2" text-anchor="end" transform="translate(0,310.63)" style="font-family:'Open Sans',verdana,arial,sans-serif;font-size:12px;fill:#2a3f5f;fill-opacity:1;white-space:pre;opacity:1">1</text></g><g class="ytick"><text x="32" y="4.2" text-anchor="end" transform="translate(0,254.31)" style="font-family:'Open Sans',verdana,arial,sans-serif;font-size:12px;fill:#2a3f5f;fill-opacity:1;white-space:pre;opacity:1">1.5</text></g><g class="ytick"><text x="32" y="4.2" text-anchor="end" transform="translate(0,198)" style="font-family:'Open Sans',verdana,arial,sans-serif;font-size:12px;fill:#2a3f5f;fill-opacity:1;white-space:pre;opacity:1">2</text></g><g class="ytick"><text x="32" y="4.2" text-anchor="end" transform="translate(0,141.69)" style="font-family:'Open Sans',verdana,arial,sans-serif;font-size:12px;fill:#2a3f5f;fill-opacity:1;white-space:pre;opacity:1">2.5</text></g><g class="ytick"><text x="32" y="4.2" text-anchor="end" transform="translate(0,85.38)" style="font-family:'Open Sans',verdana,arial,sans-serif;font-size:12px;fill:#2a3f5f;fill-opacity:1;white-space:pre;opacity:1">3</text></g></g></g></g><defs id="topdefs-e6e3e6"><clipPath id="legende6e3e6"><rect width="424" height="29" x="0" y="0"/></clipPath></defs><g class="infolayer"><g class="legend" pointer-events="all" transform="translate(296,11.631578947368453)"><rect style="stroke:#444;stroke-opacity:1;fill:#fff;fill-opacity:1;stroke-width:0" width="424" height="29" x="0" y="0" class="bg" shape-rendering="crispEdges"/><g class="scrollbox" clip-path="url(#legende6e3e6)"><g class="groups"><g class="traces" transform="translate(0,14.5)" style="opacity:1"><text x="40" y="4.68" class="legendtext" text-anchor="start" style="font-family:'Open Sans',verdana,arial,sans-serif;font-size:12px;fill:#2a3f5f;fill-opacity:1;white-space:pre">a</text><g class="layers" style="opacity:1"><g class="legendlines"><path d="M5,0h30" class="js-line" style="fill:none;stroke:#1f77b4;stroke-opacity:1;stroke-width:2px"/></g><g class="legendsymbols"><g class="legendpoints"><path d="M3,0A3,3 0 1,1 0,-3A3,3 0 0,1 3,0Z" class="scatterpts" transform="translate(20,0)" style="opacity:1;stroke-width:0;fill:#1f77b4;fill-opacity:1"/></g></g></g><rect width="49.719" height="19" x="0" y="-9.5" class="legendtoggle" style="fill:#000;fill-opacity:0"/></g><g class="traces" transform="translate(52.21875,14.5)" style="opacity:1"><text x="40" y="4.68" class="legendtext" text-anchor="start" style="font-family:'Open Sans',verdana,arial,sans-serif;font-size:12px;fill:#2a3f5f;fill-opacity:1;white-space:pre">Peak</text><g class="layers" style="opacity:1"><g class="legendsymbols"><g class="legendpoints"><path d="M4.55,0L0,4.55L-4.55,0L0,-4.55Z" class="scatterpts" transform="translate(20,0)" style="opacity:1;stroke-width:1px;fill:#4285f4;fill-opacity:1;stroke:#0b54cd;stroke-opacity:1"/></g></g></g><rect width="71.203" height="19" x="0" y="-9.5" class="legendtoggle" style="fill:#000;fill-opacity:0"/></g><g class="traces" transform="translate(125.921875,14.5)" style="opacity:1"><text x="40" y="4.68" class="legendtext" text-anchor="start" style="font-family:'Open Sans',verdana,arial,sans-serif;font-size:12px;fill:#2a3f5f;fill-opacity:1;white-space:pre">Valley</text><g class="layers" style="opacity:1"><g class="legendsymbols"><g class="legendpoints"><path d="M4.55,0L0,4.55L-4.55,0L0,-4.55Z" class="scatterpts" transform="translate(20,0)" style="opacity:1;stroke-width:1px;fill:#ea4335;fill-opacity:1;stroke:#b51f12;stroke-opacity:1"/></g></g></g><rect width="78.75" height="19" x="0" y="-9.5" class="legendtoggle" style="fill:#000;fill-opacity:0"/></g><g class="traces" transform="translate(207.171875,14.5)" style="opacity:1"><text x="40" y="4.68" class="legendtext" text-anchor="start" style="font-family:'Open Sans',verdana,arial,sans-serif;font-size:12px;fill:#2a3f5f;fill-opacity:1;white-space:pre">Recovery/Peak</text><g class="layers" style="opacity:1"><g class="legendsymbols"><g class="legendpoints"><path d="M4.55,0L0,4.55L-4.55,0L0,-4.55Z" class="scatterpts" transform="translate(20,0)" style="opacity:1;stroke-width:1px;fill:#37b13f;fill-opacity:1;stroke:#267b2c;stroke-opacity:1"/></g></g></g><rect width="132.156" height="19" x="0" y="-9.5" class="legendtoggle" style="fill:#000;fill-opacity:0"/></g><g class="traces" transform="translate(341.828125,14.5)" style="opacity:1"><text x="40" y="4.68" class="legendtext" text-anchor="start" style="font-family:'Open Sans',verdana,arial,sans-serif;font-size:12px;fill:#2a3f5f;fill-opacity:1;white-space:pre">Active</text><g class="layers" style="opacity:1"><g class="legendsymbols"><g class="legendpoints"><path d="M4.55,0L0,4.55L-4.55,0L0,-4.55Z" class="scatterpts" transform="translate(20,0)" style="opacity:1;stroke-width:1px;fill:#fa0;fill-opacity:1;stroke:#b27600;stroke-opacity:1"/></g></g></g><rect width="79.234" height="19" x="0" y="-9.5" class="legendtoggle" style="fill:#000;fill-opacity:0"/></g></g></g><rect width="0" height="0" x="0" y="0" class="scrollbar" rx="20" ry="3" style="fill:#808ba4;fill-opacity:1"/></g><g class="g-xtitle"><text x="376.5" y="368.3" class="xtitle" text-anchor="middle" style="font-family:'Open Sans',verdana,arial,sans-serif;font-size:14px;fill:#2a3f5f;opacity:1;font-weight:400;white-space:pre">Index</text></g><g class="annotation" data-index="0" style="opacity:1"><g class="annotation-text-g"><g class="cursor-pointer" transform="rotate(0,376.5,56) translate(328,44)"><rect width="96" height="23" x=".5" y=".5" class="bg" style="stroke-width:1px;stroke:#000;stroke-opacity:0;fill:#000;fill-opacity:0"/><text x="48.547" y="18" class="annotation-text" text-anchor="middle" style="font-family:'Open Sans',verdana,arial,sans-serif;font-size:16px;fill:#2a3f5f;fill-opacity:1;white-space:pre">Drawdowns</text></g></g></g></g></svg>