<svg xmlns="http://www.w3.org/2000/svg" xmlns:xlink="http://www.w3.org/1999/xlink" width="700" height="350" class="main-svg" viewBox="0 0 700 350"><rect style="fill:#fff;fill-opacity:1" width="700" height="350" x="0" y="0"/><defs id="defs-9a1015"><g class="clips"><clipPath id="clip9a1015xyplot" class="plotclip"><rect width="607" height="277"/></clipPath><clipPath id="clip9a1015x" class="axesclip"><rect width="607" height="350" x="63" y="0"/></clipPath><clipPath id="clip9a1015y" class="axesclip"><rect width="700" height="277" x="0" y="30"/></clipPath><clipPath id="clip9a1015xy" class="axesclip"><rect width="607" height="277" x="63" y="30"/></clipPath></g></defs><g class="bglayer"><rect style="fill:#e5ecf6;fill-opacity:1;stroke-width:0" width="607" height="277" x="63" y="30" class="bg"/></g><g class="cartesianlayer"><g class="subplot xy"><g class="gridlayer"><g class="x"><path d="M0,30v277" class="xgrid crisp" transform="translate(151.06,0)" style="stroke:#fff;stroke-opacity:1;stroke-width:1px"/><path d="M0,30v277" class="xgrid crisp" transform="translate(272.78,0)" style="stroke:#fff;stroke-opacity:1;stroke-width:1px"/><path d="M0,30v277" class="xgrid crisp" transform="translate(394.49,0)" style="stroke:#fff;stroke-opacity:1;stroke-width:1px"/><path d="M0,30v277" class="xgrid crisp" transform="translate(516.21,0)" style="stroke:#fff;stroke-opacity:1;stroke-width:1px"/><path d="M0,30v277" class="xgrid crisp" transform="translate(637.93,0)" style="stroke:#fff;stroke-opacity:1;stroke-width:1px"/></g><g class="y"><path d="M63,0h607" class="ygrid crisp" transform="translate(0,249.54)" style="stroke:#fff;stroke-opacity:1;stroke-width:1px"/><path d="M63,0h607" class="ygrid crisp" transform="translate(0,162.31)" style="stroke:#fff;stroke-opacity:1;stroke-width:1px"/><path d="M63,0h607" class="ygrid crisp" transform="translate(0,75.08)" style="stroke:#fff;stroke-opacity:1;stroke-width:1px"/></g></g><path class="xlines-below"/><path class="ylines-below"/><g class="plot" clip-path="url(#clip9a1015xyplot)" transform="translate(63,30)"><g class="scatterlayer mlayer"><g class="trace scatter trace9abafe58-f35c-40d8-9a93-4d0c3b3b4dfd" style="stroke-miterlimit:2;opacity:1"><g class="lines"><path d="M0,86.25L60.74,86.77L68.16,159.52L115.33,127.95L119.4,153.59L122.2,127.95L127.44,127.95L205.03,127.95L206.49,13.85L210.02,127.95L222.19,36.88L292.18,36.88L293.28,99.86L300.52,99.86L301.55,117.65L301.98,117.65L302.65,205.58L303.07,205.58L314.45,213.95L397.71,214.13L409.7,227.91L427.04,227.91L440.13,263.15L461.37,262.98L550.65,262.98L607,262.98" class="js-line" style="vector-effect:non-scaling-stroke;fill:none;stroke:#1f77b4;stroke-opacity:1;stroke-width:2px;opacity:1"/></g></g></g></g><path d="M0,0" class="xlines-above crisp" style="fill:none"/><path d="M0,0" class="ylines-above crisp" style="fill:none"/><g class="xaxislayer-above"><g class="xtick"><text style="font-family:'Open Sans',verdana,arial,sans-serif;font-size:12px;fill:#2a3f5f;fill-opacity:1;white-space:pre;opacity:1" x="0" y="320" text-anchor="middle" transform="translate(151.06,0)"><tspan x="0" y="320" class="line" dy="0em">11:47:02</tspan><tspan x="0" y="320" class="line" dy="1.3em">Dec 30, 2021</tspan></text></g><g class="xtick"><text style="font-family:'Open Sans',verdana,arial,sans-serif;font-size:12px;fill:#2a3f5f;fill-opacity:1;white-space:pre;opacity:1" x="0" y="320" text-anchor="middle" transform="translate(272.78,0)">11:47:04</text></g><g class="xtick"><text style="font-family:'Open Sans',verdana,arial,sans-serif;font-size:12px;fill:#2a3f5f;fill-opacity:1;white-space:pre;opacity:1" x="0" y="320" text-anchor="middle" transform="translate(394.49,0)">11:47:06</text></g><g class="xtick"><text style="font-family:'Open Sans',verdana,arial,sans-serif;font-size:12px;fill:#2a3f5f;fill-opacity:1;white-space:pre;opacity:1" x="0" y="320" text-anchor="middle" transform="translate(516.21,0)">11:47:08</text></g><g class="xtick"><text style="font-family:'Open Sans',verdana,arial,sans-serif;font-size:12px;fill:#2a3f5f;fill-opacity:1;white-space:pre;opacity:1" x="0" y="320" text-anchor="middle" transform="translate(637.93,0)">11:47:10</text></g></g><g class="yaxislayer-above"><g class="ytick"><text style="font-family:'Open Sans',verdana,arial,sans-serif;font-size:12px;fill:#2a3f5f;fill-opacity:1;white-space:pre;opacity:1" x="62" y="4.2" text-anchor="end" transform="translate(0,249.54)">47.355k</text></g><g class="ytick"><text style="font-family:'Open Sans',verdana,arial,sans-serif;font-size:12px;fill:#2a3f5f;fill-opacity:1;white-space:pre;opacity:1" x="62" y="4.2" text-anchor="end" transform="translate(0,162.31)">47.36k</text></g><g class="ytick"><text style="font-family:'Open Sans',verdana,arial,sans-serif;font-size:12px;fill:#2a3f5f;fill-opacity:1;white-space:pre;opacity:1" x="62" y="4.2" text-anchor="end" transform="translate(0,75.08)">47.365k</text></g></g></g></g></svg>