<svg xmlns="http://www.w3.org/2000/svg" xmlns:xlink="http://www.w3.org/1999/xlink" width="700" height="350" class="main-svg" viewBox="0 0 700 350"><rect width="700" height="350" x="0" y="0" style="fill:#fff;fill-opacity:1"/><defs id="defs-adc068"><g class="clips"><clipPath id="clipadc068xyplot" class="plotclip"><rect width="640" height="274"/></clipPath><clipPath id="clipadc068x" class="axesclip"><rect width="640" height="350" x="30" y="0"/></clipPath><clipPath id="clipadc068y" class="axesclip"><rect width="700" height="274" x="0" y="46"/></clipPath><clipPath id="clipadc068xy" class="axesclip"><rect width="640" height="274" x="30" y="46"/></clipPath></g></defs><g class="bglayer"><rect width="640" height="274" x="30" y="46" class="bg" style="fill:#e5ecf6;fill-opacity:1;stroke-width:0"/></g><g class="cartesianlayer"><g class="subplot xy"><g class="gridlayer"><g class="x"><path d="M0,46v274" class="xgrid crisp" transform="translate(207.88,0)" style="stroke:#fff;stroke-opacity:1;stroke-width:1px"/><path d="M0,46v274" class="xgrid crisp" transform="translate(350,0)" style="stroke:#fff;stroke-opacity:1;stroke-width:1px"/><path d="M0,46v274" class="xgrid crisp" transform="translate(492.13,0)" style="stroke:#fff;stroke-opacity:1;stroke-width:1px"/><path d="M0,46v274" class="xgrid crisp" transform="translate(634.25,0)" style="stroke:#fff;stroke-opacity:1;stroke-width:1px"/></g><g class="y"><path d="M30,0h640" class="ygrid crisp" transform="translate(0,309.13)" style="stroke:#fff;stroke-opacity:1;stroke-width:1px"/><path d="M30,0h640" class="ygrid crisp" transform="translate(0,268.35)" style="stroke:#fff;stroke-opacity:1;stroke-width:1px"/><path d="M30,0h640" class="ygrid crisp" transform="translate(0,227.57)" style="stroke:#fff;stroke-opacity:1;stroke-width:1px"/><path d="M30,0h640" class="ygrid crisp" transform="translate(0,186.79)" style="stroke:#fff;stroke-opacity:1;stroke-width:1px"/><path d="M30,0h640" class="ygrid crisp" transform="translate(0,146.01)" style="stroke:#fff;stroke-opacity:1;stroke-width:1px"/><path d="M30,0h640" class="ygrid crisp" transform="translate(0,105.22999999999999)" style="stroke:#fff;stroke-opacity:1;stroke-width:1px"/><path d="M30,0h640" class="ygrid crisp" transform="translate(0,64.45)" style="stroke:#fff;stroke-opacity:1;stroke-width:1px"/></g></g><g class="zerolinelayer"><path d="M0,46v274" class="xzl zl crisp" transform="translate(65.75,0)" style="stroke:#fff;stroke-opacity:1;stroke-width:2px"/></g><path class="xlines-below"/><path class="ylines-below"/><g class="plot" clip-path="url(#clipadc068xyplot)" transform="translate(30,46)"><g class="scatterlayer mlayer"><g class="trace scatter trace4a9156b2-206f-4c91-94dd-170013a0c9cc" style="stroke-miterlimit:2;opacity:1"><g class="lines"><path d="M35.75,167.98L177.88,256.55L320,187.84L462.13,237.1L604.25,156.93" class="js-line" style="vector-effect:non-scaling-stroke;fill:none;stroke:#1f77b4;stroke-opacity:1;stroke-width:2px;opacity:1"/></g><g class="points"><path d="M3,0A3,3 0 1,1 0,-3A3,3 0 0,1 3,0Z" class="point" transform="translate(35.75,167.98)" style="opacity:1;stroke-width:0;fill:#1f77b4;fill-opacity:1"/><path d="M3,0A3,3 0 1,1 0,-3A3,3 0 0,1 3,0Z" class="point" transform="translate(177.88,256.55)" style="opacity:1;stroke-width:0;fill:#1f77b4;fill-opacity:1"/><path d="M3,0A3,3 0 1,1 0,-3A3,3 0 0,1 3,0Z" class="point" transform="translate(320,187.84)" style="opacity:1;stroke-width:0;fill:#1f77b4;fill-opacity:1"/><path d="M3,0A3,3 0 1,1 0,-3A3,3 0 0,1 3,0Z" class="point" transform="translate(462.13,237.1)" style="opacity:1;stroke-width:0;fill:#1f77b4;fill-opacity:1"/><path d="M3,0A3,3 0 1,1 0,-3A3,3 0 0,1 3,0Z" class="point" transform="translate(604.25,156.93)" style="opacity:1;stroke-width:0;fill:#1f77b4;fill-opacity:1"/></g></g><g class="trace scatter tracee41e4017-95ce-4a16-a4ec-2b04057b3d11" style="stroke-miterlimit:2;opacity:1"><g class="lines"><path d="M35.75,167.98L177.88,178.8L320,200.64L462.13,175.45L604.25,144.22" class="js-line" style="vector-effect:non-scaling-stroke;fill:none;stroke:#ff7f0e;stroke-opacity:1;stroke-width:2px;opacity:1"/></g><g class="points"><path d="M3,0A3,3 0 1,1 0,-3A3,3 0 0,1 3,0Z" class="point" transform="translate(35.75,167.98)" style="opacity:1;stroke-width:0;fill:#ff7f0e;fill-opacity:1"/><path d="M3,0A3,3 0 1,1 0,-3A3,3 0 0,1 3,0Z" class="point" transform="translate(177.88,178.8)" style="opacity:1;stroke-width:0;fill:#ff7f0e;fill-opacity:1"/><path d="M3,0A3,3 0 1,1 0,-3A3,3 0 0,1 3,0Z" class="point" transform="translate(320,200.64)" style="opacity:1;stroke-width:0;fill:#ff7f0e;fill-opacity:1"/><path d="M3,0A3,3 0 1,1 0,-3A3,3 0 0,1 3,0Z" class="point" transform="translate(462.13,175.45)" style="opacity:1;stroke-width:0;fill:#ff7f0e;fill-opacity:1"/><path d="M3,0A3,3 0 1,1 0,-3A3,3 0 0,1 3,0Z" class="point" transform="translate(604.25,144.22)" style="opacity:1;stroke-width:0;fill:#ff7f0e;fill-opacity:1"/></g></g><g class="trace scatter trace41fd1945-8594-4587-a39f-832ac364be57" style="stroke-miterlimit:2;opacity:1"><g class="lines"><path d="M35.75,181L177.88,200.08L320,187.84L462.13,17.45L604.25,144.22" class="js-line" style="vector-effect:non-scaling-stroke;fill:none;stroke:#2ca02c;stroke-opacity:1;stroke-width:2px;opacity:1"/></g><g class="points"><path d="M3,0A3,3 0 1,1 0,-3A3,3 0 0,1 3,0Z" class="point" transform="translate(35.75,181)" style="opacity:1;stroke-width:0;fill:#2ca02c;fill-opacity:1"/><path d="M3,0A3,3 0 1,1 0,-3A3,3 0 0,1 3,0Z" class="point" transform="translate(177.88,200.08)" style="opacity:1;stroke-width:0;fill:#2ca02c;fill-opacity:1"/><path d="M3,0A3,3 0 1,1 0,-3A3,3 0 0,1 3,0Z" class="point" transform="translate(320,187.84)" style="opacity:1;stroke-width:0;fill:#2ca02c;fill-opacity:1"/><path d="M3,0A3,3 0 1,1 0,-3A3,3 0 0,1 3,0Z" class="point" transform="translate(462.13,17.45)" style="opacity:1;stroke-width:0;fill:#2ca02c;fill-opacity:1"/><path d="M3,0A3,3 0 1,1 0,-3A3,3 0 0,1 3,0Z" class="point" transform="translate(604.25,144.22)" style="opacity:1;stroke-width:0;fill:#2ca02c;fill-opacity:1"/></g></g></g></g><path d="M0,0" class="xlines-above crisp" style="fill:none"/><path d="M0,0" class="ylines-above crisp" style="fill:none"/><g class="xaxislayer-above"><g class="xtick"><text x="0" y="333" text-anchor="middle" transform="translate(65.75,0)" style="font-family:'Open Sans',verdana,arial,sans-serif;font-size:12px;fill:#2a3f5f;fill-opacity:1;white-space:pre;opacity:1">0</text></g><g class="xtick"><text x="0" y="333" text-anchor="middle" transform="translate(207.88,0)" style="font-family:'Open Sans',verdana,arial,sans-serif;font-size:12px;fill:#2a3f5f;fill-opacity:1;white-space:pre;opacity:1">1</text></g><g class="xtick"><text x="0" y="333" text-anchor="middle" transform="translate(350,0)" style="font-family:'Open Sans',verdana,arial,sans-serif;font-size:12px;fill:#2a3f5f;fill-opacity:1;white-space:pre;opacity:1">2</text></g><g class="xtick"><text x="0" y="333" text-anchor="middle" transform="translate(492.13,0)" style="font-family:'Open Sans',verdana,arial,sans-serif;font-size:12px;fill:#2a3f5f;fill-opacity:1;white-space:pre;opacity:1">3</text></g><g class="xtick"><text x="0" y="333" text-anchor="middle" transform="translate(634.25,0)" style="font-family:'Open Sans',verdana,arial,sans-serif;font-size:12px;fill:#2a3f5f;fill-opacity:1;white-space:pre;opacity:1">4</text></g></g><g class="yaxislayer-above"><g class="ytick"><text x="29" y="4.2" text-anchor="end" transform="translate(0,309.13)" style="font-family:'Open Sans',verdana,arial,sans-serif;font-size:12px;fill:#2a3f5f;fill-opacity:1;white-space:pre;opacity:1">10</text></g><g class="ytick"><text x="29" y="4.2" text-anchor="end" transform="translate(0,268.35)" style="font-family:'Open Sans',verdana,arial,sans-serif;font-size:12px;fill:#2a3f5f;fill-opacity:1;white-space:pre;opacity:1">20</text></g><g class="ytick"><text x="29" y="4.2" text-anchor="end" transform="translate(0,227.57)" style="font-family:'Open Sans',verdana,arial,sans-serif;font-size:12px;fill:#2a3f5f;fill-opacity:1;white-space:pre;opacity:1">30</text></g><g class="ytick"><text x="29" y="4.2" text-anchor="end" transform="translate(0,186.79)" style="font-family:'Open Sans',verdana,arial,sans-serif;font-size:12px;fill:#2a3f5f;fill-opacity:1;white-space:pre;opacity:1">40</text></g><g class="ytick"><text x="29" y="4.2" text-anchor="end" transform="translate(0,146.01)" style="font-family:'Open Sans',verdana,arial,sans-serif;font-size:12px;fill:#2a3f5f;fill-opacity:1;white-space:pre;opacity:1">50</text></g><g class="ytick"><text x="29" y="4.2" text-anchor="end" transform="translate(0,105.22999999999999)" style="font-family:'Open Sans',verdana,arial,sans-serif;font-size:12px;fill:#2a3f5f;fill-opacity:1;white-space:pre;opacity:1">60</text></g><g class="ytick"><text x="29" y="4.2" text-anchor="end" transform="translate(0,64.45)" style="font-family:'Open Sans',verdana,arial,sans-serif;font-size:12px;fill:#2a3f5f;fill-opacity:1;white-space:pre;opacity:1">70</text></g></g></g></g><defs id="topdefs-adc068"><clipPath id="legendadc068"><rect width="158" height="29" x="0" y="0"/></clipPath></defs><g class="infolayer"><g class="legend" pointer-events="all" transform="translate(512,11.519999999999996)"><rect style="stroke:#444;stroke-opacity:1;fill:#fff;fill-opacity:1;stroke-width:0" width="158" height="29" x="0" y="0" class="bg" shape-rendering="crispEdges"/><g class="scrollbox" clip-path="url(#legendadc068)"><g class="groups"><g class="traces" transform="translate(0,14.5)" style="opacity:1"><text x="40" y="4.68" class="legendtext" text-anchor="start" style="font-family:'Open Sans',verdana,arial,sans-serif;font-size:12px;fill:#2a3f5f;fill-opacity:1;white-space:pre">0</text><g class="layers" style="opacity:1"><g class="legendlines"><path d="M5,0h30" class="js-line" style="fill:none;stroke:#1f77b4;stroke-opacity:1;stroke-width:2px"/></g><g class="legendsymbols"><g class="legendpoints"><path d="M3,0A3,3 0 1,1 0,-3A3,3 0 0,1 3,0Z" class="scatterpts" transform="translate(20,0)" style="opacity:1;stroke-width:0;fill:#1f77b4;fill-opacity:1"/></g></g></g><rect width="50.141" height="19" x="0" y="-9.5" class="legendtoggle" style="fill:#000;fill-opacity:0"/></g><g class="traces" transform="translate(52.640625,14.5)" style="opacity:1"><text x="40" y="4.68" class="legendtext" text-anchor="start" style="font-family:'Open Sans',verdana,arial,sans-serif;font-size:12px;fill:#2a3f5f;fill-opacity:1;white-space:pre">1</text><g class="layers" style="opacity:1"><g class="legendlines"><path d="M5,0h30" class="js-line" style="fill:none;stroke:#ff7f0e;stroke-opacity:1;stroke-width:2px"/></g><g class="legendsymbols"><g class="legendpoints"><path d="M3,0A3,3 0 1,1 0,-3A3,3 0 0,1 3,0Z" class="scatterpts" transform="translate(20,0)" style="opacity:1;stroke-width:0;fill:#ff7f0e;fill-opacity:1"/></g></g></g><rect width="50.141" height="19" x="0" y="-9.5" class="legendtoggle" style="fill:#000;fill-opacity:0"/></g><g class="traces" transform="translate(105.28125,14.5)" style="opacity:1"><text x="40" y="4.68" class="legendtext" text-anchor="start" style="font-family:'Open Sans',verdana,arial,sans-serif;font-size:12px;fill:#2a3f5f;fill-opacity:1;white-space:pre">2</text><g class="layers" style="opacity:1"><g class="legendlines"><path d="M5,0h30" class="js-line" style="fill:none;stroke:#2ca02c;stroke-opacity:1;stroke-width:2px"/></g><g class="legendsymbols"><g class="legendpoints"><path d="M3,0A3,3 0 1,1 0,-3A3,3 0 0,1 3,0Z" class="scatterpts" transform="translate(20,0)" style="opacity:1;stroke-width:0;fill:#2ca02c;fill-opacity:1"/></g></g></g><rect width="50.141" height="19" x="0" y="-9.5" class="legendtoggle" style="fill:#000;fill-opacity:0"/></g></g></g><rect width="0" height="0" x="0" y="0" class="scrollbar" rx="20" ry="3" style="fill:#808ba4;fill-opacity:1"/></g></g></svg>