<svg xmlns="http://www.w3.org/2000/svg" xmlns:xlink="http://www.w3.org/1999/xlink" width="490" height="350" class="main-svg" viewBox="0 0 490 350"><rect width="490" height="350" x="0" y="0" style="fill:#fff;fill-opacity:1"/><g class="indicatorlayer"><g class="trace"><g class="numbers"><text x="0" y="0" class="number" text-anchor="middle" transform="translate(245,243.35880522335202) scale(0.9792548820862288)" style="font-family:'Open Sans',verdana,arial,sans-serif;font-size:80px;fill:#2a3f5f;fill-opacity:1;white-space:pre">2</text><text x="0" y="0" class="delta" dy="48.5" text-anchor="middle" transform="translate(245,243.35880522335202) scale(0.9792548820862288)" style="font-family:'Open Sans',verdana,arial,sans-serif;font-size:40px;fill:#3d9970;fill-opacity:1;white-space:pre">-</text></g><g class="angular"><g class="bg-arc"><path d="M-215,-2.6329906181668095e-14A215,215 0 0,1 215,0L161.25,0A161.25,161.25 0 0,0 -161.25,-1.974742963625107e-14Z" transform="translate(245,307.5)" style="stroke:#444;stroke-opacity:1;fill:#fff;fill-opacity:1;stroke-width:0"/></g><g class="value-arc"><path d="M-201.5625,-2.468428704531384e-14A201.5625,201.5625 0 0,1 1.234214352265692e-14,-201.5625L1.0696524386302663e-14,-174.6875A174.6875,174.6875 0 0,0 -174.6875,-2.1393048772605326e-14Z" transform="translate(245,307.5)" style="stroke:#444;stroke-opacity:1;fill:#ffffbe;fill-opacity:1;stroke-width:0"/></g><g class="gauge-outline"><path d="M-215,-2.6329906181668095e-14A215,215 0 0,1 215,0L161.25,0A161.25,161.25 0 0,0 -161.25,-1.974742963625107e-14Z" transform="translate(245,307.5)" style="stroke:#444;stroke-opacity:1;fill:#000;fill-opacity:0;stroke-width:1"/></g></g><g class="angularaxis crisp"><path d="M0.5,0h5" class="xangularaxistick ticks crisp" transform="translate(30,307.5)rotate(-180)" style="stroke:#444;stroke-opacity:1;stroke-width:1px"/><path d="M0.5,0h5" class="xangularaxistick ticks crisp" transform="translate(92.9720420448923,155.47204204489228)rotate(-135)" style="stroke:#444;stroke-opacity:1;stroke-width:1px"/><path d="M0.5,0h5" class="xangularaxistick ticks crisp" transform="translate(245,92.5)rotate(-90)" style="stroke:#444;stroke-opacity:1;stroke-width:1px"/><path d="M0.5,0h5" class="xangularaxistick ticks crisp" transform="translate(397.0279579551077,155.4720420448923)rotate(-45)" style="stroke:#444;stroke-opacity:1;stroke-width:1px"/><path d="M0.5,0h5" class="xangularaxistick ticks crisp" transform="translate(460,307.5)rotate(0)" style="stroke:#444;stroke-opacity:1;stroke-width:1px"/><g class="xangularaxistick"><text x="-7.9" y="4.2" text-anchor="end" transform="translate(30,307.5)" style="font-family:'Open Sans',verdana,arial,sans-serif;font-size:12px;fill:#2a3f5f;fill-opacity:1;white-space:pre">1</text></g><g class="xangularaxistick"><text x="-5.586" y="-4.313" text-anchor="end" transform="translate(92.9720420448923,155.47204204489228)" style="font-family:'Open Sans',verdana,arial,sans-serif;font-size:12px;fill:#2a3f5f;fill-opacity:1;white-space:pre">1.5</text></g><g class="xangularaxistick"><text x="0" y="-10.3" text-anchor="middle" transform="translate(245,92.5)" style="font-family:'Open Sans',verdana,arial,sans-serif;font-size:12px;fill:#2a3f5f;fill-opacity:1;white-space:pre">2</text></g><g class="xangularaxistick"><text x="5.586" y="-4.313" text-anchor="start" transform="translate(397.0279579551077,155.4720420448923)" style="font-family:'Open Sans',verdana,arial,sans-serif;font-size:12px;fill:#2a3f5f;fill-opacity:1;white-space:pre">2.5</text></g><g class="xangularaxistick"><text x="7.9" y="4.2" text-anchor="start" transform="translate(460,307.5)" style="font-family:'Open Sans',verdana,arial,sans-serif;font-size:12px;fill:#2a3f5f;fill-opacity:1;white-space:pre">3</text></g></g><text x="0" y="0" class="title" text-anchor="middle" transform="translate(245,61.046875)" style="font-family:'Open Sans',verdana,arial,sans-serif;font-size:20px;fill:#2a3f5f;fill-opacity:1;white-space:pre">My Gauge</text></g></g></svg>