<svg xmlns="http://www.w3.org/2000/svg" xmlns:xlink="http://www.w3.org/1999/xlink" width="750" height="380" class="main-svg" viewBox="0 0 750 380"><rect width="750" height="380" x="0" y="0" style="fill:#fff;fill-opacity:1"/><defs id="defs-c75070"><g class="clips"><clipPath id="clipc75070xyplot" class="plotclip"><rect width="690" height="260"/></clipPath><clipPath id="clipc75070x" class="axesclip"><rect width="690" height="380" x="30" y="0"/></clipPath><clipPath id="clipc75070y" class="axesclip"><rect width="750" height="260" x="0" y="68"/></clipPath><clipPath id="clipc75070xy" class="axesclip"><rect width="690" height="260" x="30" y="68"/></clipPath></g></defs><g class="bglayer"><rect width="690" height="260" x="30" y="68" class="bg" style="fill:#e5ecf6;fill-opacity:1;stroke-width:0"/></g><g class="cartesianlayer"><g class="subplot xy"><g class="gridlayer"><g class="x"><path d="M0,68v260" class="xgrid crisp" transform="translate(68.25,0)" style="stroke:#fff;stroke-opacity:1;stroke-width:1px"/><path d="M0,68v260" class="xgrid crisp" transform="translate(375,0)" style="stroke:#fff;stroke-opacity:1;stroke-width:1px"/><path d="M0,68v260" class="xgrid crisp" transform="translate(681.75,0)" style="stroke:#fff;stroke-opacity:1;stroke-width:1px"/></g><g class="y"><path d="M30,0h690" class="ygrid crisp" transform="translate(0,311.25)" style="stroke:#fff;stroke-opacity:1;stroke-width:1px"/><path d="M30,0h690" class="ygrid crisp" transform="translate(0,265.95)" style="stroke:#fff;stroke-opacity:1;stroke-width:1px"/><path d="M30,0h690" class="ygrid crisp" transform="translate(0,220.65)" style="stroke:#fff;stroke-opacity:1;stroke-width:1px"/><path d="M30,0h690" class="ygrid crisp" transform="translate(0,175.35)" style="stroke:#fff;stroke-opacity:1;stroke-width:1px"/><path d="M30,0h690" class="ygrid crisp" transform="translate(0,130.05)" style="stroke:#fff;stroke-opacity:1;stroke-width:1px"/><path d="M30,0h690" class="ygrid crisp" transform="translate(0,84.75)" style="stroke:#fff;stroke-opacity:1;stroke-width:1px"/></g></g><path class="xlines-below"/><path class="ylines-below"/><g class="plot" clip-path="url(#clipc75070xyplot)" transform="translate(30,68)"><g class="scatterlayer mlayer"><g class="trace scatter trace7d149275-f92e-4bc3-9154-70d2694e859b" style="stroke-miterlimit:2;opacity:1"><g class="lines"><path d="M345,243.25L651.75,197.95" class="js-line" style="vector-effect:non-scaling-stroke;fill:none;stroke:#1f77b4;stroke-opacity:1;stroke-width:2px;opacity:1"/></g><g class="points"><path d="M3,0A3,3 0 1,1 0,-3A3,3 0 0,1 3,0Z" class="point" transform="translate(345,243.25)" style="opacity:1;stroke-width:0;fill:#1f77b4;fill-opacity:1"/><path d="M3,0A3,3 0 1,1 0,-3A3,3 0 0,1 3,0Z" class="point" transform="translate(651.75,197.95)" style="opacity:1;stroke-width:0;fill:#1f77b4;fill-opacity:1"/></g></g><g class="trace scatter trace4b0770eb-2bd3-40cc-a1f6-717304a26740" style="stroke-miterlimit:2;opacity:1"><g class="points"><path d="M3,0A3,3 0 1,1 0,-3A3,3 0 0,1 3,0Z" class="point" transform="translate(38.25,152.65)" style="opacity:1;stroke-width:0;fill:#ff7f0e;fill-opacity:1"/><path d="M3,0A3,3 0 1,1 0,-3A3,3 0 0,1 3,0Z" class="point" transform="translate(651.75,107.35)" style="opacity:1;stroke-width:0;fill:#ff7f0e;fill-opacity:1"/></g></g><g class="trace scatter trace56f78285-1230-4d41-867a-329e7a88458d" style="stroke-miterlimit:2;opacity:1"><g class="lines"><path d="M38.25,62.05L345,16.75" class="js-line" style="vector-effect:non-scaling-stroke;fill:none;stroke:#2ca02c;stroke-opacity:1;stroke-width:2px;opacity:1"/></g><g class="points"><path d="M3,0A3,3 0 1,1 0,-3A3,3 0 0,1 3,0Z" class="point" transform="translate(38.25,62.05)" style="opacity:1;stroke-width:0;fill:#2ca02c;fill-opacity:1"/><path d="M3,0A3,3 0 1,1 0,-3A3,3 0 0,1 3,0Z" class="point" transform="translate(345,16.75)" style="opacity:1;stroke-width:0;fill:#2ca02c;fill-opacity:1"/></g></g></g></g><path d="M0,0" class="xlines-above crisp" style="fill:none"/><path d="M0,0" class="ylines-above crisp" style="fill:none"/><g class="xaxislayer-above"><g class="xtick"><text x="0" y="341" text-anchor="middle" transform="translate(68.25,0)" style="font-family:'Open Sans',verdana,arial,sans-serif;font-size:12px;fill:#2a3f5f;fill-opacity:1;white-space:pre;opacity:1">x</text></g><g class="xtick"><text x="0" y="341" text-anchor="middle" transform="translate(375,0)" style="font-family:'Open Sans',verdana,arial,sans-serif;font-size:12px;fill:#2a3f5f;fill-opacity:1;white-space:pre;opacity:1">y</text></g><g class="xtick"><text x="0" y="341" text-anchor="middle" transform="translate(681.75,0)" style="font-family:'Open Sans',verdana,arial,sans-serif;font-size:12px;fill:#2a3f5f;fill-opacity:1;white-space:pre;opacity:1">z</text></g></g><g class="yaxislayer-above"><g class="ytick"><text x="29" y="4.2" text-anchor="end" transform="translate(0,311.25)" style="font-family:'Open Sans',verdana,arial,sans-serif;font-size:12px;fill:#2a3f5f;fill-opacity:1;white-space:pre;opacity:1">2</text></g><g class="ytick"><text x="29" y="4.2" text-anchor="end" transform="translate(0,265.95)" style="font-family:'Open Sans',verdana,arial,sans-serif;font-size:12px;fill:#2a3f5f;fill-opacity:1;white-space:pre;opacity:1">3</text></g><g class="ytick"><text x="29" y="4.2" text-anchor="end" transform="translate(0,220.65)" style="font-family:'Open Sans',verdana,arial,sans-serif;font-size:12px;fill:#2a3f5f;fill-opacity:1;white-space:pre;opacity:1">4</text></g><g class="ytick"><text x="29" y="4.2" text-anchor="end" transform="translate(0,175.35)" style="font-family:'Open Sans',verdana,arial,sans-serif;font-size:12px;fill:#2a3f5f;fill-opacity:1;white-space:pre;opacity:1">5</text></g><g class="ytick"><text x="29" y="4.2" text-anchor="end" transform="translate(0,130.05)" style="font-family:'Open Sans',verdana,arial,sans-serif;font-size:12px;fill:#2a3f5f;fill-opacity:1;white-space:pre;opacity:1">6</text></g><g class="ytick"><text x="29" y="4.2" text-anchor="end" transform="translate(0,84.75)" style="font-family:'Open Sans',verdana,arial,sans-serif;font-size:12px;fill:#2a3f5f;fill-opacity:1;white-space:pre;opacity:1">7</text></g></g></g></g><defs id="topdefs-c75070"><clipPath id="legendc75070"><rect width="156" height="29" x="0" y="0"/></clipPath></defs><g class="infolayer"><g class="legend" pointer-events="all" transform="translate(564,11.631578947368453)"><rect style="stroke:#444;stroke-opacity:1;fill:#fff;fill-opacity:1;stroke-width:0" width="156" height="29" x="0" y="0" class="bg" shape-rendering="crispEdges"/><g class="scrollbox" clip-path="url(#legendc75070)"><g class="groups"><g class="traces" transform="translate(0,14.5)" style="opacity:1"><text x="40" y="4.68" class="legendtext" text-anchor="start" style="font-family:'Open Sans',verdana,arial,sans-serif;font-size:12px;fill:#2a3f5f;fill-opacity:1;white-space:pre">a</text><g class="layers" style="opacity:1"><g class="legendlines"><path d="M5,0h30" class="js-line" style="fill:none;stroke:#1f77b4;stroke-opacity:1;stroke-width:2px"/></g><g class="legendsymbols"><g class="legendpoints"><path d="M3,0A3,3 0 1,1 0,-3A3,3 0 0,1 3,0Z" class="scatterpts" transform="translate(20,0)" style="opacity:1;stroke-width:0;fill:#1f77b4;fill-opacity:1"/></g></g></g><rect width="49.719" height="19" x="0" y="-9.5" class="legendtoggle" style="fill:#000;fill-opacity:0"/></g><g class="traces" transform="translate(52.21875,14.5)" style="opacity:1"><text x="40" y="4.68" class="legendtext" text-anchor="start" style="font-family:'Open Sans',verdana,arial,sans-serif;font-size:12px;fill:#2a3f5f;fill-opacity:1;white-space:pre">b</text><g class="layers" style="opacity:1"><g class="legendlines"><path d="M5,0h30" class="js-line" style="fill:none;stroke:#ff7f0e;stroke-opacity:1;stroke-width:2px"/></g><g class="legendsymbols"><g class="legendpoints"><path d="M3,0A3,3 0 1,1 0,-3A3,3 0 0,1 3,0Z" class="scatterpts" transform="translate(20,0)" style="opacity:1;stroke-width:0;fill:#ff7f0e;fill-opacity:1"/></g></g></g><rect width="49.984" height="19" x="0" y="-9.5" class="legendtoggle" style="fill:#000;fill-opacity:0"/></g><g class="traces" transform="translate(104.703125,14.5)" style="opacity:1"><text x="40" y="4.68" class="legendtext" text-anchor="start" style="font-family:'Open Sans',verdana,arial,sans-serif;font-size:12px;fill:#2a3f5f;fill-opacity:1;white-space:pre">c</text><g class="layers" style="opacity:1"><g class="legendlines"><path d="M5,0h30" class="js-line" style="fill:none;stroke:#2ca02c;stroke-opacity:1;stroke-width:2px"/></g><g class="legendsymbols"><g class="legendpoints"><path d="M3,0A3,3 0 1,1 0,-3A3,3 0 0,1 3,0Z" class="scatterpts" transform="translate(20,0)" style="opacity:1;stroke-width:0;fill:#2ca02c;fill-opacity:1"/></g></g></g><rect width="48.766" height="19" x="0" y="-9.5" class="legendtoggle" style="fill:#000;fill-opacity:0"/></g></g></g><rect width="0" height="0" x="0" y="0" class="scrollbar" rx="20" ry="3" style="fill:#808ba4;fill-opacity:1"/></g><g class="g-xtitle"><text x="375" y="368.3" class="xtitle" text-anchor="middle" style="font-family:'Open Sans',verdana,arial,sans-serif;font-size:14px;fill:#2a3f5f;opacity:1;font-weight:400;white-space:pre">Index</text></g><g class="annotation" data-index="0" style="opacity:1"><g class="annotation-text-g"><g class="cursor-pointer" transform="rotate(0,375,56) translate(358,44)"><rect width="33" height="23" x=".5" y=".5" class="bg" style="stroke-width:1px;stroke:#000;stroke-opacity:0;fill:#000;fill-opacity:0"/><text x="17.188" y="18" class="annotation-text" text-anchor="middle" style="font-family:'Open Sans',verdana,arial,sans-serif;font-size:16px;fill:#2a3f5f;fill-opacity:1;white-space:pre">plot</text></g></g></g></g></svg>