<svg xmlns="http://www.w3.org/2000/svg" xmlns:xlink="http://www.w3.org/1999/xlink" width="700" height="350" class="main-svg" viewBox="0 0 700 350"><rect width="700" height="350" x="0" y="0" style="fill:#fff;fill-opacity:1"/><defs id="defs-6a9ec8"><g class="clips"><clipPath id="clip6a9ec8xyplot" class="plotclip"><rect width="640" height="274"/></clipPath><clipPath id="clip6a9ec8x" class="axesclip"><rect width="640" height="350" x="30" y="0"/></clipPath><clipPath id="clip6a9ec8y" class="axesclip"><rect width="700" height="274" x="0" y="46"/></clipPath><clipPath id="clip6a9ec8xy" class="axesclip"><rect width="640" height="274" x="30" y="46"/></clipPath></g></defs><g class="bglayer"><rect width="640" height="274" x="30" y="46" class="bg" style="fill:#e5ecf6;fill-opacity:1;stroke-width:0"/></g><g class="cartesianlayer"><g class="subplot xy"><g class="gridlayer"><g class="x"><path d="M0,46v274" class="xgrid crisp" transform="translate(65.75,0)" style="stroke:#fff;stroke-opacity:1;stroke-width:1px"/><path d="M0,46v274" class="xgrid crisp" transform="translate(350,0)" style="stroke:#fff;stroke-opacity:1;stroke-width:1px"/><path d="M0,46v274" class="xgrid crisp" transform="translate(634.25,0)" style="stroke:#fff;stroke-opacity:1;stroke-width:1px"/></g><g class="y"><path d="M30,0h640" class="ygrid crisp" transform="translate(0,302.55)" style="stroke:#fff;stroke-opacity:1;stroke-width:1px"/><path d="M30,0h640" class="ygrid crisp" transform="translate(0,242.78)" style="stroke:#fff;stroke-opacity:1;stroke-width:1px"/><path d="M30,0h640" class="ygrid crisp" transform="translate(0,183)" style="stroke:#fff;stroke-opacity:1;stroke-width:1px"/><path d="M30,0h640" class="ygrid crisp" transform="translate(0,123.23)" style="stroke:#fff;stroke-opacity:1;stroke-width:1px"/><path d="M30,0h640" class="ygrid crisp" transform="translate(0,63.45)" style="stroke:#fff;stroke-opacity:1;stroke-width:1px"/></g></g><path class="xlines-below"/><path class="ylines-below"/><g class="plot" clip-path="url('#clip6a9ec8xyplot')" transform="translate(30, 46)"><g class="scatterlayer mlayer"><g class="trace scatter trace012f40e8-6167-41d9-bb4a-4c24c34f302c" style="stroke-miterlimit:2;opacity:1"><g class="lines"><path d="M35.75,256.55L604.25,196.78" class="js-line" style="vector-effect:non-scaling-stroke;fill:none;stroke:#1f77b4;stroke-opacity:1;stroke-width:2px;opacity:1"/></g><g class="points"><path d="M3,0A3,3 0 1,1 0,-3A3,3 0 0,1 3,0Z" class="point" transform="translate(35.75,256.55)" style="opacity:1;stroke-width:0;fill:#1f77b4;fill-opacity:1"/><path d="M3,0A3,3 0 1,1 0,-3A3,3 0 0,1 3,0Z" class="point" transform="translate(320,226.66)" style="opacity:1;stroke-width:0;fill:#1f77b4;fill-opacity:1"/><path d="M3,0A3,3 0 1,1 0,-3A3,3 0 0,1 3,0Z" class="point" transform="translate(604.25,196.78)" style="opacity:1;stroke-width:0;fill:#1f77b4;fill-opacity:1"/></g></g><g class="trace scatter tracefa2553bf-74dd-467a-a7ba-584468b66d77" style="stroke-miterlimit:2;opacity:1"><g class="lines"><path d="M35.75,166.89L604.25,107.11" class="js-line" style="vector-effect:non-scaling-stroke;fill:none;stroke:#ff7f0e;stroke-opacity:1;stroke-width:2px;opacity:1"/></g><g class="points"><path d="M3,0A3,3 0 1,1 0,-3A3,3 0 0,1 3,0Z" class="point" transform="translate(35.75,166.89)" style="opacity:1;stroke-width:0;fill:#ff7f0e;fill-opacity:1"/><path d="M3,0A3,3 0 1,1 0,-3A3,3 0 0,1 3,0Z" class="point" transform="translate(320,137)" style="opacity:1;stroke-width:0;fill:#ff7f0e;fill-opacity:1"/><path d="M3,0A3,3 0 1,1 0,-3A3,3 0 0,1 3,0Z" class="point" transform="translate(604.25,107.11)" style="opacity:1;stroke-width:0;fill:#ff7f0e;fill-opacity:1"/></g></g><g class="trace scatter tracecfd233f9-291b-443f-8531-543299de4763" style="stroke-miterlimit:2;opacity:1"><g class="lines"><path d="M35.75,77.23L604.25,17.45" class="js-line" style="vector-effect:non-scaling-stroke;fill:none;stroke:#2ca02c;stroke-opacity:1;stroke-width:2px;opacity:1"/></g><g class="points"><path d="M3,0A3,3 0 1,1 0,-3A3,3 0 0,1 3,0Z" class="point" transform="translate(35.75,77.23)" style="opacity:1;stroke-width:0;fill:#2ca02c;fill-opacity:1"/><path d="M3,0A3,3 0 1,1 0,-3A3,3 0 0,1 3,0Z" class="point" transform="translate(320,47.34)" style="opacity:1;stroke-width:0;fill:#2ca02c;fill-opacity:1"/><path d="M3,0A3,3 0 1,1 0,-3A3,3 0 0,1 3,0Z" class="point" transform="translate(604.25,17.45)" style="opacity:1;stroke-width:0;fill:#2ca02c;fill-opacity:1"/></g></g></g></g><path d="M0,0" class="xlines-above crisp" style="fill:none"/><path d="M0,0" class="ylines-above crisp" style="fill:none"/><g class="xaxislayer-above"><g class="xtick"><text x="0" y="333" text-anchor="middle" transform="translate(65.75,0)" style="font-family:'Open Sans',verdana,arial,sans-serif;font-size:12px;fill:#2a3f5f;fill-opacity:1;white-space:pre">x</text></g><g class="xtick"><text x="0" y="333" text-anchor="middle" transform="translate(350,0)" style="font-family:'Open Sans',verdana,arial,sans-serif;font-size:12px;fill:#2a3f5f;fill-opacity:1;white-space:pre">y</text></g><g class="xtick"><text x="0" y="333" text-anchor="middle" transform="translate(634.25,0)" style="font-family:'Open Sans',verdana,arial,sans-serif;font-size:12px;fill:#2a3f5f;fill-opacity:1;white-space:pre">z</text></g></g><g class="yaxislayer-above"><g class="ytick"><text x="29" y="4.2" text-anchor="end" transform="translate(0,302.55)" style="font-family:'Open Sans',verdana,arial,sans-serif;font-size:12px;fill:#2a3f5f;fill-opacity:1;white-space:pre">10</text></g><g class="ytick"><text x="29" y="4.2" text-anchor="end" transform="translate(0,242.78)" style="font-family:'Open Sans',verdana,arial,sans-serif;font-size:12px;fill:#2a3f5f;fill-opacity:1;white-space:pre">12</text></g><g class="ytick"><text x="29" y="4.2" text-anchor="end" transform="translate(0,183)" style="font-family:'Open Sans',verdana,arial,sans-serif;font-size:12px;fill:#2a3f5f;fill-opacity:1;white-space:pre">14</text></g><g class="ytick"><text x="29" y="4.2" text-anchor="end" transform="translate(0,123.23)" style="font-family:'Open Sans',verdana,arial,sans-serif;font-size:12px;fill:#2a3f5f;fill-opacity:1;white-space:pre">16</text></g><g class="ytick"><text x="29" y="4.2" text-anchor="end" transform="translate(0,63.45)" style="font-family:'Open Sans',verdana,arial,sans-serif;font-size:12px;fill:#2a3f5f;fill-opacity:1;white-space:pre">18</text></g></g></g></g><defs id="topdefs-6a9ec8"><clipPath id="legend6a9ec8"><rect width="156" height="29" x="0" y="0"/></clipPath></defs><g class="infolayer"><g class="legend" pointer-events="all" transform="translate(514, 11.519999999999996)"><rect width="156" height="29" x="0" y="0" class="bg" shape-rendering="crispEdges" style="stroke:#444;stroke-opacity:1;fill:#fff;fill-opacity:1;stroke-width:0"/><g class="scrollbox" clip-path="url('#legend6a9ec8')" transform="translate(0, 0)"><g class="groups"><g class="traces" transform="translate(0, 14.5)" style="opacity:1"><text x="40" y="4.68" class="legendtext" text-anchor="start" style="font-family:'Open Sans',verdana,arial,sans-serif;font-size:12px;fill:#2a3f5f;fill-opacity:1;white-space:pre">a</text><g class="layers" style="opacity:1"><g class="legendlines"><path d="M5,0h30" class="js-line" style="fill:none;stroke:#1f77b4;stroke-opacity:1;stroke-width:2px"/></g><g class="legendsymbols"><g class="legendpoints"><path d="M3,0A3,3 0 1,1 0,-3A3,3 0 0,1 3,0Z" class="scatterpts" transform="translate(20,0)" style="opacity:1;stroke-width:0;fill:#1f77b4;fill-opacity:1"/></g></g></g><rect width="49.719" height="19" x="0" y="-9.5" class="legendtoggle" style="fill:#000;fill-opacity:0"/></g><g class="traces" transform="translate(52.21875, 14.5)" style="opacity:1"><text x="40" y="4.68" class="legendtext" text-anchor="start" style="font-family:'Open Sans',verdana,arial,sans-serif;font-size:12px;fill:#2a3f5f;fill-opacity:1;white-space:pre">b</text><g class="layers" style="opacity:1"><g class="legendlines"><path d="M5,0h30" class="js-line" style="fill:none;stroke:#ff7f0e;stroke-opacity:1;stroke-width:2px"/></g><g class="legendsymbols"><g class="legendpoints"><path d="M3,0A3,3 0 1,1 0,-3A3,3 0 0,1 3,0Z" class="scatterpts" transform="translate(20,0)" style="opacity:1;stroke-width:0;fill:#ff7f0e;fill-opacity:1"/></g></g></g><rect width="49.984" height="19" x="0" y="-9.5" class="legendtoggle" style="fill:#000;fill-opacity:0"/></g><g class="traces" transform="translate(104.703125, 14.5)" style="opacity:1"><text x="40" y="4.68" class="legendtext" text-anchor="start" style="font-family:'Open Sans',verdana,arial,sans-serif;font-size:12px;fill:#2a3f5f;fill-opacity:1;white-space:pre">c</text><g class="layers" style="opacity:1"><g class="legendlines"><path d="M5,0h30" class="js-line" style="fill:none;stroke:#2ca02c;stroke-opacity:1;stroke-width:2px"/></g><g class="legendsymbols"><g class="legendpoints"><path d="M3,0A3,3 0 1,1 0,-3A3,3 0 0,1 3,0Z" class="scatterpts" transform="translate(20,0)" style="opacity:1;stroke-width:0;fill:#2ca02c;fill-opacity:1"/></g></g></g><rect width="48.766" height="19" x="0" y="-9.5" class="legendtoggle" style="fill:#000;fill-opacity:0"/></g></g></g><rect width="0" height="0" x="0" y="0" class="scrollbar" rx="20" ry="3" style="fill:#808ba4;fill-opacity:1"/></g></g></svg>