<svg xmlns="http://www.w3.org/2000/svg" xmlns:xlink="http://www.w3.org/1999/xlink" width="700" height="350" class="main-svg" viewBox="0 0 700 350"><rect width="700" height="350" x="0" y="0" style="fill:#fff;fill-opacity:1"/><defs id="defs-178c61"><g class="clips"><clipPath id="clip178c61xyplot" class="plotclip"><rect width="637" height="261"/></clipPath><clipPath id="clip178c61x" class="axesclip"><rect width="637" height="350" x="33" y="0"/></clipPath><clipPath id="clip178c61y" class="axesclip"><rect width="700" height="261" x="0" y="46"/></clipPath><clipPath id="clip178c61xy" class="axesclip"><rect width="637" height="261" x="33" y="46"/></clipPath></g></defs><g class="bglayer"><rect width="637" height="261" x="33" y="46" class="bg" style="fill:#e5ecf6;fill-opacity:1;stroke-width:0"/></g><g class="cartesianlayer"><g class="subplot xy"><g class="gridlayer"><g class="x"><path d="M0,46v261" class="xgrid crisp" transform="translate(68.6,0)" style="stroke:#fff;stroke-opacity:1;stroke-width:1px"/><path d="M0,46v261" class="xgrid crisp" transform="translate(210.05,0)" style="stroke:#fff;stroke-opacity:1;stroke-width:1px"/><path d="M0,46v261" class="xgrid crisp" transform="translate(351.5,0)" style="stroke:#fff;stroke-opacity:1;stroke-width:1px"/><path d="M0,46v261" class="xgrid crisp" transform="translate(492.95,0)" style="stroke:#fff;stroke-opacity:1;stroke-width:1px"/><path d="M0,46v261" class="xgrid crisp" transform="translate(634.4,0)" style="stroke:#fff;stroke-opacity:1;stroke-width:1px"/></g><g class="y"><path d="M33,0h637" class="ygrid crisp" transform="translate(0,290.2)" style="stroke:#fff;stroke-opacity:1;stroke-width:1px"/><path d="M33,0h637" class="ygrid crisp" transform="translate(0,252.3)" style="stroke:#fff;stroke-opacity:1;stroke-width:1px"/><path d="M33,0h637" class="ygrid crisp" transform="translate(0,214.4)" style="stroke:#fff;stroke-opacity:1;stroke-width:1px"/><path d="M33,0h637" class="ygrid crisp" transform="translate(0,176.5)" style="stroke:#fff;stroke-opacity:1;stroke-width:1px"/><path d="M33,0h637" class="ygrid crisp" transform="translate(0,138.6)" style="stroke:#fff;stroke-opacity:1;stroke-width:1px"/><path d="M33,0h637" class="ygrid crisp" transform="translate(0,100.7)" style="stroke:#fff;stroke-opacity:1;stroke-width:1px"/><path d="M33,0h637" class="ygrid crisp" transform="translate(0,62.8)" style="stroke:#fff;stroke-opacity:1;stroke-width:1px"/></g></g><path class="xlines-below"/><path class="ylines-below"/><g class="plot" clip-path="url('#clip178c61xyplot')" transform="translate(33, 46)"><g class="scatterlayer mlayer"><g class="trace scatter traceb2a2c288-2519-47da-8e50-884198f5973f" style="stroke-miterlimit:2;opacity:1"><g class="lines"><path d="M177.05,244.2L601.4,16.8" class="js-line" style="vector-effect:non-scaling-stroke;fill:none;stroke:#1f77b4;stroke-opacity:1;stroke-width:2px;opacity:1"/></g><g class="points"><path d="M3,0A3,3 0 1,1 0,-3A3,3 0 0,1 3,0Z" class="point" transform="translate(177.05,244.2)" style="opacity:1;stroke-width:0;fill:#1f77b4;fill-opacity:1"/><path d="M3,0A3,3 0 1,1 0,-3A3,3 0 0,1 3,0Z" class="point" transform="translate(318.5,168.4)" style="opacity:1;stroke-width:0;fill:#1f77b4;fill-opacity:1"/><path d="M3,0A3,3 0 1,1 0,-3A3,3 0 0,1 3,0Z" class="point" transform="translate(459.95,92.6)" style="opacity:1;stroke-width:0;fill:#1f77b4;fill-opacity:1"/><path d="M3,0A3,3 0 1,1 0,-3A3,3 0 0,1 3,0Z" class="point" transform="translate(601.4,16.8)" style="opacity:1;stroke-width:0;fill:#1f77b4;fill-opacity:1"/></g></g></g></g><path d="M0,0" class="xlines-above crisp" style="fill:none"/><path d="M0,0" class="ylines-above crisp" style="fill:none"/><g class="xaxislayer-above"><g class="xtick"><text x="0" y="320" text-anchor="middle" transform="translate(68.6,0)" style="font-family:'Open Sans',verdana,arial,sans-serif;font-size:12px;fill:#2a3f5f;fill-opacity:1;white-space:pre"><tspan x="0" y="320" class="line" dy="0em">Jan 1</tspan><tspan x="0" y="320" class="line" dy="1.3em">2020</tspan></text></g><g class="xtick"><text x="0" y="320" text-anchor="middle" transform="translate(210.05,0)" style="font-family:'Open Sans',verdana,arial,sans-serif;font-size:12px;fill:#2a3f5f;fill-opacity:1;white-space:pre">Jan 2</text></g><g class="xtick"><text x="0" y="320" text-anchor="middle" transform="translate(351.5,0)" style="font-family:'Open Sans',verdana,arial,sans-serif;font-size:12px;fill:#2a3f5f;fill-opacity:1;white-space:pre">Jan 3</text></g><g class="xtick"><text x="0" y="320" text-anchor="middle" transform="translate(492.95,0)" style="font-family:'Open Sans',verdana,arial,sans-serif;font-size:12px;fill:#2a3f5f;fill-opacity:1;white-space:pre">Jan 4</text></g><g class="xtick"><text x="0" y="320" text-anchor="middle" transform="translate(634.4,0)" style="font-family:'Open Sans',verdana,arial,sans-serif;font-size:12px;fill:#2a3f5f;fill-opacity:1;white-space:pre">Jan 5</text></g></g><g class="yaxislayer-above"><g class="ytick"><text x="32" y="4.2" text-anchor="end" transform="translate(0,290.2)" style="font-family:'Open Sans',verdana,arial,sans-serif;font-size:12px;fill:#2a3f5f;fill-opacity:1;white-space:pre">1.5</text></g><g class="ytick"><text x="32" y="4.2" text-anchor="end" transform="translate(0,252.3)" style="font-family:'Open Sans',verdana,arial,sans-serif;font-size:12px;fill:#2a3f5f;fill-opacity:1;white-space:pre">2</text></g><g class="ytick"><text x="32" y="4.2" text-anchor="end" transform="translate(0,214.4)" style="font-family:'Open Sans',verdana,arial,sans-serif;font-size:12px;fill:#2a3f5f;fill-opacity:1;white-space:pre">2.5</text></g><g class="ytick"><text x="32" y="4.2" text-anchor="end" transform="translate(0,176.5)" style="font-family:'Open Sans',verdana,arial,sans-serif;font-size:12px;fill:#2a3f5f;fill-opacity:1;white-space:pre">3</text></g><g class="ytick"><text x="32" y="4.2" text-anchor="end" transform="translate(0,138.6)" style="font-family:'Open Sans',verdana,arial,sans-serif;font-size:12px;fill:#2a3f5f;fill-opacity:1;white-space:pre">3.5</text></g><g class="ytick"><text x="32" y="4.2" text-anchor="end" transform="translate(0,100.7)" style="font-family:'Open Sans',verdana,arial,sans-serif;font-size:12px;fill:#2a3f5f;fill-opacity:1;white-space:pre">4</text></g><g class="ytick"><text x="32" y="4.2" text-anchor="end" transform="translate(0,62.8)" style="font-family:'Open Sans',verdana,arial,sans-serif;font-size:12px;fill:#2a3f5f;fill-opacity:1;white-space:pre">4.5</text></g></g></g></g><defs id="topdefs-178c61"><clipPath id="legend178c61"><rect width="86" height="29" x="0" y="0"/></clipPath></defs><g class="infolayer"><g class="legend" pointer-events="all" transform="translate(584, 11.779999999999994)"><rect style="stroke:#444;stroke-opacity:1;fill:#fff;fill-opacity:1;stroke-width:0" width="86" height="29" x="0" y="0" class="bg" shape-rendering="crispEdges"/><g class="scrollbox" clip-path="url('#legend178c61')" transform="translate(0, 0)"><g class="groups"><g class="traces" transform="translate(0, 14.5)" style="opacity:1"><text x="40" y="4.68" class="legendtext" text-anchor="start" style="font-family:'Open Sans',verdana,arial,sans-serif;font-size:12px;fill:#2a3f5f;fill-opacity:1;white-space:pre">(2, &apos;a&apos;)</text><g class="layers" style="opacity:1"><g class="legendlines"><path d="M5,0h30" class="js-line" style="fill:none;stroke:#1f77b4;stroke-opacity:1;stroke-width:2px"/></g><g class="legendsymbols"><g class="legendpoints"><path d="M3,0A3,3 0 1,1 0,-3A3,3 0 0,1 3,0Z" class="scatterpts" transform="translate(20,0)" style="opacity:1;stroke-width:0;fill:#1f77b4;fill-opacity:1"/></g></g></g><rect width="83.266" height="19" x="0" y="-9.5" class="legendtoggle" style="fill:#000;fill-opacity:0"/></g></g></g><rect width="0" height="0" x="0" y="0" class="scrollbar" rx="20" ry="3" style="fill:#808ba4;fill-opacity:1"/></g></g></svg>