<svg xmlns="http://www.w3.org/2000/svg" xmlns:xlink="http://www.w3.org/1999/xlink" width="750" height="380" class="main-svg" viewBox="0 0 750 380"><rect width="750" height="380" x="0" y="0" style="fill:#fff;fill-opacity:1"/><defs id="defs-aac1e3"><g class="clips"><clipPath id="clipaac1e3xyplot" class="plotclip"><rect width="687" height="260"/></clipPath><clipPath id="clipaac1e3x" class="axesclip"><rect width="687" height="380" x="33" y="0"/></clipPath><clipPath id="clipaac1e3y" class="axesclip"><rect width="750" height="260" x="0" y="68"/></clipPath><clipPath id="clipaac1e3xy" class="axesclip"><rect width="687" height="260" x="33" y="68"/></clipPath></g></defs><g class="bglayer"><rect width="687" height="260" x="33" y="68" class="bg" style="fill:#e5ecf6;fill-opacity:1;stroke-width:0"/></g><g class="cartesianlayer"><g class="subplot xy"><g class="gridlayer"><g class="x"><path d="M0,68v260" class="xgrid crisp" transform="translate(239.1,0)" style="stroke:#fff;stroke-opacity:1;stroke-width:1px"/><path d="M0,68v260" class="xgrid crisp" transform="translate(376.5,0)" style="stroke:#fff;stroke-opacity:1;stroke-width:1px"/><path d="M0,68v260" class="xgrid crisp" transform="translate(513.9,0)" style="stroke:#fff;stroke-opacity:1;stroke-width:1px"/><path d="M0,68v260" class="xgrid crisp" transform="translate(651.3,0)" style="stroke:#fff;stroke-opacity:1;stroke-width:1px"/></g><g class="y"><path d="M33,0h687" class="ygrid crisp" transform="translate(0,315)" style="stroke:#fff;stroke-opacity:1;stroke-width:1px"/><path d="M33,0h687" class="ygrid crisp" transform="translate(0,276)" style="stroke:#fff;stroke-opacity:1;stroke-width:1px"/><path d="M33,0h687" class="ygrid crisp" transform="translate(0,237)" style="stroke:#fff;stroke-opacity:1;stroke-width:1px"/><path d="M33,0h687" class="ygrid crisp" transform="translate(0,198)" style="stroke:#fff;stroke-opacity:1;stroke-width:1px"/><path d="M33,0h687" class="ygrid crisp" transform="translate(0,159)" style="stroke:#fff;stroke-opacity:1;stroke-width:1px"/><path d="M33,0h687" class="ygrid crisp" transform="translate(0,120)" style="stroke:#fff;stroke-opacity:1;stroke-width:1px"/><path d="M33,0h687" class="ygrid crisp" transform="translate(0,81)" style="stroke:#fff;stroke-opacity:1;stroke-width:1px"/></g></g><g class="zerolinelayer"><path d="M0,68v260" class="xzl zl crisp" transform="translate(101.7,0)" style="stroke:#fff;stroke-opacity:1;stroke-width:2px"/></g><path class="xlines-below"/><path class="ylines-below"/><g class="plot" clip-path="url(#clipaac1e3xyplot)" transform="translate(33,68)"><g class="boxlayer mlayer"><g class="trace boxes" style="opacity:1"><path d="M35.04,170H102.36M35.04,208H102.36V169H35.04ZM68.7,208V247M68.7,169V130" class="box" style="vector-effect:non-scaling-stroke;stroke-width:2px;stroke:#1b9e76;stroke-opacity:1;fill:#1b9e76;fill-opacity:.5;opacity:1"/><path d="M172.44,92H239.76M172.44,130H239.76V91H172.44ZM206.1,130V169M206.1,91V52" class="box" style="vector-effect:non-scaling-stroke;stroke-width:2px;stroke:#1b9e76;stroke-opacity:1;fill:#1b9e76;fill-opacity:.5;opacity:1"/><path d="M309.84,52H377.16M309.84,52H377.16V52H309.84ZM343.5,52V91M343.5,52V13" class="box" style="vector-effect:non-scaling-stroke;stroke-width:2px;stroke:#1b9e76;stroke-opacity:1;fill:#1b9e76;fill-opacity:.5;opacity:1"/><path d="M447.24,129H514.56M447.24,130H514.56V91H447.24ZM480.9,130V169M480.9,91V52" class="box" style="vector-effect:non-scaling-stroke;stroke-width:2px;stroke:#d95f02;stroke-opacity:1;fill:#d95f02;fill-opacity:.5;opacity:1"/><path d="M584.64,207H651.96M584.64,208H651.96V169H584.64ZM618.3,208V247M618.3,169V130" class="box" style="vector-effect:non-scaling-stroke;stroke-width:2px;stroke:#d95f02;stroke-opacity:1;fill:#d95f02;fill-opacity:.5;opacity:1"/></g></g></g><path d="M0,0" class="xlines-above crisp" style="fill:none"/><path d="M0,0" class="ylines-above crisp" style="fill:none"/><g class="xaxislayer-above"><g class="xtick"><text x="0" y="341" text-anchor="middle" transform="translate(101.7,0)" style="font-family:'Open Sans',verdana,arial,sans-serif;font-size:12px;fill:#2a3f5f;fill-opacity:1;white-space:pre;opacity:1">0</text></g><g class="xtick"><text x="0" y="341" text-anchor="middle" transform="translate(239.1,0)" style="font-family:'Open Sans',verdana,arial,sans-serif;font-size:12px;fill:#2a3f5f;fill-opacity:1;white-space:pre;opacity:1">1</text></g><g class="xtick"><text x="0" y="341" text-anchor="middle" transform="translate(376.5,0)" style="font-family:'Open Sans',verdana,arial,sans-serif;font-size:12px;fill:#2a3f5f;fill-opacity:1;white-space:pre;opacity:1">2</text></g><g class="xtick"><text x="0" y="341" text-anchor="middle" transform="translate(513.9,0)" style="font-family:'Open Sans',verdana,arial,sans-serif;font-size:12px;fill:#2a3f5f;fill-opacity:1;white-space:pre;opacity:1">3</text></g><g class="xtick"><text x="0" y="341" text-anchor="middle" transform="translate(651.3,0)" style="font-family:'Open Sans',verdana,arial,sans-serif;font-size:12px;fill:#2a3f5f;fill-opacity:1;white-space:pre;opacity:1">4</text></g></g><g class="yaxislayer-above"><g class="ytick"><text x="32" y="4.2" text-anchor="end" transform="translate(0,315)" style="font-family:'Open Sans',verdana,arial,sans-serif;font-size:12px;fill:#2a3f5f;fill-opacity:1;white-space:pre;opacity:1">1.5</text></g><g class="ytick"><text x="32" y="4.2" text-anchor="end" transform="translate(0,276)" style="font-family:'Open Sans',verdana,arial,sans-serif;font-size:12px;fill:#2a3f5f;fill-opacity:1;white-space:pre;opacity:1">2</text></g><g class="ytick"><text x="32" y="4.2" text-anchor="end" transform="translate(0,237)" style="font-family:'Open Sans',verdana,arial,sans-serif;font-size:12px;fill:#2a3f5f;fill-opacity:1;white-space:pre;opacity:1">2.5</text></g><g class="ytick"><text x="32" y="4.2" text-anchor="end" transform="translate(0,198)" style="font-family:'Open Sans',verdana,arial,sans-serif;font-size:12px;fill:#2a3f5f;fill-opacity:1;white-space:pre;opacity:1">3</text></g><g class="ytick"><text x="32" y="4.2" text-anchor="end" transform="translate(0,159)" style="font-family:'Open Sans',verdana,arial,sans-serif;font-size:12px;fill:#2a3f5f;fill-opacity:1;white-space:pre;opacity:1">3.5</text></g><g class="ytick"><text x="32" y="4.2" text-anchor="end" transform="translate(0,120)" style="font-family:'Open Sans',verdana,arial,sans-serif;font-size:12px;fill:#2a3f5f;fill-opacity:1;white-space:pre;opacity:1">4</text></g><g class="ytick"><text x="32" y="4.2" text-anchor="end" transform="translate(0,81)" style="font-family:'Open Sans',verdana,arial,sans-serif;font-size:12px;fill:#2a3f5f;fill-opacity:1;white-space:pre;opacity:1">4.5</text></g></g></g></g><defs id="topdefs-aac1e3"><clipPath id="legendaac1e3"><rect width="114" height="29" x="0" y="0"/></clipPath></defs><g class="infolayer"><g class="legend" pointer-events="all" transform="translate(606,11.631578947368453)"><rect style="stroke:#444;stroke-opacity:1;fill:#fff;fill-opacity:1;stroke-width:0" width="114" height="29" x="0" y="0" class="bg" shape-rendering="crispEdges"/><g class="scrollbox" clip-path="url(#legendaac1e3)"><g class="groups"><g class="traces" transform="translate(0,14.5)" style="opacity:1"><text x="40" y="4.68" class="legendtext" text-anchor="start" style="font-family:'Open Sans',verdana,arial,sans-serif;font-size:12px;fill:#2a3f5f;fill-opacity:1;white-space:pre">Candlestick</text><g class="layers" style="opacity:1"><g class="legendsymbols"><g class="legendpoints"><path d="M15,0H8M8,-6V6H-8Z" class="legendcandle" transform="translate(20,0)" style="stroke-miterlimit:1;stroke-width:2px;fill:#d95f02;fill-opacity:.5;stroke:#d95f02;stroke-opacity:1"/><path d="M-15,0H-8M-8,6V-6H8Z" class="legendcandle" transform="translate(20,0)" style="stroke-miterlimit:1;stroke-width:2px;fill:#1b9e76;fill-opacity:.5;stroke:#1b9e76;stroke-opacity:1"/></g></g></g><rect width="111.234" height="19" x="0" y="-9.5" class="legendtoggle" style="fill:#000;fill-opacity:0"/></g></g></g><rect width="0" height="0" x="0" y="0" class="scrollbar" rx="20" ry="3" style="fill:#808ba4;fill-opacity:1"/></g><g class="g-xtitle"><text x="376.5" y="368.3" class="xtitle" text-anchor="middle" style="font-family:'Open Sans',verdana,arial,sans-serif;font-size:14px;fill:#2a3f5f;opacity:1;font-weight:400;white-space:pre">Index</text></g><g class="annotation" data-index="0" style="opacity:1"><g class="annotation-text-g"><g class="cursor-pointer" transform="rotate(0,376.5,56) translate(352,44)"><rect width="48" height="23" x=".5" y=".5" class="bg" style="stroke-width:1px;stroke:#000;stroke-opacity:0;fill:#000;fill-opacity:0"/><text x="24.359" y="18" class="annotation-text" text-anchor="middle" style="font-family:'Open Sans',verdana,arial,sans-serif;font-size:16px;fill:#2a3f5f;fill-opacity:1;white-space:pre">OHLC</text></g></g></g></g></svg>