<svg xmlns="http://www.w3.org/2000/svg" xmlns:xlink="http://www.w3.org/1999/xlink" width="700" height="350" class="main-svg" viewBox="0 0 700 350"><rect width="700" height="350" x="0" y="0" style="fill:#fff;fill-opacity:1"/><defs id="defs-086cc4"><g class="clips"><clipPath id="clip086cc4xyplot" class="plotclip"><rect width="640" height="274"/></clipPath><clipPath id="clip086cc4x" class="axesclip"><rect width="640" height="350" x="30" y="0"/></clipPath><clipPath id="clip086cc4y" class="axesclip"><rect width="700" height="274" x="0" y="46"/></clipPath><clipPath id="clip086cc4xy" class="axesclip"><rect width="640" height="274" x="30" y="46"/></clipPath></g></defs><g class="bglayer"><rect width="640" height="274" x="30" y="46" class="bg" style="fill:#e5ecf6;fill-opacity:1;stroke-width:0"/></g><g class="cartesianlayer"><g class="subplot xy"><g class="gridlayer"><g class="x"><path d="M0,46v274" class="xgrid crisp" transform="translate(190,0)" style="stroke:#fff;stroke-opacity:1;stroke-width:1px"/><path d="M0,46v274" class="xgrid crisp" transform="translate(296.67,0)" style="stroke:#fff;stroke-opacity:1;stroke-width:1px"/><path d="M0,46v274" class="xgrid crisp" transform="translate(403.33,0)" style="stroke:#fff;stroke-opacity:1;stroke-width:1px"/><path d="M0,46v274" class="xgrid crisp" transform="translate(510,0)" style="stroke:#fff;stroke-opacity:1;stroke-width:1px"/><path d="M0,46v274" class="xgrid crisp" transform="translate(616.67,0)" style="stroke:#fff;stroke-opacity:1;stroke-width:1px"/></g><g class="y"><path d="M30,0h640" class="ygrid crisp" transform="translate(0,306.3)" style="stroke:#fff;stroke-opacity:1;stroke-width:1px"/><path d="M30,0h640" class="ygrid crisp" transform="translate(0,256.98)" style="stroke:#fff;stroke-opacity:1;stroke-width:1px"/><path d="M30,0h640" class="ygrid crisp" transform="translate(0,207.66)" style="stroke:#fff;stroke-opacity:1;stroke-width:1px"/><path d="M30,0h640" class="ygrid crisp" transform="translate(0,158.34)" style="stroke:#fff;stroke-opacity:1;stroke-width:1px"/><path d="M30,0h640" class="ygrid crisp" transform="translate(0,109.02000000000001)" style="stroke:#fff;stroke-opacity:1;stroke-width:1px"/><path d="M30,0h640" class="ygrid crisp" transform="translate(0,59.7)" style="stroke:#fff;stroke-opacity:1;stroke-width:1px"/></g></g><g class="zerolinelayer"><path d="M0,46v274" class="xzl zl crisp" transform="translate(83.33,0)" style="stroke:#fff;stroke-opacity:1;stroke-width:2px"/></g><path class="xlines-below"/><path class="ylines-below"/><g class="plot" clip-path="url('#clip086cc4xyplot')" transform="translate(30,46)"><g class="ohlclayer mlayer"><g class="trace ohlc" style="opacity:1"><path d="M21.33,161.66H53.33M53.33,112.34V210.98M85.33,161.66H53.33" style="fill:none;stroke:#1b9e76;stroke-opacity:1;stroke-width:2px;opacity:1"/><path d="M128,112.34H160M160,63.02V161.66M192,112.34H160" style="fill:none;stroke:#1b9e76;stroke-opacity:1;stroke-width:2px;opacity:1"/><path d="M234.67,63.02H266.67M266.67,13.7V112.34M298.67,63.02H266.67" style="fill:none;stroke:#1b9e76;stroke-opacity:1;stroke-width:2px;opacity:1"/><path d="M341.33,112.34H373.33M373.33,63.02V161.66M405.33,112.34H373.33" style="fill:none;stroke:#d95f02;stroke-opacity:1;stroke-width:2px;opacity:1"/><path d="M448,161.66H480M480,112.34V210.98M512,161.66H480" style="fill:none;stroke:#d95f02;stroke-opacity:1;stroke-width:2px;opacity:1"/><path d="M554.67,210.98H586.67M586.67,161.66V260.3M618.67,210.98H586.67" style="fill:none;stroke:#d95f02;stroke-opacity:1;stroke-width:2px;opacity:1"/></g></g><g class="scatterlayer mlayer"><g class="trace scatter tracef678370a-335a-4763-9672-6614ac4c46b3" style="stroke-miterlimit:2;opacity:1"><g class="points"><path d="M-4.62,2H4.62L0,-4Z" class="point" transform="translate(53.33,161.66)" style="opacity:1;stroke-width:1px;fill:#37b13f;fill-opacity:1;stroke:#267b2c;stroke-opacity:1"/></g></g><g class="trace scatter trace68906b03-3c41-4995-88b0-12fbfcd90545" style="stroke-miterlimit:2;opacity:1"><g class="points"><path d="M-4.62,-2H4.62L0,4Z" class="point plotly-customdata" transform="translate(480,210.98)" style="opacity:1;stroke-width:1px;fill:#ea4335;fill-opacity:1;stroke:#b51f12;stroke-opacity:1"/></g></g></g></g><path d="M0,0" class="xlines-above crisp" style="fill:none"/><path d="M0,0" class="ylines-above crisp" style="fill:none"/><g class="xaxislayer-above"><g class="xtick"><text x="0" y="333" text-anchor="middle" transform="translate(83.33,0)" style="font-family:'Open Sans',verdana,arial,sans-serif;font-size:12px;fill:#2a3f5f;fill-opacity:1;white-space:pre">0</text></g><g class="xtick"><text x="0" y="333" text-anchor="middle" transform="translate(190,0)" style="font-family:'Open Sans',verdana,arial,sans-serif;font-size:12px;fill:#2a3f5f;fill-opacity:1;white-space:pre">1</text></g><g class="xtick"><text x="0" y="333" text-anchor="middle" transform="translate(296.67,0)" style="font-family:'Open Sans',verdana,arial,sans-serif;font-size:12px;fill:#2a3f5f;fill-opacity:1;white-space:pre">2</text></g><g class="xtick"><text x="0" y="333" text-anchor="middle" transform="translate(403.33,0)" style="font-family:'Open Sans',verdana,arial,sans-serif;font-size:12px;fill:#2a3f5f;fill-opacity:1;white-space:pre">3</text></g><g class="xtick"><text x="0" y="333" text-anchor="middle" transform="translate(510,0)" style="font-family:'Open Sans',verdana,arial,sans-serif;font-size:12px;fill:#2a3f5f;fill-opacity:1;white-space:pre">4</text></g><g class="xtick"><text x="0" y="333" text-anchor="middle" transform="translate(616.67,0)" style="font-family:'Open Sans',verdana,arial,sans-serif;font-size:12px;fill:#2a3f5f;fill-opacity:1;white-space:pre">5</text></g></g><g class="yaxislayer-above"><g class="ytick"><text x="29" y="4.2" text-anchor="end" transform="translate(0,306.3)" style="font-family:'Open Sans',verdana,arial,sans-serif;font-size:12px;fill:#2a3f5f;fill-opacity:1;white-space:pre">8</text></g><g class="ytick"><text x="29" y="4.2" text-anchor="end" transform="translate(0,256.98)" style="font-family:'Open Sans',verdana,arial,sans-serif;font-size:12px;fill:#2a3f5f;fill-opacity:1;white-space:pre">9</text></g><g class="ytick"><text x="29" y="4.2" text-anchor="end" transform="translate(0,207.66)" style="font-family:'Open Sans',verdana,arial,sans-serif;font-size:12px;fill:#2a3f5f;fill-opacity:1;white-space:pre">10</text></g><g class="ytick"><text x="29" y="4.2" text-anchor="end" transform="translate(0,158.34)" style="font-family:'Open Sans',verdana,arial,sans-serif;font-size:12px;fill:#2a3f5f;fill-opacity:1;white-space:pre">11</text></g><g class="ytick"><text x="29" y="4.2" text-anchor="end" transform="translate(0,109.02000000000001)" style="font-family:'Open Sans',verdana,arial,sans-serif;font-size:12px;fill:#2a3f5f;fill-opacity:1;white-space:pre">12</text></g><g class="ytick"><text x="29" y="4.2" text-anchor="end" transform="translate(0,59.7)" style="font-family:'Open Sans',verdana,arial,sans-serif;font-size:12px;fill:#2a3f5f;fill-opacity:1;white-space:pre">13</text></g></g></g></g><defs id="topdefs-086cc4"><clipPath id="legend086cc4"><rect width="224" height="29" x="0" y="0"/></clipPath></defs><g class="infolayer"><g class="legend" pointer-events="all" transform="translate(446,11.519999999999996)"><rect width="224" height="29" x="0" y="0" class="bg" shape-rendering="crispEdges" style="stroke:#444;stroke-opacity:1;fill:#fff;fill-opacity:1;stroke-width:0"/><g class="scrollbox" clip-path="url('#legend086cc4')"><g class="groups"><g class="traces" transform="translate(0,14.5)" style="opacity:1"><text x="40" y="4.68" class="legendtext" text-anchor="start" style="font-family:'Open Sans',verdana,arial,sans-serif;font-size:12px;fill:#2a3f5f;fill-opacity:1;white-space:pre">OHLC</text><g class="layers" style="opacity:1"><g class="legendsymbols"><g class="legendpoints"><path d="M15,0H0M8,6V0" class="legendohlc" transform="translate(20,0)" style="stroke-miterlimit:1;fill:none;stroke-width:2px;stroke:#d95f02;stroke-opacity:1"/><path d="M-15,0H0M-8,-6V0" class="legendohlc" transform="translate(20,0)" style="stroke-miterlimit:1;fill:none;stroke-width:2px;stroke:#1b9e76;stroke-opacity:1"/></g></g></g><rect width="76.031" height="19" x="0" y="-9.5" class="legendtoggle" style="fill:#000;fill-opacity:0"/></g><g class="traces" transform="translate(78.53125,14.5)" style="opacity:1"><text x="40" y="4.68" class="legendtext" text-anchor="start" style="font-family:'Open Sans',verdana,arial,sans-serif;font-size:12px;fill:#2a3f5f;fill-opacity:1;white-space:pre">Entry</text><g class="layers" style="opacity:1"><g class="legendsymbols"><g class="legendpoints"><path d="M-4.62,2H4.62L0,-4Z" class="scatterpts" transform="translate(20,0)" style="opacity:1;stroke-width:1px;fill:#37b13f;fill-opacity:1;stroke:#267b2c;stroke-opacity:1"/></g></g></g><rect width="74.641" height="19" x="0" y="-9.5" class="legendtoggle" style="fill:#000;fill-opacity:0"/></g><g class="traces" transform="translate(155.671875,14.5)" style="opacity:1"><text x="40" y="4.68" class="legendtext" text-anchor="start" style="font-family:'Open Sans',verdana,arial,sans-serif;font-size:12px;fill:#2a3f5f;fill-opacity:1;white-space:pre">Exit</text><g class="layers" style="opacity:1"><g class="legendsymbols"><g class="legendpoints"><path d="M-4.62,-2H4.62L0,4Z" class="scatterpts" transform="translate(20,0)" style="opacity:1;stroke-width:1px;fill:#ea4335;fill-opacity:1;stroke:#b51f12;stroke-opacity:1"/></g></g></g><rect width="65.219" height="19" x="0" y="-9.5" class="legendtoggle" style="fill:#000;fill-opacity:0"/></g></g></g><rect width="0" height="0" x="0" y="0" class="scrollbar" rx="20" ry="3" style="fill:#808ba4;fill-opacity:1"/></g></g></svg>