<svg xmlns="http://www.w3.org/2000/svg" xmlns:xlink="http://www.w3.org/1999/xlink" width="750" height="380" class="main-svg" viewBox="0 0 750 380"><rect width="750" height="380" x="0" y="0" style="fill:#fff;fill-opacity:1"/><defs id="defs-cc5f49"><g class="clips"><clipPath id="clipcc5f49xyplot" class="plotclip"><rect width="663" height="245"/></clipPath><clipPath id="clipcc5f49x" class="axesclip"><rect width="663" height="380" x="57" y="0"/></clipPath><clipPath id="clipcc5f49y" class="axesclip"><rect width="750" height="245" x="0" y="67"/></clipPath><clipPath id="clipcc5f49xy" class="axesclip"><rect width="663" height="245" x="57" y="67"/></clipPath></g></defs><g class="bglayer"><rect width="663" height="245" x="57" y="67" class="bg" style="fill:#e5ecf6;fill-opacity:1;stroke-width:0"/></g><g class="cartesianlayer"><g class="subplot xy"><g class="gridlayer"><g class="x"><path d="M0,67v245" class="xgrid crisp" transform="translate(118.86,0)" style="stroke:#fff;stroke-opacity:1;stroke-width:1px"/><path d="M0,67v245" class="xgrid crisp" transform="translate(201.82,0)" style="stroke:#fff;stroke-opacity:1;stroke-width:1px"/><path d="M0,67v245" class="xgrid crisp" transform="translate(284.78999999999996,0)" style="stroke:#fff;stroke-opacity:1;stroke-width:1px"/><path d="M0,67v245" class="xgrid crisp" transform="translate(367.76,0)" style="stroke:#fff;stroke-opacity:1;stroke-width:1px"/><path d="M0,67v245" class="xgrid crisp" transform="translate(450.73,0)" style="stroke:#fff;stroke-opacity:1;stroke-width:1px"/><path d="M0,67v245" class="xgrid crisp" transform="translate(533.69,0)" style="stroke:#fff;stroke-opacity:1;stroke-width:1px"/><path d="M0,67v245" class="xgrid crisp" transform="translate(616.66,0)" style="stroke:#fff;stroke-opacity:1;stroke-width:1px"/><path d="M0,67v245" class="xgrid crisp" transform="translate(699.63,0)" style="stroke:#fff;stroke-opacity:1;stroke-width:1px"/></g><g class="y"><path d="M57,0h663" class="ygrid crisp" transform="translate(0,295.93)" style="stroke:#fff;stroke-opacity:1;stroke-width:1px"/><path d="M57,0h663" class="ygrid crisp" transform="translate(0,253.04)" style="stroke:#fff;stroke-opacity:1;stroke-width:1px"/><path d="M57,0h663" class="ygrid crisp" transform="translate(0,210.14)" style="stroke:#fff;stroke-opacity:1;stroke-width:1px"/><path d="M57,0h663" class="ygrid crisp" transform="translate(0,167.24)" style="stroke:#fff;stroke-opacity:1;stroke-width:1px"/><path d="M57,0h663" class="ygrid crisp" transform="translate(0,124.34)" style="stroke:#fff;stroke-opacity:1;stroke-width:1px"/><path d="M57,0h663" class="ygrid crisp" transform="translate(0,81.44)" style="stroke:#fff;stroke-opacity:1;stroke-width:1px"/></g></g><path class="xlines-below"/><path class="ylines-below"/><g class="plot" clip-path="url(#clipcc5f49xyplot)" transform="translate(57,67)"><g class="scatterlayer mlayer"><g class="trace scatter tracee201b0a9-48aa-471c-99a2-e073bf86305a" style="stroke-miterlimit:2;opacity:1"><g class="lines"><path d="M38.15,148.6L44.08,25.01L50,71.92L55.93,100.52L61.86,195.47L67.78,195.47L73.71,216.48L79.63,43.14L85.56,100L91.49,77.05L97.41,224.52L103.34,20.89L109.27,50.38L115.19,183.39L121.12,189.93L127.04,189.59L132.97,163.68L138.9,116.38L144.82,136.28L150.75,166.47L156.68,97.69L162.6,199.01L168.53,166.27L174.45,150.35L180.38,131.11L186.31,60.52L192.23,186.11L198.16,118.63L204.09,101.86L210.01,218.97L215.94,98.62L221.86,192.36L227.79,214.98L233.72,25.4L239.64,21.81L245.57,55.54L251.5,163.6L257.42,207.98L263.35,82.17L269.27,134.52L275.2,202.76L281.13,122.72L287.05,221.56L292.98,33.89L298.91,173.43L304.83,86.83L310.76,162.07L316.68,117.38L322.61,111.67L328.54,189.28L334.46,20.96L340.39,62.67L346.32,27.41L352.24,37L358.17,100.69L364.09,31.2L370.02,209.95L375.95,186.9L381.87,219.23L387.8,159.15L393.73,145.56L399.65,170.73L405.58,51.17L411.5,152.41L417.43,168.67L423.36,112.53L429.28,198.71L435.21,56.87L441.14,212.94L447.06,17.25L452.99,63.29L458.91,186.31L464.84,227.75L470.77,54.02L476.69,77.32L482.62,72.56L488.55,63.5L494.47,213.05L500.4,152.04L506.32,204.08L512.25,43.8L518.18,95.24L524.1,157.96L530.03,215.3L535.96,162.23L541.88,159.18L547.81,72.44L553.73,92.18L559.66,38.63L565.59,127.65L571.51,203.28L577.44,75.95L583.37,65.75L589.29,108.54L595.22,63.56L601.14,123.02L607.07,116.81L613,137.23L618.92,223.48L624.85,205.79" class="js-line" style="vector-effect:non-scaling-stroke;fill:none;stroke:#1f77b4;stroke-opacity:1;stroke-width:2px;opacity:1"/></g></g><g class="trace scatter tracea9373a0b-5a04-4fdf-9a39-e2d6f597af93" style="stroke-miterlimit:2;opacity:1"><g class="points"><path d="M-4.62,2H4.62L0,-4Z" class="point plotly-customdata" transform="translate(38.15,148.6)" style="opacity:1;stroke-width:1px;fill:#37b13f;fill-opacity:1;stroke:#267b2c;stroke-opacity:1"/><path d="M-4.62,2H4.62L0,-4Z" class="point plotly-customdata" transform="translate(55.93,100.52)" style="opacity:1;stroke-width:1px;fill:#37b13f;fill-opacity:1;stroke:#267b2c;stroke-opacity:1"/><path d="M-4.62,2H4.62L0,-4Z" class="point plotly-customdata" transform="translate(61.86,195.47)" style="opacity:1;stroke-width:1px;fill:#37b13f;fill-opacity:1;stroke:#267b2c;stroke-opacity:1"/><path d="M-4.62,2H4.62L0,-4Z" class="point plotly-customdata" transform="translate(79.63,43.14)" style="opacity:1;stroke-width:1px;fill:#37b13f;fill-opacity:1;stroke:#267b2c;stroke-opacity:1"/><path d="M-4.62,2H4.62L0,-4Z" class="point plotly-customdata" transform="translate(97.41,224.52)" style="opacity:1;stroke-width:1px;fill:#37b13f;fill-opacity:1;stroke:#267b2c;stroke-opacity:1"/><path d="M-4.62,2H4.62L0,-4Z" class="point plotly-customdata" transform="translate(103.34,20.89)" style="opacity:1;stroke-width:1px;fill:#37b13f;fill-opacity:1;stroke:#267b2c;stroke-opacity:1"/><path d="M-4.62,2H4.62L0,-4Z" class="point plotly-customdata" transform="translate(109.27,50.38)" style="opacity:1;stroke-width:1px;fill:#37b13f;fill-opacity:1;stroke:#267b2c;stroke-opacity:1"/><path d="M-4.62,2H4.62L0,-4Z" class="point plotly-customdata" transform="translate(121.12,189.93)" style="opacity:1;stroke-width:1px;fill:#37b13f;fill-opacity:1;stroke:#267b2c;stroke-opacity:1"/><path d="M-4.62,2H4.62L0,-4Z" class="point plotly-customdata" transform="translate(138.9,116.38)" style="opacity:1;stroke-width:1px;fill:#37b13f;fill-opacity:1;stroke:#267b2c;stroke-opacity:1"/><path d="M-4.62,2H4.62L0,-4Z" class="point plotly-customdata" transform="translate(144.82,136.28)" style="opacity:1;stroke-width:1px;fill:#37b13f;fill-opacity:1;stroke:#267b2c;stroke-opacity:1"/><path d="M-4.62,2H4.62L0,-4Z" class="point plotly-customdata" transform="translate(150.75,166.47)" style="opacity:1;stroke-width:1px;fill:#37b13f;fill-opacity:1;stroke:#267b2c;stroke-opacity:1"/><path d="M-4.62,2H4.62L0,-4Z" class="point plotly-customdata" transform="translate(156.68,97.69)" style="opacity:1;stroke-width:1px;fill:#37b13f;fill-opacity:1;stroke:#267b2c;stroke-opacity:1"/><path d="M-4.62,2H4.62L0,-4Z" class="point plotly-customdata" transform="translate(162.6,199.01)" style="opacity:1;stroke-width:1px;fill:#37b13f;fill-opacity:1;stroke:#267b2c;stroke-opacity:1"/><path d="M-4.62,2H4.62L0,-4Z" class="point plotly-customdata" transform="translate(192.23,186.11)" style="opacity:1;stroke-width:1px;fill:#37b13f;fill-opacity:1;stroke:#267b2c;stroke-opacity:1"/><path d="M-4.62,2H4.62L0,-4Z" class="point plotly-customdata" transform="translate(204.09,101.86)" style="opacity:1;stroke-width:1px;fill:#37b13f;fill-opacity:1;stroke:#267b2c;stroke-opacity:1"/><path d="M-4.62,2H4.62L0,-4Z" class="point plotly-customdata" transform="translate(210.01,218.97)" style="opacity:1;stroke-width:1px;fill:#37b13f;fill-opacity:1;stroke:#267b2c;stroke-opacity:1"/><path d="M-4.62,2H4.62L0,-4Z" class="point plotly-customdata" transform="translate(215.94,98.62)" style="opacity:1;stroke-width:1px;fill:#37b13f;fill-opacity:1;stroke:#267b2c;stroke-opacity:1"/><path d="M-4.62,2H4.62L0,-4Z" class="point plotly-customdata" transform="translate(221.86,192.36)" style="opacity:1;stroke-width:1px;fill:#37b13f;fill-opacity:1;stroke:#267b2c;stroke-opacity:1"/><path d="M-4.62,2H4.62L0,-4Z" class="point plotly-customdata" transform="translate(227.79,214.98)" style="opacity:1;stroke-width:1px;fill:#37b13f;fill-opacity:1;stroke:#267b2c;stroke-opacity:1"/><path d="M-4.62,2H4.62L0,-4Z" class="point plotly-customdata" transform="translate(245.57,55.54)" style="opacity:1;stroke-width:1px;fill:#37b13f;fill-opacity:1;stroke:#267b2c;stroke-opacity:1"/><path d="M-4.62,2H4.62L0,-4Z" class="point plotly-customdata" transform="translate(263.35,82.17)" style="opacity:1;stroke-width:1px;fill:#37b13f;fill-opacity:1;stroke:#267b2c;stroke-opacity:1"/><path d="M-4.62,2H4.62L0,-4Z" class="point plotly-customdata" transform="translate(275.2,202.76)" style="opacity:1;stroke-width:1px;fill:#37b13f;fill-opacity:1;stroke:#267b2c;stroke-opacity:1"/><path d="M-4.62,2H4.62L0,-4Z" class="point plotly-customdata" transform="translate(281.13,122.72)" style="opacity:1;stroke-width:1px;fill:#37b13f;fill-opacity:1;stroke:#267b2c;stroke-opacity:1"/><path d="M-4.62,2H4.62L0,-4Z" class="point plotly-customdata" transform="translate(287.05,221.56)" style="opacity:1;stroke-width:1px;fill:#37b13f;fill-opacity:1;stroke:#267b2c;stroke-opacity:1"/><path d="M-4.62,2H4.62L0,-4Z" class="point plotly-customdata" transform="translate(304.83,86.83)" style="opacity:1;stroke-width:1px;fill:#37b13f;fill-opacity:1;stroke:#267b2c;stroke-opacity:1"/><path d="M-4.62,2H4.62L0,-4Z" class="point plotly-customdata" transform="translate(316.68,117.38)" style="opacity:1;stroke-width:1px;fill:#37b13f;fill-opacity:1;stroke:#267b2c;stroke-opacity:1"/><path d="M-4.62,2H4.62L0,-4Z" class="point plotly-customdata" transform="translate(322.61,111.67)" style="opacity:1;stroke-width:1px;fill:#37b13f;fill-opacity:1;stroke:#267b2c;stroke-opacity:1"/><path d="M-4.62,2H4.62L0,-4Z" class="point plotly-customdata" transform="translate(328.54,189.28)" style="opacity:1;stroke-width:1px;fill:#37b13f;fill-opacity:1;stroke:#267b2c;stroke-opacity:1"/><path d="M-4.62,2H4.62L0,-4Z" class="point plotly-customdata" transform="translate(346.32,27.41)" style="opacity:1;stroke-width:1px;fill:#37b13f;fill-opacity:1;stroke:#267b2c;stroke-opacity:1"/><path d="M-4.62,2H4.62L0,-4Z" class="point plotly-customdata" transform="translate(364.09,31.2)" style="opacity:1;stroke-width:1px;fill:#37b13f;fill-opacity:1;stroke:#267b2c;stroke-opacity:1"/><path d="M-4.62,2H4.62L0,-4Z" class="point plotly-customdata" transform="translate(370.02,209.95)" style="opacity:1;stroke-width:1px;fill:#37b13f;fill-opacity:1;stroke:#267b2c;stroke-opacity:1"/><path d="M-4.62,2H4.62L0,-4Z" class="point plotly-customdata" transform="translate(375.95,186.9)" style="opacity:1;stroke-width:1px;fill:#37b13f;fill-opacity:1;stroke:#267b2c;stroke-opacity:1"/><path d="M-4.62,2H4.62L0,-4Z" class="point plotly-customdata" transform="translate(381.87,219.23)" style="opacity:1;stroke-width:1px;fill:#37b13f;fill-opacity:1;stroke:#267b2c;stroke-opacity:1"/><path d="M-4.62,2H4.62L0,-4Z" class="point plotly-customdata" transform="translate(393.73,145.56)" style="opacity:1;stroke-width:1px;fill:#37b13f;fill-opacity:1;stroke:#267b2c;stroke-opacity:1"/><path d="M-4.62,2H4.62L0,-4Z" class="point plotly-customdata" transform="translate(399.65,170.73)" style="opacity:1;stroke-width:1px;fill:#37b13f;fill-opacity:1;stroke:#267b2c;stroke-opacity:1"/><path d="M-4.62,2H4.62L0,-4Z" class="point plotly-customdata" transform="translate(411.5,152.41)" style="opacity:1;stroke-width:1px;fill:#37b13f;fill-opacity:1;stroke:#267b2c;stroke-opacity:1"/><path d="M-4.62,2H4.62L0,-4Z" class="point plotly-customdata" transform="translate(417.43,168.67)" style="opacity:1;stroke-width:1px;fill:#37b13f;fill-opacity:1;stroke:#267b2c;stroke-opacity:1"/><path d="M-4.62,2H4.62L0,-4Z" class="point plotly-customdata" transform="translate(423.36,112.53)" style="opacity:1;stroke-width:1px;fill:#37b13f;fill-opacity:1;stroke:#267b2c;stroke-opacity:1"/><path d="M-4.62,2H4.62L0,-4Z" class="point plotly-customdata" transform="translate(429.28,198.71)" style="opacity:1;stroke-width:1px;fill:#37b13f;fill-opacity:1;stroke:#267b2c;stroke-opacity:1"/><path d="M-4.62,2H4.62L0,-4Z" class="point plotly-customdata" transform="translate(435.21,56.87)" style="opacity:1;stroke-width:1px;fill:#37b13f;fill-opacity:1;stroke:#267b2c;stroke-opacity:1"/><path d="M-4.62,2H4.62L0,-4Z" class="point plotly-customdata" transform="translate(452.99,63.29)" style="opacity:1;stroke-width:1px;fill:#37b13f;fill-opacity:1;stroke:#267b2c;stroke-opacity:1"/><path d="M-4.62,2H4.62L0,-4Z" class="point plotly-customdata" transform="translate(458.91,186.31)" style="opacity:1;stroke-width:1px;fill:#37b13f;fill-opacity:1;stroke:#267b2c;stroke-opacity:1"/><path d="M-4.62,2H4.62L0,-4Z" class="point plotly-customdata" transform="translate(464.84,227.75)" style="opacity:1;stroke-width:1px;fill:#37b13f;fill-opacity:1;stroke:#267b2c;stroke-opacity:1"/><path d="M-4.62,2H4.62L0,-4Z" class="point plotly-customdata" transform="translate(470.77,54.02)" style="opacity:1;stroke-width:1px;fill:#37b13f;fill-opacity:1;stroke:#267b2c;stroke-opacity:1"/><path d="M-4.62,2H4.62L0,-4Z" class="point plotly-customdata" transform="translate(476.69,77.32)" style="opacity:1;stroke-width:1px;fill:#37b13f;fill-opacity:1;stroke:#267b2c;stroke-opacity:1"/><path d="M-4.62,2H4.62L0,-4Z" class="point plotly-customdata" transform="translate(482.62,72.56)" style="opacity:1;stroke-width:1px;fill:#37b13f;fill-opacity:1;stroke:#267b2c;stroke-opacity:1"/><path d="M-4.62,2H4.62L0,-4Z" class="point plotly-customdata" transform="translate(488.55,63.5)" style="opacity:1;stroke-width:1px;fill:#37b13f;fill-opacity:1;stroke:#267b2c;stroke-opacity:1"/><path d="M-4.62,2H4.62L0,-4Z" class="point plotly-customdata" transform="translate(494.47,213.05)" style="opacity:1;stroke-width:1px;fill:#37b13f;fill-opacity:1;stroke:#267b2c;stroke-opacity:1"/><path d="M-4.62,2H4.62L0,-4Z" class="point plotly-customdata" transform="translate(500.4,152.04)" style="opacity:1;stroke-width:1px;fill:#37b13f;fill-opacity:1;stroke:#267b2c;stroke-opacity:1"/><path d="M-4.62,2H4.62L0,-4Z" class="point plotly-customdata" transform="translate(506.32,204.08)" style="opacity:1;stroke-width:1px;fill:#37b13f;fill-opacity:1;stroke:#267b2c;stroke-opacity:1"/><path d="M-4.62,2H4.62L0,-4Z" class="point plotly-customdata" transform="translate(512.25,43.8)" style="opacity:1;stroke-width:1px;fill:#37b13f;fill-opacity:1;stroke:#267b2c;stroke-opacity:1"/><path d="M-4.62,2H4.62L0,-4Z" class="point plotly-customdata" transform="translate(535.96,162.23)" style="opacity:1;stroke-width:1px;fill:#37b13f;fill-opacity:1;stroke:#267b2c;stroke-opacity:1"/><path d="M-4.62,2H4.62L0,-4Z" class="point plotly-customdata" transform="translate(553.73,92.18)" style="opacity:1;stroke-width:1px;fill:#37b13f;fill-opacity:1;stroke:#267b2c;stroke-opacity:1"/><path d="M-4.62,2H4.62L0,-4Z" class="point plotly-customdata" transform="translate(565.59,127.65)" style="opacity:1;stroke-width:1px;fill:#37b13f;fill-opacity:1;stroke:#267b2c;stroke-opacity:1"/><path d="M-4.62,2H4.62L0,-4Z" class="point plotly-customdata" transform="translate(583.37,65.75)" style="opacity:1;stroke-width:1px;fill:#37b13f;fill-opacity:1;stroke:#267b2c;stroke-opacity:1"/><path d="M-4.62,2H4.62L0,-4Z" class="point plotly-customdata" transform="translate(601.14,123.02)" style="opacity:1;stroke-width:1px;fill:#37b13f;fill-opacity:1;stroke:#267b2c;stroke-opacity:1"/><path d="M-4.62,2H4.62L0,-4Z" class="point plotly-customdata" transform="translate(607.07,116.81)" style="opacity:1;stroke-width:1px;fill:#37b13f;fill-opacity:1;stroke:#267b2c;stroke-opacity:1"/><path d="M-4.62,2H4.62L0,-4Z" class="point plotly-customdata" transform="translate(618.92,223.48)" style="opacity:1;stroke-width:1px;fill:#37b13f;fill-opacity:1;stroke:#267b2c;stroke-opacity:1"/></g></g><g class="trace scatter tracee32d7fc2-361e-426d-bd12-ee10c21ef2ac" style="stroke-miterlimit:2;opacity:1"><g class="points"><path d="M-4.62,-2H4.62L0,4Z" class="point plotly-customdata" transform="translate(44.08,25.01)" style="opacity:1;stroke-width:1px;fill:#ea4335;fill-opacity:1;stroke:#b51f12;stroke-opacity:1"/><path d="M-4.62,-2H4.62L0,4Z" class="point plotly-customdata" transform="translate(50,71.92)" style="opacity:1;stroke-width:1px;fill:#ea4335;fill-opacity:1;stroke:#b51f12;stroke-opacity:1"/><path d="M-4.62,-2H4.62L0,4Z" class="point plotly-customdata" transform="translate(67.78,195.47)" style="opacity:1;stroke-width:1px;fill:#ea4335;fill-opacity:1;stroke:#b51f12;stroke-opacity:1"/><path d="M-4.62,-2H4.62L0,4Z" class="point plotly-customdata" transform="translate(73.71,216.48)" style="opacity:1;stroke-width:1px;fill:#ea4335;fill-opacity:1;stroke:#b51f12;stroke-opacity:1"/><path d="M-4.62,-2H4.62L0,4Z" class="point plotly-customdata" transform="translate(85.56,100)" style="opacity:1;stroke-width:1px;fill:#ea4335;fill-opacity:1;stroke:#b51f12;stroke-opacity:1"/><path d="M-4.62,-2H4.62L0,4Z" class="point plotly-customdata" transform="translate(91.49,77.05)" style="opacity:1;stroke-width:1px;fill:#ea4335;fill-opacity:1;stroke:#b51f12;stroke-opacity:1"/><path d="M-4.62,-2H4.62L0,4Z" class="point plotly-customdata" transform="translate(115.19,183.39)" style="opacity:1;stroke-width:1px;fill:#ea4335;fill-opacity:1;stroke:#b51f12;stroke-opacity:1"/><path d="M-4.62,-2H4.62L0,4Z" class="point plotly-customdata" transform="translate(127.04,189.59)" style="opacity:1;stroke-width:1px;fill:#ea4335;fill-opacity:1;stroke:#b51f12;stroke-opacity:1"/><path d="M-4.62,-2H4.62L0,4Z" class="point plotly-customdata" transform="translate(132.97,163.68)" style="opacity:1;stroke-width:1px;fill:#ea4335;fill-opacity:1;stroke:#b51f12;stroke-opacity:1"/><path d="M-4.62,-2H4.62L0,4Z" class="point plotly-customdata" transform="translate(168.53,166.27)" style="opacity:1;stroke-width:1px;fill:#ea4335;fill-opacity:1;stroke:#b51f12;stroke-opacity:1"/><path d="M-4.62,-2H4.62L0,4Z" class="point plotly-customdata" transform="translate(174.45,150.35)" style="opacity:1;stroke-width:1px;fill:#ea4335;fill-opacity:1;stroke:#b51f12;stroke-opacity:1"/><path d="M-4.62,-2H4.62L0,4Z" class="point plotly-customdata" transform="translate(180.38,131.11)" style="opacity:1;stroke-width:1px;fill:#ea4335;fill-opacity:1;stroke:#b51f12;stroke-opacity:1"/><path d="M-4.62,-2H4.62L0,4Z" class="point plotly-customdata" transform="translate(186.31,60.52)" style="opacity:1;stroke-width:1px;fill:#ea4335;fill-opacity:1;stroke:#b51f12;stroke-opacity:1"/><path d="M-4.62,-2H4.62L0,4Z" class="point plotly-customdata" transform="translate(198.16,118.63)" style="opacity:1;stroke-width:1px;fill:#ea4335;fill-opacity:1;stroke:#b51f12;stroke-opacity:1"/><path d="M-4.62,-2H4.62L0,4Z" class="point plotly-customdata" transform="translate(233.72,25.4)" style="opacity:1;stroke-width:1px;fill:#ea4335;fill-opacity:1;stroke:#b51f12;stroke-opacity:1"/><path d="M-4.62,-2H4.62L0,4Z" class="point plotly-customdata" transform="translate(239.64,21.81)" style="opacity:1;stroke-width:1px;fill:#ea4335;fill-opacity:1;stroke:#b51f12;stroke-opacity:1"/><path d="M-4.62,-2H4.62L0,4Z" class="point plotly-customdata" transform="translate(251.5,163.6)" style="opacity:1;stroke-width:1px;fill:#ea4335;fill-opacity:1;stroke:#b51f12;stroke-opacity:1"/><path d="M-4.62,-2H4.62L0,4Z" class="point plotly-customdata" transform="translate(257.42,207.98)" style="opacity:1;stroke-width:1px;fill:#ea4335;fill-opacity:1;stroke:#b51f12;stroke-opacity:1"/><path d="M-4.62,-2H4.62L0,4Z" class="point plotly-customdata" transform="translate(269.27,134.52)" style="opacity:1;stroke-width:1px;fill:#ea4335;fill-opacity:1;stroke:#b51f12;stroke-opacity:1"/><path d="M-4.62,-2H4.62L0,4Z" class="point plotly-customdata" transform="translate(292.98,33.89)" style="opacity:1;stroke-width:1px;fill:#ea4335;fill-opacity:1;stroke:#b51f12;stroke-opacity:1"/><path d="M-4.62,-2H4.62L0,4Z" class="point plotly-customdata" transform="translate(298.91,173.43)" style="opacity:1;stroke-width:1px;fill:#ea4335;fill-opacity:1;stroke:#b51f12;stroke-opacity:1"/><path d="M-4.62,-2H4.62L0,4Z" class="point plotly-customdata" transform="translate(310.76,162.07)" style="opacity:1;stroke-width:1px;fill:#ea4335;fill-opacity:1;stroke:#b51f12;stroke-opacity:1"/><path d="M-4.62,-2H4.62L0,4Z" class="point plotly-customdata" transform="translate(334.46,20.96)" style="opacity:1;stroke-width:1px;fill:#ea4335;fill-opacity:1;stroke:#b51f12;stroke-opacity:1"/><path d="M-4.62,-2H4.62L0,4Z" class="point plotly-customdata" transform="translate(340.39,62.67)" style="opacity:1;stroke-width:1px;fill:#ea4335;fill-opacity:1;stroke:#b51f12;stroke-opacity:1"/><path d="M-4.62,-2H4.62L0,4Z" class="point plotly-customdata" transform="translate(352.24,37)" style="opacity:1;stroke-width:1px;fill:#ea4335;fill-opacity:1;stroke:#b51f12;stroke-opacity:1"/><path d="M-4.62,-2H4.62L0,4Z" class="point plotly-customdata" transform="translate(358.17,100.69)" style="opacity:1;stroke-width:1px;fill:#ea4335;fill-opacity:1;stroke:#b51f12;stroke-opacity:1"/><path d="M-4.62,-2H4.62L0,4Z" class="point plotly-customdata" transform="translate(387.8,159.15)" style="opacity:1;stroke-width:1px;fill:#ea4335;fill-opacity:1;stroke:#b51f12;stroke-opacity:1"/><path d="M-4.62,-2H4.62L0,4Z" class="point plotly-customdata" transform="translate(405.58,51.17)" style="opacity:1;stroke-width:1px;fill:#ea4335;fill-opacity:1;stroke:#b51f12;stroke-opacity:1"/><path d="M-4.62,-2H4.62L0,4Z" class="point plotly-customdata" transform="translate(441.14,212.94)" style="opacity:1;stroke-width:1px;fill:#ea4335;fill-opacity:1;stroke:#b51f12;stroke-opacity:1"/><path d="M-4.62,-2H4.62L0,4Z" class="point plotly-customdata" transform="translate(447.06,17.25)" style="opacity:1;stroke-width:1px;fill:#ea4335;fill-opacity:1;stroke:#b51f12;stroke-opacity:1"/><path d="M-4.62,-2H4.62L0,4Z" class="point plotly-customdata" transform="translate(518.18,95.24)" style="opacity:1;stroke-width:1px;fill:#ea4335;fill-opacity:1;stroke:#b51f12;stroke-opacity:1"/><path d="M-4.62,-2H4.62L0,4Z" class="point plotly-customdata" transform="translate(524.1,157.96)" style="opacity:1;stroke-width:1px;fill:#ea4335;fill-opacity:1;stroke:#b51f12;stroke-opacity:1"/><path d="M-4.62,-2H4.62L0,4Z" class="point plotly-customdata" transform="translate(530.03,215.3)" style="opacity:1;stroke-width:1px;fill:#ea4335;fill-opacity:1;stroke:#b51f12;stroke-opacity:1"/><path d="M-4.62,-2H4.62L0,4Z" class="point plotly-customdata" transform="translate(541.88,159.18)" style="opacity:1;stroke-width:1px;fill:#ea4335;fill-opacity:1;stroke:#b51f12;stroke-opacity:1"/><path d="M-4.62,-2H4.62L0,4Z" class="point plotly-customdata" transform="translate(547.81,72.44)" style="opacity:1;stroke-width:1px;fill:#ea4335;fill-opacity:1;stroke:#b51f12;stroke-opacity:1"/><path d="M-4.62,-2H4.62L0,4Z" class="point plotly-customdata" transform="translate(559.66,38.63)" style="opacity:1;stroke-width:1px;fill:#ea4335;fill-opacity:1;stroke:#b51f12;stroke-opacity:1"/><path d="M-4.62,-2H4.62L0,4Z" class="point plotly-customdata" transform="translate(571.51,203.28)" style="opacity:1;stroke-width:1px;fill:#ea4335;fill-opacity:1;stroke:#b51f12;stroke-opacity:1"/><path d="M-4.62,-2H4.62L0,4Z" class="point plotly-customdata" transform="translate(577.44,75.95)" style="opacity:1;stroke-width:1px;fill:#ea4335;fill-opacity:1;stroke:#b51f12;stroke-opacity:1"/><path d="M-4.62,-2H4.62L0,4Z" class="point plotly-customdata" transform="translate(589.29,108.54)" style="opacity:1;stroke-width:1px;fill:#ea4335;fill-opacity:1;stroke:#b51f12;stroke-opacity:1"/><path d="M-4.62,-2H4.62L0,4Z" class="point plotly-customdata" transform="translate(595.22,63.56)" style="opacity:1;stroke-width:1px;fill:#ea4335;fill-opacity:1;stroke:#b51f12;stroke-opacity:1"/><path d="M-4.62,-2H4.62L0,4Z" class="point plotly-customdata" transform="translate(613,137.23)" style="opacity:1;stroke-width:1px;fill:#ea4335;fill-opacity:1;stroke:#b51f12;stroke-opacity:1"/><path d="M-4.62,-2H4.62L0,4Z" class="point plotly-customdata" transform="translate(624.85,205.79)" style="opacity:1;stroke-width:1px;fill:#ea4335;fill-opacity:1;stroke:#b51f12;stroke-opacity:1"/></g></g></g></g><path d="M0,0" class="xlines-above crisp" style="fill:none"/><path d="M0,0" class="ylines-above crisp" style="fill:none"/><g class="xaxislayer-above"><g class="xtick"><text x="0" y="325" text-anchor="middle" transform="translate(118.86,0)" style="font-family:'Open Sans',verdana,arial,sans-serif;font-size:12px;fill:#2a3f5f;fill-opacity:1;white-space:pre;opacity:1"><tspan x="0" y="325" class="line" dy="0em">Jan 5</tspan><tspan x="0" y="325" class="line" dy="1.3em">2020</tspan></text></g><g class="xtick"><text x="0" y="325" text-anchor="middle" transform="translate(201.82,0)" style="font-family:'Open Sans',verdana,arial,sans-serif;font-size:12px;fill:#2a3f5f;fill-opacity:1;white-space:pre;opacity:1">Jan 19</text></g><g class="xtick"><text x="0" y="325" text-anchor="middle" transform="translate(284.78999999999996,0)" style="font-family:'Open Sans',verdana,arial,sans-serif;font-size:12px;fill:#2a3f5f;fill-opacity:1;white-space:pre;opacity:1">Feb 2</text></g><g class="xtick"><text x="0" y="325" text-anchor="middle" transform="translate(367.76,0)" style="font-family:'Open Sans',verdana,arial,sans-serif;font-size:12px;fill:#2a3f5f;fill-opacity:1;white-space:pre;opacity:1">Feb 16</text></g><g class="xtick"><text x="0" y="325" text-anchor="middle" transform="translate(450.73,0)" style="font-family:'Open Sans',verdana,arial,sans-serif;font-size:12px;fill:#2a3f5f;fill-opacity:1;white-space:pre;opacity:1">Mar 1</text></g><g class="xtick"><text x="0" y="325" text-anchor="middle" transform="translate(533.69,0)" style="font-family:'Open Sans',verdana,arial,sans-serif;font-size:12px;fill:#2a3f5f;fill-opacity:1;white-space:pre;opacity:1">Mar 15</text></g><g class="xtick"><text x="0" y="325" text-anchor="middle" transform="translate(616.66,0)" style="font-family:'Open Sans',verdana,arial,sans-serif;font-size:12px;fill:#2a3f5f;fill-opacity:1;white-space:pre;opacity:1">Mar 29</text></g><g class="xtick"><text x="0" y="325" text-anchor="middle" transform="translate(699.63,0)" style="font-family:'Open Sans',verdana,arial,sans-serif;font-size:12px;fill:#2a3f5f;fill-opacity:1;white-space:pre;opacity:1">Apr 12</text></g></g><g class="yaxislayer-above"><g class="ytick"><text x="56" y="4.2" text-anchor="end" transform="translate(0,295.93)" style="font-family:'Open Sans',verdana,arial,sans-serif;font-size:12px;fill:#2a3f5f;fill-opacity:1;white-space:pre;opacity:1">1</text></g><g class="ytick"><text x="56" y="4.2" text-anchor="end" transform="translate(0,253.04)" style="font-family:'Open Sans',verdana,arial,sans-serif;font-size:12px;fill:#2a3f5f;fill-opacity:1;white-space:pre;opacity:1">1.2</text></g><g class="ytick"><text x="56" y="4.2" text-anchor="end" transform="translate(0,210.14)" style="font-family:'Open Sans',verdana,arial,sans-serif;font-size:12px;fill:#2a3f5f;fill-opacity:1;white-space:pre;opacity:1">1.4</text></g><g class="ytick"><text x="56" y="4.2" text-anchor="end" transform="translate(0,167.24)" style="font-family:'Open Sans',verdana,arial,sans-serif;font-size:12px;fill:#2a3f5f;fill-opacity:1;white-space:pre;opacity:1">1.6</text></g><g class="ytick"><text x="56" y="4.2" text-anchor="end" transform="translate(0,124.34)" style="font-family:'Open Sans',verdana,arial,sans-serif;font-size:12px;fill:#2a3f5f;fill-opacity:1;white-space:pre;opacity:1">1.8</text></g><g class="ytick"><text x="56" y="4.2" text-anchor="end" transform="translate(0,81.44)" style="font-family:'Open Sans',verdana,arial,sans-serif;font-size:12px;fill:#2a3f5f;fill-opacity:1;white-space:pre;opacity:1">2</text></g></g></g></g><defs id="topdefs-cc5f49"><clipPath id="legendcc5f49"><rect width="213" height="29" x="0" y="0"/></clipPath></defs><g class="infolayer"><g class="legend" pointer-events="all" transform="translate(507,12.210526315789501)"><rect style="stroke:#444;stroke-opacity:1;fill:#fff;fill-opacity:1;stroke-width:0" width="213" height="29" x="0" y="0" class="bg" shape-rendering="crispEdges"/><g class="scrollbox" clip-path="url(#legendcc5f49)"><g class="groups"><g class="traces" transform="translate(0,14.5)" style="opacity:1"><text x="40" y="4.68" class="legendtext" text-anchor="start" style="font-family:'Open Sans',verdana,arial,sans-serif;font-size:12px;fill:#2a3f5f;fill-opacity:1;white-space:pre">Close</text><g class="layers" style="opacity:1"><g class="legendlines"><path d="M5,0h30" class="js-line" style="fill:none;stroke:#1f77b4;stroke-opacity:1;stroke-width:2px"/></g></g><rect width="74.859" height="19" x="0" y="-9.5" class="legendtoggle" style="fill:#000;fill-opacity:0"/></g><g class="traces" transform="translate(77.359375,14.5)" style="opacity:1"><text x="40" y="4.68" class="legendtext" text-anchor="start" style="font-family:'Open Sans',verdana,arial,sans-serif;font-size:12px;fill:#2a3f5f;fill-opacity:1;white-space:pre">Buy</text><g class="layers" style="opacity:1"><g class="legendsymbols"><g class="legendpoints"><path d="M-4.62,2H4.62L0,-4Z" class="scatterpts" transform="translate(20,0)" style="opacity:1;stroke-width:1px;fill:#37b13f;fill-opacity:1;stroke:#267b2c;stroke-opacity:1"/></g></g></g><rect width="65.422" height="19" x="0" y="-9.5" class="legendtoggle" style="fill:#000;fill-opacity:0"/></g><g class="traces" transform="translate(145.28125,14.5)" style="opacity:1"><text x="40" y="4.68" class="legendtext" text-anchor="start" style="font-family:'Open Sans',verdana,arial,sans-serif;font-size:12px;fill:#2a3f5f;fill-opacity:1;white-space:pre">Sell</text><g class="layers" style="opacity:1"><g class="legendsymbols"><g class="legendpoints"><path d="M-4.62,-2H4.62L0,4Z" class="scatterpts" transform="translate(20,0)" style="opacity:1;stroke-width:1px;fill:#ea4335;fill-opacity:1;stroke:#b51f12;stroke-opacity:1"/></g></g></g><rect width="64.438" height="19" x="0" y="-9.5" class="legendtoggle" style="fill:#000;fill-opacity:0"/></g></g></g><rect width="0" height="0" x="0" y="0" class="scrollbar" rx="20" ry="3" style="fill:#808ba4;fill-opacity:1"/></g><g class="g-xtitle"><text x="388.5" y="367.909" class="xtitle" text-anchor="middle" style="font-family:'Open Sans',verdana,arial,sans-serif;font-size:14px;fill:#2a3f5f;opacity:1;font-weight:400;white-space:pre">Index</text></g><g class="g-ytitle"><text x="11.575" y="189.5" class="ytitle" text-anchor="middle" transform="translate(2.4248046875,0) rotate(-90,11.575000000000003,189.5)" style="font-family:'Open Sans',verdana,arial,sans-serif;font-size:14px;fill:#2a3f5f;opacity:1;font-weight:400;white-space:pre">Price</text></g><g class="annotation" data-index="0" style="opacity:1"><g class="annotation-text-g"><g class="cursor-pointer" transform="rotate(0,388.5,55) translate(360,43)"><rect width="57" height="23" x=".5" y=".5" class="bg" style="stroke-width:1px;stroke:#000;stroke-opacity:0;fill:#000;fill-opacity:0"/><text x="29.047" y="18" class="annotation-text" text-anchor="middle" style="font-family:'Open Sans',verdana,arial,sans-serif;font-size:16px;fill:#2a3f5f;fill-opacity:1;white-space:pre">Orders</text></g></g></g></g></svg>