<svg xmlns="http://www.w3.org/2000/svg" xmlns:xlink="http://www.w3.org/1999/xlink" width="700" height="350" class="main-svg" viewBox="0 0 700 350"><rect width="700" height="350" x="0" y="0" style="fill:#fff;fill-opacity:1"/><defs id="defs-7b8cfc"><g class="clips"><clipPath id="clip7b8cfcxyplot" class="plotclip"><rect width="637" height="261"/></clipPath><clipPath id="clip7b8cfcx" class="axesclip"><rect width="637" height="350" x="33" y="0"/></clipPath><clipPath id="clip7b8cfcy" class="axesclip"><rect width="700" height="261" x="0" y="46"/></clipPath><clipPath id="clip7b8cfcxy" class="axesclip"><rect width="637" height="261" x="33" y="46"/></clipPath></g></defs><g class="bglayer"><rect width="637" height="261" x="33" y="46" class="bg" style="fill:#e5ecf6;fill-opacity:1;stroke-width:0"/></g><g class="cartesianlayer"><g class="subplot xy"><g class="gridlayer"><g class="x"><path d="M0,46v261" class="xgrid crisp" transform="translate(69.85,0)" style="stroke:#fff;stroke-opacity:1;stroke-width:1px"/><path d="M0,46v261" class="xgrid crisp" transform="translate(210.67,0)" style="stroke:#fff;stroke-opacity:1;stroke-width:1px"/><path d="M0,46v261" class="xgrid crisp" transform="translate(351.5,0)" style="stroke:#fff;stroke-opacity:1;stroke-width:1px"/><path d="M0,46v261" class="xgrid crisp" transform="translate(492.33,0)" style="stroke:#fff;stroke-opacity:1;stroke-width:1px"/><path d="M0,46v261" class="xgrid crisp" transform="translate(633.15,0)" style="stroke:#fff;stroke-opacity:1;stroke-width:1px"/></g><g class="y"><path d="M33,0h637" class="ygrid crisp" transform="translate(0,288.95)" style="stroke:#fff;stroke-opacity:1;stroke-width:1px"/><path d="M33,0h637" class="ygrid crisp" transform="translate(0,232.73)" style="stroke:#fff;stroke-opacity:1;stroke-width:1px"/><path d="M33,0h637" class="ygrid crisp" transform="translate(0,176.5)" style="stroke:#fff;stroke-opacity:1;stroke-width:1px"/><path d="M33,0h637" class="ygrid crisp" transform="translate(0,120.27)" style="stroke:#fff;stroke-opacity:1;stroke-width:1px"/><path d="M33,0h637" class="ygrid crisp" transform="translate(0,64.05)" style="stroke:#fff;stroke-opacity:1;stroke-width:1px"/></g></g><path class="xlines-below"/><path class="ylines-below"/><g class="plot" clip-path="url(#clip7b8cfcxyplot)" transform="translate(33,46)"><g class="scatterlayer mlayer"><g class="trace scatter tracef4fda11e-5b28-4978-b20a-38c206618842" style="stroke-miterlimit:2;opacity:1"><g class="lines"><path d="M36.85,242.95L318.5,18.05L459.33,130.5L600.15,242.95" class="js-line" style="vector-effect:non-scaling-stroke;fill:none;stroke:#1f77b4;stroke-opacity:1;stroke-width:2px;opacity:1"/></g><g class="points"><path d="M3,0A3,3 0 1,1 0,-3A3,3 0 0,1 3,0Z" class="point" transform="translate(36.85,242.95)" style="opacity:1;stroke-width:0;fill:#1f77b4;fill-opacity:1"/><path d="M3,0A3,3 0 1,1 0,-3A3,3 0 0,1 3,0Z" class="point" transform="translate(177.67,130.5)" style="opacity:1;stroke-width:0;fill:#1f77b4;fill-opacity:1"/><path d="M3,0A3,3 0 1,1 0,-3A3,3 0 0,1 3,0Z" class="point" transform="translate(318.5,18.05)" style="opacity:1;stroke-width:0;fill:#1f77b4;fill-opacity:1"/><path d="M3,0A3,3 0 1,1 0,-3A3,3 0 0,1 3,0Z" class="point" transform="translate(459.33,130.5)" style="opacity:1;stroke-width:0;fill:#1f77b4;fill-opacity:1"/><path d="M3,0A3,3 0 1,1 0,-3A3,3 0 0,1 3,0Z" class="point" transform="translate(600.15,242.95)" style="opacity:1;stroke-width:0;fill:#1f77b4;fill-opacity:1"/></g></g><g class="trace scatter traceedea1786-af01-4850-9bb9-9972ae5f73a8" style="stroke-miterlimit:2;opacity:1"><g class="points"><path d="M-4.62,2H4.62L0,-4Z" class="point plotly-customdata" transform="translate(36.85,242.95)" style="opacity:1;stroke-width:1px;fill:#37b13f;fill-opacity:1;stroke:#267b2c;stroke-opacity:1"/><path d="M-4.62,2H4.62L0,-4Z" class="point plotly-customdata" transform="translate(177.67,130.5)" style="opacity:1;stroke-width:1px;fill:#37b13f;fill-opacity:1;stroke:#267b2c;stroke-opacity:1"/><path d="M-4.62,2H4.62L0,-4Z" class="point plotly-customdata" transform="translate(318.5,18.05)" style="opacity:1;stroke-width:1px;fill:#37b13f;fill-opacity:1;stroke:#267b2c;stroke-opacity:1"/><path d="M-4.62,2H4.62L0,-4Z" class="point plotly-customdata" transform="translate(459.33,130.5)" style="opacity:1;stroke-width:1px;fill:#37b13f;fill-opacity:1;stroke:#267b2c;stroke-opacity:1"/></g></g><g class="trace scatter trace1a0441f9-552c-46b6-826e-a99b540582ff" style="stroke-miterlimit:2;opacity:1"><g class="points"><path d="M-4.62,-2H4.62L0,4Z" class="point plotly-customdata" transform="translate(600.15,242.95)" style="opacity:1;stroke-width:1px;fill:#ea4335;fill-opacity:1;stroke:#b51f12;stroke-opacity:1"/></g></g></g></g><path d="M0,0" class="xlines-above crisp" style="fill:none"/><path d="M0,0" class="ylines-above crisp" style="fill:none"/><g class="xaxislayer-above"><g class="xtick"><text x="0" y="320" text-anchor="middle" transform="translate(69.85,0)" style="font-family:'Open Sans',verdana,arial,sans-serif;font-size:12px;fill:#2a3f5f;fill-opacity:1;white-space:pre;opacity:1"><tspan x="0" y="320" class="line" dy="0em">Jan 1</tspan><tspan x="0" y="320" class="line" dy="1.3em">2020</tspan></text></g><g class="xtick"><text x="0" y="320" text-anchor="middle" transform="translate(210.67,0)" style="font-family:'Open Sans',verdana,arial,sans-serif;font-size:12px;fill:#2a3f5f;fill-opacity:1;white-space:pre;opacity:1">Jan 2</text></g><g class="xtick"><text x="0" y="320" text-anchor="middle" transform="translate(351.5,0)" style="font-family:'Open Sans',verdana,arial,sans-serif;font-size:12px;fill:#2a3f5f;fill-opacity:1;white-space:pre;opacity:1">Jan 3</text></g><g class="xtick"><text x="0" y="320" text-anchor="middle" transform="translate(492.33,0)" style="font-family:'Open Sans',verdana,arial,sans-serif;font-size:12px;fill:#2a3f5f;fill-opacity:1;white-space:pre;opacity:1">Jan 4</text></g><g class="xtick"><text x="0" y="320" text-anchor="middle" transform="translate(633.15,0)" style="font-family:'Open Sans',verdana,arial,sans-serif;font-size:12px;fill:#2a3f5f;fill-opacity:1;white-space:pre;opacity:1">Jan 5</text></g></g><g class="yaxislayer-above"><g class="ytick"><text x="32" y="4.2" text-anchor="end" transform="translate(0,288.95)" style="font-family:'Open Sans',verdana,arial,sans-serif;font-size:12px;fill:#2a3f5f;fill-opacity:1;white-space:pre;opacity:1">1</text></g><g class="ytick"><text x="32" y="4.2" text-anchor="end" transform="translate(0,232.73)" style="font-family:'Open Sans',verdana,arial,sans-serif;font-size:12px;fill:#2a3f5f;fill-opacity:1;white-space:pre;opacity:1">1.5</text></g><g class="ytick"><text x="32" y="4.2" text-anchor="end" transform="translate(0,176.5)" style="font-family:'Open Sans',verdana,arial,sans-serif;font-size:12px;fill:#2a3f5f;fill-opacity:1;white-space:pre;opacity:1">2</text></g><g class="ytick"><text x="32" y="4.2" text-anchor="end" transform="translate(0,120.27)" style="font-family:'Open Sans',verdana,arial,sans-serif;font-size:12px;fill:#2a3f5f;fill-opacity:1;white-space:pre;opacity:1">2.5</text></g><g class="ytick"><text x="32" y="4.2" text-anchor="end" transform="translate(0,64.05)" style="font-family:'Open Sans',verdana,arial,sans-serif;font-size:12px;fill:#2a3f5f;fill-opacity:1;white-space:pre;opacity:1">3</text></g></g></g></g><defs id="topdefs-7b8cfc"><clipPath id="legend7b8cfc"><rect width="209" height="29" x="0" y="0"/></clipPath></defs><g class="infolayer"><g class="legend" pointer-events="all" transform="translate(461,11.779999999999994)"><rect style="stroke:#444;stroke-opacity:1;fill:#fff;fill-opacity:1;stroke-width:0" width="209" height="29" x="0" y="0" class="bg" shape-rendering="crispEdges"/><g class="scrollbox" clip-path="url(#legend7b8cfc)"><g class="groups"><g class="traces" transform="translate(0,14.5)" style="opacity:1"><text x="40" y="4.68" class="legendtext" text-anchor="start" style="font-family:'Open Sans',verdana,arial,sans-serif;font-size:12px;fill:#2a3f5f;fill-opacity:1;white-space:pre">Price</text><g class="layers" style="opacity:1"><g class="legendlines"><path d="M5,0h30" class="js-line" style="fill:none;stroke:#1f77b4;stroke-opacity:1;stroke-width:2px"/></g><g class="legendsymbols"><g class="legendpoints"><path d="M3,0A3,3 0 1,1 0,-3A3,3 0 0,1 3,0Z" class="scatterpts" transform="translate(20,0)" style="opacity:1;stroke-width:0;fill:#1f77b4;fill-opacity:1"/></g></g></g><rect width="71.563" height="19" x="0" y="-9.5" class="legendtoggle" style="fill:#000;fill-opacity:0"/></g><g class="traces" transform="translate(74.0625,14.5)" style="opacity:1"><text x="40" y="4.68" class="legendtext" text-anchor="start" style="font-family:'Open Sans',verdana,arial,sans-serif;font-size:12px;fill:#2a3f5f;fill-opacity:1;white-space:pre">Buy</text><g class="layers" style="opacity:1"><g class="legendsymbols"><g class="legendpoints"><path d="M-4.62,2H4.62L0,-4Z" class="scatterpts" transform="translate(20,0)" style="opacity:1;stroke-width:1px;fill:#37b13f;fill-opacity:1;stroke:#267b2c;stroke-opacity:1"/></g></g></g><rect width="65.422" height="19" x="0" y="-9.5" class="legendtoggle" style="fill:#000;fill-opacity:0"/></g><g class="traces" transform="translate(141.984375,14.5)" style="opacity:1"><text x="40" y="4.68" class="legendtext" text-anchor="start" style="font-family:'Open Sans',verdana,arial,sans-serif;font-size:12px;fill:#2a3f5f;fill-opacity:1;white-space:pre">Sell</text><g class="layers" style="opacity:1"><g class="legendsymbols"><g class="legendpoints"><path d="M-4.62,-2H4.62L0,4Z" class="scatterpts" transform="translate(20,0)" style="opacity:1;stroke-width:1px;fill:#ea4335;fill-opacity:1;stroke:#b51f12;stroke-opacity:1"/></g></g></g><rect width="64.438" height="19" x="0" y="-9.5" class="legendtoggle" style="fill:#000;fill-opacity:0"/></g></g></g><rect width="0" height="0" x="0" y="0" class="scrollbar" rx="20" ry="3" style="fill:#808ba4;fill-opacity:1"/></g></g></svg>