<svg xmlns="http://www.w3.org/2000/svg" xmlns:xlink="http://www.w3.org/1999/xlink" width="750" height="380" class="main-svg" viewBox="0 0 750 380"><rect width="750" height="380" x="0" y="0" style="fill:#fff;fill-opacity:1"/><defs id="defs-033ee5"><g class="clips"><clipPath id="clip033ee5xyplot" class="plotclip"><rect width="690" height="260"/></clipPath><clipPath id="clip033ee5x" class="axesclip"><rect width="690" height="380" x="30" y="0"/></clipPath><clipPath id="clip033ee5y" class="axesclip"><rect width="750" height="260" x="0" y="68"/></clipPath><clipPath id="clip033ee5xy" class="axesclip"><rect width="690" height="260" x="30" y="68"/></clipPath></g></defs><g class="bglayer"><rect width="690" height="260" x="30" y="68" class="bg" style="fill:#e5ecf6;fill-opacity:1;stroke-width:0"/></g><g class="layer-below"><g class="shapelayer"><path fill-rule="evenodd" d="M68.88,328H313.77V68H68.88Z" clip-path="url(#clip033ee5x)" data-index="0" style="opacity:.2;stroke:#000;stroke-opacity:0;fill:teal;fill-opacity:1;stroke-width:0"/><path fill-rule="evenodd" d="M558.67,328H681.13V68H558.67Z" clip-path="url(#clip033ee5x)" data-index="1" style="opacity:.2;stroke:#000;stroke-opacity:0;fill:orange;fill-opacity:1;stroke-width:0"/></g></g><g class="cartesianlayer"><g class="subplot xy"><g class="gridlayer"><g class="x"><path d="M0,68v260" class="xgrid crisp" transform="translate(191.32,0)" style="stroke:#fff;stroke-opacity:1;stroke-width:1px"/><path d="M0,68v260" class="xgrid crisp" transform="translate(313.77,0)" style="stroke:#fff;stroke-opacity:1;stroke-width:1px"/><path d="M0,68v260" class="xgrid crisp" transform="translate(436.23,0)" style="stroke:#fff;stroke-opacity:1;stroke-width:1px"/><path d="M0,68v260" class="xgrid crisp" transform="translate(558.67,0)" style="stroke:#fff;stroke-opacity:1;stroke-width:1px"/><path d="M0,68v260" class="xgrid crisp" transform="translate(681.13,0)" style="stroke:#fff;stroke-opacity:1;stroke-width:1px"/></g><g class="y"><path d="M30,0h690" class="ygrid crisp" transform="translate(0,310.63)" style="stroke:#fff;stroke-opacity:1;stroke-width:1px"/><path d="M30,0h690" class="ygrid crisp" transform="translate(0,265.58000000000004)" style="stroke:#fff;stroke-opacity:1;stroke-width:1px"/><path d="M30,0h690" class="ygrid crisp" transform="translate(0,220.53)" style="stroke:#fff;stroke-opacity:1;stroke-width:1px"/><path d="M30,0h690" class="ygrid crisp" transform="translate(0,175.48000000000002)" style="stroke:#fff;stroke-opacity:1;stroke-width:1px"/><path d="M30,0h690" class="ygrid crisp" transform="translate(0,130.42000000000002)" style="stroke:#fff;stroke-opacity:1;stroke-width:1px"/><path d="M30,0h690" class="ygrid crisp" transform="translate(0,85.38)" style="stroke:#fff;stroke-opacity:1;stroke-width:1px"/></g></g><g class="zerolinelayer"><path d="M0,68v260" class="xzl zl crisp" transform="translate(68.88,0)" style="stroke:#fff;stroke-opacity:1;stroke-width:2px"/></g><path class="xlines-below"/><path class="ylines-below"/><g class="plot" clip-path="url(#clip033ee5xyplot)" transform="translate(30,68)"><g class="scatterlayer mlayer"><g class="trace scatter trace7ff67966-3c5e-47a4-86cc-d3c3c423daeb" style="stroke-miterlimit:2;opacity:1"><g class="lines"><path d="M38.88,242.63L161.32,197.58" class="js-line" style="vector-effect:non-scaling-stroke;fill:none;stroke:#1f77b4;stroke-opacity:1;stroke-width:2px;opacity:1"/><path d="M528.67,62.42L651.13,17.38" class="js-line" style="vector-effect:non-scaling-stroke;fill:none;stroke:#1f77b4;stroke-opacity:1;stroke-width:2px;opacity:1"/></g><g class="points"><path d="M3,0A3,3 0 1,1 0,-3A3,3 0 0,1 3,0Z" class="point" transform="translate(38.88,242.63)" style="opacity:1;stroke-width:0;fill:#1f77b4;fill-opacity:1"/><path d="M3,0A3,3 0 1,1 0,-3A3,3 0 0,1 3,0Z" class="point" transform="translate(161.32,197.58)" style="opacity:1;stroke-width:0;fill:#1f77b4;fill-opacity:1"/><path d="M3,0A3,3 0 1,1 0,-3A3,3 0 0,1 3,0Z" class="point" transform="translate(528.67,62.42)" style="opacity:1;stroke-width:0;fill:#1f77b4;fill-opacity:1"/><path d="M3,0A3,3 0 1,1 0,-3A3,3 0 0,1 3,0Z" class="point" transform="translate(651.13,17.38)" style="opacity:1;stroke-width:0;fill:#1f77b4;fill-opacity:1"/></g></g><g class="trace scatter trace53276bfe-309e-45c2-9ccc-1a1c33421431" style="stroke-miterlimit:2;opacity:1"><g class="points"><path d="M4.55,0L0,4.55L-4.55,0L0,-4.55Z" class="point plotly-customdata" transform="translate(38.88,242.63)" style="opacity:1;stroke-width:1px;fill:#4285f4;fill-opacity:1;stroke:#0b54cd;stroke-opacity:1"/><path d="M4.55,0L0,4.55L-4.55,0L0,-4.55Z" class="point plotly-customdata" transform="translate(528.67,62.42)" style="opacity:1;stroke-width:1px;fill:#4285f4;fill-opacity:1;stroke:#0b54cd;stroke-opacity:1"/></g></g><g class="trace scatter trace8b2ae2d7-4420-4eab-82c9-843518a1207e" style="stroke-miterlimit:2;opacity:1"><g class="points"><path d="M4.55,0L0,4.55L-4.55,0L0,-4.55Z" class="point plotly-customdata" transform="translate(651.13,17.38)" style="opacity:1;stroke-width:1px;fill:#fa0;fill-opacity:1;stroke:#b27600;stroke-opacity:1"/></g></g></g></g><path d="M0,0" class="xlines-above crisp" style="fill:none"/><path d="M0,0" class="ylines-above crisp" style="fill:none"/><g class="xaxislayer-above"><g class="xtick"><text x="0" y="341" text-anchor="middle" transform="translate(68.88,0)" style="font-family:'Open Sans',verdana,arial,sans-serif;font-size:12px;fill:#2a3f5f;fill-opacity:1;white-space:pre;opacity:1">0</text></g><g class="xtick"><text x="0" y="341" text-anchor="middle" transform="translate(191.32,0)" style="font-family:'Open Sans',verdana,arial,sans-serif;font-size:12px;fill:#2a3f5f;fill-opacity:1;white-space:pre;opacity:1">1</text></g><g class="xtick"><text x="0" y="341" text-anchor="middle" transform="translate(313.77,0)" style="font-family:'Open Sans',verdana,arial,sans-serif;font-size:12px;fill:#2a3f5f;fill-opacity:1;white-space:pre;opacity:1">2</text></g><g class="xtick"><text x="0" y="341" text-anchor="middle" transform="translate(436.23,0)" style="font-family:'Open Sans',verdana,arial,sans-serif;font-size:12px;fill:#2a3f5f;fill-opacity:1;white-space:pre;opacity:1">3</text></g><g class="xtick"><text x="0" y="341" text-anchor="middle" transform="translate(558.67,0)" style="font-family:'Open Sans',verdana,arial,sans-serif;font-size:12px;fill:#2a3f5f;fill-opacity:1;white-space:pre;opacity:1">4</text></g><g class="xtick"><text x="0" y="341" text-anchor="middle" transform="translate(681.13,0)" style="font-family:'Open Sans',verdana,arial,sans-serif;font-size:12px;fill:#2a3f5f;fill-opacity:1;white-space:pre;opacity:1">5</text></g></g><g class="yaxislayer-above"><g class="ytick"><text x="29" y="4.2" text-anchor="end" transform="translate(0,310.63)" style="font-family:'Open Sans',verdana,arial,sans-serif;font-size:12px;fill:#2a3f5f;fill-opacity:1;white-space:pre;opacity:1">1</text></g><g class="ytick"><text x="29" y="4.2" text-anchor="end" transform="translate(0,265.58000000000004)" style="font-family:'Open Sans',verdana,arial,sans-serif;font-size:12px;fill:#2a3f5f;fill-opacity:1;white-space:pre;opacity:1">2</text></g><g class="ytick"><text x="29" y="4.2" text-anchor="end" transform="translate(0,220.53)" style="font-family:'Open Sans',verdana,arial,sans-serif;font-size:12px;fill:#2a3f5f;fill-opacity:1;white-space:pre;opacity:1">3</text></g><g class="ytick"><text x="29" y="4.2" text-anchor="end" transform="translate(0,175.48000000000002)" style="font-family:'Open Sans',verdana,arial,sans-serif;font-size:12px;fill:#2a3f5f;fill-opacity:1;white-space:pre;opacity:1">4</text></g><g class="ytick"><text x="29" y="4.2" text-anchor="end" transform="translate(0,130.42000000000002)" style="font-family:'Open Sans',verdana,arial,sans-serif;font-size:12px;fill:#2a3f5f;fill-opacity:1;white-space:pre;opacity:1">5</text></g><g class="ytick"><text x="29" y="4.2" text-anchor="end" transform="translate(0,85.38)" style="font-family:'Open Sans',verdana,arial,sans-serif;font-size:12px;fill:#2a3f5f;fill-opacity:1;white-space:pre;opacity:1">6</text></g></g></g></g><defs id="topdefs-033ee5"><clipPath id="legend033ee5"><rect width="289" height="29" x="0" y="0"/></clipPath></defs><g class="infolayer"><g class="legend" pointer-events="all" transform="translate(431,11.631578947368453)"><rect style="stroke:#444;stroke-opacity:1;fill:#fff;fill-opacity:1;stroke-width:0" width="289" height="29" x="0" y="0" class="bg" shape-rendering="crispEdges"/><g class="scrollbox" clip-path="url(#legend033ee5)"><g class="groups"><g class="traces" transform="translate(0,14.5)" style="opacity:1"><text x="40" y="4.68" class="legendtext" text-anchor="start" style="font-family:'Open Sans',verdana,arial,sans-serif;font-size:12px;fill:#2a3f5f;fill-opacity:1;white-space:pre">a</text><g class="layers" style="opacity:1"><g class="legendlines"><path d="M5,0h30" class="js-line" style="fill:none;stroke:#1f77b4;stroke-opacity:1;stroke-width:2px"/></g><g class="legendsymbols"><g class="legendpoints"><path d="M3,0A3,3 0 1,1 0,-3A3,3 0 0,1 3,0Z" class="scatterpts" transform="translate(20,0)" style="opacity:1;stroke-width:0;fill:#1f77b4;fill-opacity:1"/></g></g></g><rect width="49.719" height="19" x="0" y="-9.5" class="legendtoggle" style="fill:#000;fill-opacity:0"/></g><g class="traces" transform="translate(52.21875,14.5)" style="opacity:1"><text x="40" y="4.68" class="legendtext" text-anchor="start" style="font-family:'Open Sans',verdana,arial,sans-serif;font-size:12px;fill:#2a3f5f;fill-opacity:1;white-space:pre">Start</text><g class="layers" style="opacity:1"><g class="legendsymbols"><g class="legendpoints"><path d="M4.55,0L0,4.55L-4.55,0L0,-4.55Z" class="scatterpts" transform="translate(20,0)" style="opacity:1;stroke-width:1px;fill:#4285f4;fill-opacity:1;stroke:#0b54cd;stroke-opacity:1"/></g></g></g><rect width="72.5" height="19" x="0" y="-9.5" class="legendtoggle" style="fill:#000;fill-opacity:0"/></g><g class="traces" transform="translate(127.21875,14.5)" style="opacity:1"><text x="40" y="4.68" class="legendtext" text-anchor="start" style="font-family:'Open Sans',verdana,arial,sans-serif;font-size:12px;fill:#2a3f5f;fill-opacity:1;white-space:pre">Closed</text><g class="layers" style="opacity:1"><g class="legendsymbols"><g class="legendpoints"><path d="M4.55,0L0,4.55L-4.55,0L0,-4.55Z" class="scatterpts" transform="translate(20,0)" style="opacity:1;stroke-width:1px;fill:#37b13f;fill-opacity:1;stroke:#267b2c;stroke-opacity:1"/></g></g></g><rect width="82.344" height="19" x="0" y="-9.5" class="legendtoggle" style="fill:#000;fill-opacity:0"/></g><g class="traces" transform="translate(212.0625,14.5)" style="opacity:1"><text x="40" y="4.68" class="legendtext" text-anchor="start" style="font-family:'Open Sans',verdana,arial,sans-serif;font-size:12px;fill:#2a3f5f;fill-opacity:1;white-space:pre">Open</text><g class="layers" style="opacity:1"><g class="legendsymbols"><g class="legendpoints"><path d="M4.55,0L0,4.55L-4.55,0L0,-4.55Z" class="scatterpts" transform="translate(20,0)" style="opacity:1;stroke-width:1px;fill:#fa0;fill-opacity:1;stroke:#b27600;stroke-opacity:1"/></g></g></g><rect width="74.172" height="19" x="0" y="-9.5" class="legendtoggle" style="fill:#000;fill-opacity:0"/></g></g></g><rect width="0" height="0" x="0" y="0" class="scrollbar" rx="20" ry="3" style="fill:#808ba4;fill-opacity:1"/></g><g class="g-xtitle"><text x="375" y="368.3" class="xtitle" text-anchor="middle" style="font-family:'Open Sans',verdana,arial,sans-serif;font-size:14px;fill:#2a3f5f;opacity:1;font-weight:400;white-space:pre">Index</text></g><g class="annotation" data-index="0" style="opacity:1"><g class="annotation-text-g"><g class="cursor-pointer" transform="rotate(0,375,56) translate(344,44)"><rect width="62" height="23" x=".5" y=".5" class="bg" style="stroke-width:1px;stroke:#000;stroke-opacity:0;fill:#000;fill-opacity:0"/><text x="31.359" y="18" class="annotation-text" text-anchor="middle" style="font-family:'Open Sans',verdana,arial,sans-serif;font-size:16px;fill:#2a3f5f;fill-opacity:1;white-space:pre">Ranges</text></g></g></g></g></svg>