<svg xmlns="http://www.w3.org/2000/svg" xmlns:xlink="http://www.w3.org/1999/xlink" width="700" height="350" class="main-svg" viewBox="0 0 700 350"><rect width="700" height="350" x="0" y="0" style="fill:#fff;fill-opacity:1"/><defs id="defs-df52b6"><g class="clips"><clipPath id="clipdf52b6xyplot" class="plotclip"><rect width="629" height="261"/></clipPath><clipPath id="clipdf52b6x" class="axesclip"><rect width="629" height="350" x="41" y="0"/></clipPath><clipPath id="clipdf52b6y" class="axesclip"><rect width="700" height="261" x="0" y="46"/></clipPath><clipPath id="clipdf52b6xy" class="axesclip"><rect width="629" height="261" x="41" y="46"/></clipPath></g></defs><g class="bglayer"><rect width="629" height="261" x="41" y="46" class="bg" style="fill:#e5ecf6;fill-opacity:1;stroke-width:0"/></g><g class="layer-below"><g class="shapelayer"><path fill-rule="evenodd" d="M155.91,307H235.62V46H155.91Z" clip-path="url(#clipdf52b6x)" data-index="0" style="opacity:.2;stroke:#000;stroke-opacity:0;fill:teal;fill-opacity:1;stroke-width:0"/><path fill-rule="evenodd" d="M315.33,307H554.46V46H315.33Z" clip-path="url(#clipdf52b6x)" data-index="1" style="opacity:.2;stroke:#000;stroke-opacity:0;fill:teal;fill-opacity:1;stroke-width:0"/><path fill-rule="evenodd" d="M634.17,307H634.17V46H634.17Z" clip-path="url(#clipdf52b6x)" data-index="2" style="opacity:.2;stroke:#000;stroke-opacity:0;fill:orange;fill-opacity:1;stroke-width:0"/></g></g><g class="cartesianlayer"><g class="subplot xy"><g class="gridlayer"><g class="x"><path d="M0,46v261" class="xgrid crisp" transform="translate(76.2,0)" style="stroke:#fff;stroke-opacity:1;stroke-width:1px"/><path d="M0,46v261" class="xgrid crisp" transform="translate(155.91,0)" style="stroke:#fff;stroke-opacity:1;stroke-width:1px"/><path d="M0,46v261" class="xgrid crisp" transform="translate(235.62,0)" style="stroke:#fff;stroke-opacity:1;stroke-width:1px"/><path d="M0,46v261" class="xgrid crisp" transform="translate(315.33,0)" style="stroke:#fff;stroke-opacity:1;stroke-width:1px"/><path d="M0,46v261" class="xgrid crisp" transform="translate(395.04,0)" style="stroke:#fff;stroke-opacity:1;stroke-width:1px"/><path d="M0,46v261" class="xgrid crisp" transform="translate(474.75,0)" style="stroke:#fff;stroke-opacity:1;stroke-width:1px"/><path d="M0,46v261" class="xgrid crisp" transform="translate(554.46,0)" style="stroke:#fff;stroke-opacity:1;stroke-width:1px"/><path d="M0,46v261" class="xgrid crisp" transform="translate(634.17,0)" style="stroke:#fff;stroke-opacity:1;stroke-width:1px"/></g><g class="y"><path d="M41,0h629" class="ygrid crisp" transform="translate(0,289.58000000000004)" style="stroke:#fff;stroke-opacity:1;stroke-width:1px"/><path d="M41,0h629" class="ygrid crisp" transform="translate(0,63.42)" style="stroke:#fff;stroke-opacity:1;stroke-width:1px"/></g></g><path class="xlines-below"/><path class="ylines-below"/><g class="plot" clip-path="url(#clipdf52b6xyplot)" transform="translate(41,46)"><g class="scatterlayer mlayer"><g class="trace scatter traced95f469f-4b36-4689-b80d-d751bcbcb2c7" style="stroke-miterlimit:2;opacity:1"><g class="lines"><path d="M35.2,243.58L114.91,17.42L194.62,243.58L274.33,17.42L354.04,17.42L433.75,17.42L513.46,243.58L593.17,17.42" class="js-line" style="vector-effect:non-scaling-stroke;fill:none;stroke:#1f77b4;stroke-opacity:1;stroke-width:2px;opacity:1"/></g><g class="points"><path d="M3,0A3,3 0 1,1 0,-3A3,3 0 0,1 3,0Z" class="point" transform="translate(35.2,243.58)" style="opacity:1;stroke-width:0;fill:#1f77b4;fill-opacity:1"/><path d="M3,0A3,3 0 1,1 0,-3A3,3 0 0,1 3,0Z" class="point" transform="translate(114.91,17.42)" style="opacity:1;stroke-width:0;fill:#1f77b4;fill-opacity:1"/><path d="M3,0A3,3 0 1,1 0,-3A3,3 0 0,1 3,0Z" class="point" transform="translate(194.62,243.58)" style="opacity:1;stroke-width:0;fill:#1f77b4;fill-opacity:1"/><path d="M3,0A3,3 0 1,1 0,-3A3,3 0 0,1 3,0Z" class="point" transform="translate(274.33,17.42)" style="opacity:1;stroke-width:0;fill:#1f77b4;fill-opacity:1"/><path d="M3,0A3,3 0 1,1 0,-3A3,3 0 0,1 3,0Z" class="point" transform="translate(354.04,17.42)" style="opacity:1;stroke-width:0;fill:#1f77b4;fill-opacity:1"/><path d="M3,0A3,3 0 1,1 0,-3A3,3 0 0,1 3,0Z" class="point" transform="translate(433.75,17.42)" style="opacity:1;stroke-width:0;fill:#1f77b4;fill-opacity:1"/><path d="M3,0A3,3 0 1,1 0,-3A3,3 0 0,1 3,0Z" class="point" transform="translate(513.46,243.58)" style="opacity:1;stroke-width:0;fill:#1f77b4;fill-opacity:1"/><path d="M3,0A3,3 0 1,1 0,-3A3,3 0 0,1 3,0Z" class="point" transform="translate(593.17,17.42)" style="opacity:1;stroke-width:0;fill:#1f77b4;fill-opacity:1"/></g></g><g class="trace scatter trace78454535-36e2-4550-b58b-00175ba5da43" style="stroke-miterlimit:2;opacity:1"><g class="points"><path d="M4.55,0L0,4.55L-4.55,0L0,-4.55Z" class="point plotly-customdata" transform="translate(114.91,17.42)" style="opacity:1;stroke-width:1px;fill:#4285f4;fill-opacity:1;stroke:#0b54cd;stroke-opacity:1"/><path d="M4.55,0L0,4.55L-4.55,0L0,-4.55Z" class="point plotly-customdata" transform="translate(274.33,17.42)" style="opacity:1;stroke-width:1px;fill:#4285f4;fill-opacity:1;stroke:#0b54cd;stroke-opacity:1"/><path d="M4.55,0L0,4.55L-4.55,0L0,-4.55Z" class="point plotly-customdata" transform="translate(593.17,17.42)" style="opacity:1;stroke-width:1px;fill:#4285f4;fill-opacity:1;stroke:#0b54cd;stroke-opacity:1"/></g></g><g class="trace scatter trace20d090a5-ef83-4cee-99d9-aea6769557e1" style="stroke-miterlimit:2;opacity:1"><g class="points"><path d="M4.55,0L0,4.55L-4.55,0L0,-4.55Z" class="point plotly-customdata" transform="translate(194.62,243.58)" style="opacity:1;stroke-width:1px;fill:#37b13f;fill-opacity:1;stroke:#267b2c;stroke-opacity:1"/><path d="M4.55,0L0,4.55L-4.55,0L0,-4.55Z" class="point plotly-customdata" transform="translate(513.46,243.58)" style="opacity:1;stroke-width:1px;fill:#37b13f;fill-opacity:1;stroke:#267b2c;stroke-opacity:1"/></g></g><g class="trace scatter trace53dbb6e7-19af-4150-a284-7142877b6f03" style="stroke-miterlimit:2;opacity:1"><g class="points"><path d="M4.55,0L0,4.55L-4.55,0L0,-4.55Z" class="point plotly-customdata" transform="translate(593.17,17.42)" style="opacity:1;stroke-width:1px;fill:#fa0;fill-opacity:1;stroke:#b27600;stroke-opacity:1"/></g></g></g></g><path d="M0,0" class="xlines-above crisp" style="fill:none"/><path d="M0,0" class="ylines-above crisp" style="fill:none"/><g class="xaxislayer-above"><g class="xtick"><text x="0" y="320" text-anchor="middle" transform="translate(76.2,0)" style="font-family:'Open Sans',verdana,arial,sans-serif;font-size:12px;fill:#2a3f5f;fill-opacity:1;white-space:pre;opacity:1"><tspan x="0" y="320" class="line" dy="0em">Jan 1</tspan><tspan x="0" y="320" class="line" dy="1.3em">2020</tspan></text></g><g class="xtick"><text x="0" y="320" text-anchor="middle" transform="translate(155.91,0)" style="font-family:'Open Sans',verdana,arial,sans-serif;font-size:12px;fill:#2a3f5f;fill-opacity:1;white-space:pre;opacity:1">Jan 2</text></g><g class="xtick"><text x="0" y="320" text-anchor="middle" transform="translate(235.62,0)" style="font-family:'Open Sans',verdana,arial,sans-serif;font-size:12px;fill:#2a3f5f;fill-opacity:1;white-space:pre;opacity:1">Jan 3</text></g><g class="xtick"><text x="0" y="320" text-anchor="middle" transform="translate(315.33,0)" style="font-family:'Open Sans',verdana,arial,sans-serif;font-size:12px;fill:#2a3f5f;fill-opacity:1;white-space:pre;opacity:1">Jan 4</text></g><g class="xtick"><text x="0" y="320" text-anchor="middle" transform="translate(395.04,0)" style="font-family:'Open Sans',verdana,arial,sans-serif;font-size:12px;fill:#2a3f5f;fill-opacity:1;white-space:pre;opacity:1">Jan 5</text></g><g class="xtick"><text x="0" y="320" text-anchor="middle" transform="translate(474.75,0)" style="font-family:'Open Sans',verdana,arial,sans-serif;font-size:12px;fill:#2a3f5f;fill-opacity:1;white-space:pre;opacity:1">Jan 6</text></g><g class="xtick"><text x="0" y="320" text-anchor="middle" transform="translate(554.46,0)" style="font-family:'Open Sans',verdana,arial,sans-serif;font-size:12px;fill:#2a3f5f;fill-opacity:1;white-space:pre;opacity:1">Jan 7</text></g><g class="xtick"><text x="0" y="320" text-anchor="middle" transform="translate(634.17,0)" style="font-family:'Open Sans',verdana,arial,sans-serif;font-size:12px;fill:#2a3f5f;fill-opacity:1;white-space:pre;opacity:1">Jan 8</text></g></g><g class="yaxislayer-above"><g class="ytick"><text x="40" y="4.2" text-anchor="end" transform="translate(0,289.58000000000004)" style="font-family:'Open Sans',verdana,arial,sans-serif;font-size:12px;fill:#2a3f5f;fill-opacity:1;white-space:pre;opacity:1">false</text></g><g class="ytick"><text x="40" y="4.2" text-anchor="end" transform="translate(0,63.42)" style="font-family:'Open Sans',verdana,arial,sans-serif;font-size:12px;fill:#2a3f5f;fill-opacity:1;white-space:pre;opacity:1">true</text></g></g></g></g><defs id="topdefs-df52b6"><clipPath id="legenddf52b6"><rect width="311" height="29" x="0" y="0"/></clipPath></defs><g class="infolayer"><g class="legend" pointer-events="all" transform="translate(359,11.779999999999994)"><rect style="stroke:#444;stroke-opacity:1;fill:#fff;fill-opacity:1;stroke-width:0" width="311" height="29" x="0" y="0" class="bg" shape-rendering="crispEdges"/><g class="scrollbox" clip-path="url(#legenddf52b6)"><g class="groups"><g class="traces" transform="translate(0,14.5)" style="opacity:1"><text x="40" y="4.68" class="legendtext" text-anchor="start" style="font-family:'Open Sans',verdana,arial,sans-serif;font-size:12px;fill:#2a3f5f;fill-opacity:1;white-space:pre">Price</text><g class="layers" style="opacity:1"><g class="legendlines"><path d="M5,0h30" class="js-line" style="fill:none;stroke:#1f77b4;stroke-opacity:1;stroke-width:2px"/></g><g class="legendsymbols"><g class="legendpoints"><path d="M3,0A3,3 0 1,1 0,-3A3,3 0 0,1 3,0Z" class="scatterpts" transform="translate(20,0)" style="opacity:1;stroke-width:0;fill:#1f77b4;fill-opacity:1"/></g></g></g><rect width="71.563" height="19" x="0" y="-9.5" class="legendtoggle" style="fill:#000;fill-opacity:0"/></g><g class="traces" transform="translate(74.0625,14.5)" style="opacity:1"><text x="40" y="4.68" class="legendtext" text-anchor="start" style="font-family:'Open Sans',verdana,arial,sans-serif;font-size:12px;fill:#2a3f5f;fill-opacity:1;white-space:pre">Start</text><g class="layers" style="opacity:1"><g class="legendsymbols"><g class="legendpoints"><path d="M4.55,0L0,4.55L-4.55,0L0,-4.55Z" class="scatterpts" transform="translate(20,0)" style="opacity:1;stroke-width:1px;fill:#4285f4;fill-opacity:1;stroke:#0b54cd;stroke-opacity:1"/></g></g></g><rect width="72.5" height="19" x="0" y="-9.5" class="legendtoggle" style="fill:#000;fill-opacity:0"/></g><g class="traces" transform="translate(149.0625,14.5)" style="opacity:1"><text x="40" y="4.68" class="legendtext" text-anchor="start" style="font-family:'Open Sans',verdana,arial,sans-serif;font-size:12px;fill:#2a3f5f;fill-opacity:1;white-space:pre">Closed</text><g class="layers" style="opacity:1"><g class="legendsymbols"><g class="legendpoints"><path d="M4.55,0L0,4.55L-4.55,0L0,-4.55Z" class="scatterpts" transform="translate(20,0)" style="opacity:1;stroke-width:1px;fill:#37b13f;fill-opacity:1;stroke:#267b2c;stroke-opacity:1"/></g></g></g><rect width="82.344" height="19" x="0" y="-9.5" class="legendtoggle" style="fill:#000;fill-opacity:0"/></g><g class="traces" transform="translate(233.90625,14.5)" style="opacity:1"><text x="40" y="4.68" class="legendtext" text-anchor="start" style="font-family:'Open Sans',verdana,arial,sans-serif;font-size:12px;fill:#2a3f5f;fill-opacity:1;white-space:pre">Open</text><g class="layers" style="opacity:1"><g class="legendsymbols"><g class="legendpoints"><path d="M4.55,0L0,4.55L-4.55,0L0,-4.55Z" class="scatterpts" transform="translate(20,0)" style="opacity:1;stroke-width:1px;fill:#fa0;fill-opacity:1;stroke:#b27600;stroke-opacity:1"/></g></g></g><rect width="74.172" height="19" x="0" y="-9.5" class="legendtoggle" style="fill:#000;fill-opacity:0"/></g></g></g><rect width="0" height="0" x="0" y="0" class="scrollbar" rx="20" ry="3" style="fill:#808ba4;fill-opacity:1"/></g></g></svg>