<svg xmlns="http://www.w3.org/2000/svg" xmlns:xlink="http://www.w3.org/1999/xlink" width="700" height="350" class="main-svg" viewBox="0 0 700 350"><rect width="700" height="350" x="0" y="0" style="fill:#fff;fill-opacity:1"/><defs id="defs-5a5bcb"><g class="clips"><clipPath id="clip5a5bcbxyplot" class="plotclip"><rect width="637" height="274"/></clipPath><clipPath id="clip5a5bcbx" class="axesclip"><rect width="637" height="350" x="33" y="0"/></clipPath><clipPath id="clip5a5bcby" class="axesclip"><rect width="700" height="274" x="0" y="46"/></clipPath><clipPath id="clip5a5bcbxy" class="axesclip"><rect width="637" height="274" x="33" y="46"/></clipPath></g></defs><g class="bglayer"><rect width="637" height="274" x="33" y="46" class="bg" style="fill:#e5ecf6;fill-opacity:1;stroke-width:0"/></g><g class="cartesianlayer"><g class="subplot xy"><g class="gridlayer"><g class="x"><path d="M0,46v274" class="xgrid crisp" transform="translate(68.6,0)" style="stroke:#fff;stroke-opacity:1;stroke-width:1px"/><path d="M0,46v274" class="xgrid crisp" transform="translate(634.4,0)" style="stroke:#fff;stroke-opacity:1;stroke-width:1px"/></g><g class="y"><path d="M33,0h637" class="ygrid crisp" transform="translate(0,302.55)" style="stroke:#fff;stroke-opacity:1;stroke-width:1px"/><path d="M33,0h637" class="ygrid crisp" transform="translate(0,262.7)" style="stroke:#fff;stroke-opacity:1;stroke-width:1px"/><path d="M33,0h637" class="ygrid crisp" transform="translate(0,222.85)" style="stroke:#fff;stroke-opacity:1;stroke-width:1px"/><path d="M33,0h637" class="ygrid crisp" transform="translate(0,183)" style="stroke:#fff;stroke-opacity:1;stroke-width:1px"/><path d="M33,0h637" class="ygrid crisp" transform="translate(0,143.15)" style="stroke:#fff;stroke-opacity:1;stroke-width:1px"/><path d="M33,0h637" class="ygrid crisp" transform="translate(0,103.3)" style="stroke:#fff;stroke-opacity:1;stroke-width:1px"/><path d="M33,0h637" class="ygrid crisp" transform="translate(0,63.45)" style="stroke:#fff;stroke-opacity:1;stroke-width:1px"/></g></g><path class="xlines-below"/><path class="ylines-below"/><g class="plot" clip-path="url('#clip5a5bcbxyplot')" transform="translate(33, 46)"><g class="scatterlayer mlayer"><g class="trace scatter trace129b6883-b065-4dd6-babc-3fb075b8f0a8" style="stroke-miterlimit:2;opacity:1"><g class="lines"><path d="M35.6,256.55L601.4,97.15" class="js-line" style="vector-effect:non-scaling-stroke;fill:none;stroke:#1f77b4;stroke-opacity:1;stroke-width:2px;opacity:1"/></g><g class="points"><path d="M3,0A3,3 0 1,1 0,-3A3,3 0 0,1 3,0Z" class="point" transform="translate(35.6,256.55)" style="opacity:1;stroke-width:0;fill:#1f77b4;fill-opacity:1"/><path d="M3,0A3,3 0 1,1 0,-3A3,3 0 0,1 3,0Z" class="point" transform="translate(601.4,97.15)" style="opacity:1;stroke-width:0;fill:#1f77b4;fill-opacity:1"/></g></g><g class="trace scatter trace051521fe-acf4-481f-b4bc-f72428231b94" style="stroke-miterlimit:2;opacity:1"><g class="lines"><path d="M35.6,176.85L601.4,17.45" class="js-line" style="vector-effect:non-scaling-stroke;fill:none;stroke:#ff7f0e;stroke-opacity:1;stroke-width:2px;opacity:1"/></g><g class="points"><path d="M3,0A3,3 0 1,1 0,-3A3,3 0 0,1 3,0Z" class="point" transform="translate(35.6,176.85)" style="opacity:1;stroke-width:0;fill:#ff7f0e;fill-opacity:1"/><path d="M3,0A3,3 0 1,1 0,-3A3,3 0 0,1 3,0Z" class="point" transform="translate(601.4,17.45)" style="opacity:1;stroke-width:0;fill:#ff7f0e;fill-opacity:1"/></g></g></g></g><path d="M0,0" class="xlines-above crisp" style="fill:none"/><path d="M0,0" class="ylines-above crisp" style="fill:none"/><g class="xaxislayer-above"><g class="xtick"><text x="0" y="333" text-anchor="middle" transform="translate(68.6,0)" style="font-family:'Open Sans',verdana,arial,sans-serif;font-size:12px;fill:#2a3f5f;fill-opacity:1;white-space:pre">x</text></g><g class="xtick"><text x="0" y="333" text-anchor="middle" transform="translate(634.4,0)" style="font-family:'Open Sans',verdana,arial,sans-serif;font-size:12px;fill:#2a3f5f;fill-opacity:1;white-space:pre">y</text></g></g><g class="yaxislayer-above"><g class="ytick"><text x="32" y="4.2" text-anchor="end" transform="translate(0,302.55)" style="font-family:'Open Sans',verdana,arial,sans-serif;font-size:12px;fill:#2a3f5f;fill-opacity:1;white-space:pre">1</text></g><g class="ytick"><text x="32" y="4.2" text-anchor="end" transform="translate(0,262.7)" style="font-family:'Open Sans',verdana,arial,sans-serif;font-size:12px;fill:#2a3f5f;fill-opacity:1;white-space:pre">1.5</text></g><g class="ytick"><text x="32" y="4.2" text-anchor="end" transform="translate(0,222.85)" style="font-family:'Open Sans',verdana,arial,sans-serif;font-size:12px;fill:#2a3f5f;fill-opacity:1;white-space:pre">2</text></g><g class="ytick"><text x="32" y="4.2" text-anchor="end" transform="translate(0,183)" style="font-family:'Open Sans',verdana,arial,sans-serif;font-size:12px;fill:#2a3f5f;fill-opacity:1;white-space:pre">2.5</text></g><g class="ytick"><text x="32" y="4.2" text-anchor="end" transform="translate(0,143.15)" style="font-family:'Open Sans',verdana,arial,sans-serif;font-size:12px;fill:#2a3f5f;fill-opacity:1;white-space:pre">3</text></g><g class="ytick"><text x="32" y="4.2" text-anchor="end" transform="translate(0,103.3)" style="font-family:'Open Sans',verdana,arial,sans-serif;font-size:12px;fill:#2a3f5f;fill-opacity:1;white-space:pre">3.5</text></g><g class="ytick"><text x="32" y="4.2" text-anchor="end" transform="translate(0,63.45)" style="font-family:'Open Sans',verdana,arial,sans-serif;font-size:12px;fill:#2a3f5f;fill-opacity:1;white-space:pre">4</text></g></g></g></g><defs id="topdefs-5a5bcb"><clipPath id="legend5a5bcb"><rect width="105" height="29" x="0" y="0"/></clipPath></defs><g class="infolayer"><g class="legend" pointer-events="all" transform="translate(565, 11.519999999999996)"><rect width="105" height="29" x="0" y="0" class="bg" shape-rendering="crispEdges" style="stroke:#444;stroke-opacity:1;fill:#fff;fill-opacity:1;stroke-width:0"/><g class="scrollbox" clip-path="url('#legend5a5bcb')" transform="translate(0, 0)"><g class="groups"><g class="traces" transform="translate(0, 14.5)" style="opacity:1"><text x="40" y="4.68" class="legendtext" text-anchor="start" style="font-family:'Open Sans',verdana,arial,sans-serif;font-size:12px;fill:#2a3f5f;fill-opacity:1;white-space:pre">a</text><g class="layers" style="opacity:1"><g class="legendlines"><path d="M5,0h30" class="js-line" style="fill:none;stroke:#1f77b4;stroke-opacity:1;stroke-width:2px"/></g><g class="legendsymbols"><g class="legendpoints"><path d="M3,0A3,3 0 1,1 0,-3A3,3 0 0,1 3,0Z" class="scatterpts" transform="translate(20,0)" style="opacity:1;stroke-width:0;fill:#1f77b4;fill-opacity:1"/></g></g></g><rect width="49.719" height="19" x="0" y="-9.5" class="legendtoggle" style="fill:#000;fill-opacity:0"/></g><g class="traces" transform="translate(52.21875, 14.5)" style="opacity:1"><text x="40" y="4.68" class="legendtext" text-anchor="start" style="font-family:'Open Sans',verdana,arial,sans-serif;font-size:12px;fill:#2a3f5f;fill-opacity:1;white-space:pre">b</text><g class="layers" style="opacity:1"><g class="legendlines"><path d="M5,0h30" class="js-line" style="fill:none;stroke:#ff7f0e;stroke-opacity:1;stroke-width:2px"/></g><g class="legendsymbols"><g class="legendpoints"><path d="M3,0A3,3 0 1,1 0,-3A3,3 0 0,1 3,0Z" class="scatterpts" transform="translate(20,0)" style="opacity:1;stroke-width:0;fill:#ff7f0e;fill-opacity:1"/></g></g></g><rect width="49.984" height="19" x="0" y="-9.5" class="legendtoggle" style="fill:#000;fill-opacity:0"/></g></g></g><rect width="0" height="0" x="0" y="0" class="scrollbar" rx="20" ry="3" style="fill:#808ba4;fill-opacity:1"/></g></g></svg>