<svg xmlns="http://www.w3.org/2000/svg" xmlns:xlink="http://www.w3.org/1999/xlink" width="700" height="350" class="main-svg" viewBox="0 0 700 350"><rect width="700" height="350" x="0" y="0" style="fill:#fff;fill-opacity:1"/><defs id="defs-876ee5"><g class="clips"><clipPath id="clip876ee5xyplot" class="plotclip"><rect width="604" height="261"/></clipPath><clipPath id="clip876ee5x" class="axesclip"><rect width="604" height="350" x="48" y="0"/></clipPath><clipPath id="clip876ee5y" class="axesclip"><rect width="700" height="261" x="0" y="46"/></clipPath><clipPath id="clip876ee5xy" class="axesclip"><rect width="604" height="261" x="48" y="46"/></clipPath></g></defs><g class="bglayer"><rect width="604" height="261" x="48" y="46" class="bg" style="fill:#e5ecf6;fill-opacity:1;stroke-width:0"/></g><g class="cartesianlayer"><g class="subplot xy"><g class="gridlayer"><g class="x"><path d="M0,46v261" class="xgrid crisp" transform="translate(123.5,0)" style="stroke:#fff;stroke-opacity:1;stroke-width:1px"/><path d="M0,46v261" class="xgrid crisp" transform="translate(199,0)" style="stroke:#fff;stroke-opacity:1;stroke-width:1px"/><path d="M0,46v261" class="xgrid crisp" transform="translate(274.5,0)" style="stroke:#fff;stroke-opacity:1;stroke-width:1px"/><path d="M0,46v261" class="xgrid crisp" transform="translate(350,0)" style="stroke:#fff;stroke-opacity:1;stroke-width:1px"/><path d="M0,46v261" class="xgrid crisp" transform="translate(425.5,0)" style="stroke:#fff;stroke-opacity:1;stroke-width:1px"/><path d="M0,46v261" class="xgrid crisp" transform="translate(501,0)" style="stroke:#fff;stroke-opacity:1;stroke-width:1px"/><path d="M0,46v261" class="xgrid crisp" transform="translate(576.5,0)" style="stroke:#fff;stroke-opacity:1;stroke-width:1px"/></g><g class="y"><path d="M48,0h604" class="ygrid crisp" transform="translate(0,293.95)" style="stroke:#fff;stroke-opacity:1;stroke-width:1px"/><path d="M48,0h604" class="ygrid crisp" transform="translate(0,59.05)" style="stroke:#fff;stroke-opacity:1;stroke-width:1px"/></g></g><path class="xlines-below"/><path class="ylines-below"/><g class="plot" clip-path="url('#clip876ee5xyplot')" transform="translate(48, 46)"><g class="scatterlayer mlayer"><g class="trace scatter trace7d06a238-99e5-4a05-a4ca-5ec65130b3be" style="stroke-miterlimit:2;opacity:1"><g class="lines"><path d="M0,247.95L151,13.05L302,13.05L604,13.05" class="js-line" style="vector-effect:non-scaling-stroke;fill:none;stroke:#1f77b4;stroke-opacity:1;stroke-width:2px;opacity:1"/></g></g><g class="trace scatter trace9a2160b3-3538-4bb3-b7be-5ab518bea921" style="stroke-miterlimit:2;opacity:1"><g class="lines"><path d="M0,247.95L302,247.95L453,13.05L604,13.05" class="js-line" style="vector-effect:non-scaling-stroke;fill:none;stroke:#ff7f0e;stroke-opacity:1;stroke-width:2px;opacity:1"/></g></g></g></g><path d="M0,0" class="xlines-above crisp" style="fill:none"/><path d="M0,0" class="ylines-above crisp" style="fill:none"/><g class="xaxislayer-above"><g class="xtick"><text x="0" y="320" text-anchor="middle" transform="translate(48,0)" style="font-family:'Open Sans',verdana,arial,sans-serif;font-size:12px;fill:#2a3f5f;fill-opacity:1;white-space:pre"><tspan x="0" y="320" class="line" dy="0em">00:00</tspan><tspan x="0" y="320" class="line" dy="1.3em">Jan 1, 2020</tspan></text></g><g class="xtick"><text x="0" y="320" text-anchor="middle" transform="translate(123.5,0)" style="font-family:'Open Sans',verdana,arial,sans-serif;font-size:12px;fill:#2a3f5f;fill-opacity:1;white-space:pre">12:00</text></g><g class="xtick"><text x="0" y="320" text-anchor="middle" transform="translate(199,0)" style="font-family:'Open Sans',verdana,arial,sans-serif;font-size:12px;fill:#2a3f5f;fill-opacity:1;white-space:pre"><tspan x="0" y="320" class="line" dy="0em">00:00</tspan><tspan x="0" y="320" class="line" dy="1.3em">Jan 2, 2020</tspan></text></g><g class="xtick"><text x="0" y="320" text-anchor="middle" transform="translate(274.5,0)" style="font-family:'Open Sans',verdana,arial,sans-serif;font-size:12px;fill:#2a3f5f;fill-opacity:1;white-space:pre">12:00</text></g><g class="xtick"><text x="0" y="320" text-anchor="middle" transform="translate(350,0)" style="font-family:'Open Sans',verdana,arial,sans-serif;font-size:12px;fill:#2a3f5f;fill-opacity:1;white-space:pre"><tspan x="0" y="320" class="line" dy="0em">00:00</tspan><tspan x="0" y="320" class="line" dy="1.3em">Jan 3, 2020</tspan></text></g><g class="xtick"><text x="0" y="320" text-anchor="middle" transform="translate(425.5,0)" style="font-family:'Open Sans',verdana,arial,sans-serif;font-size:12px;fill:#2a3f5f;fill-opacity:1;white-space:pre">12:00</text></g><g class="xtick"><text x="0" y="320" text-anchor="middle" transform="translate(501,0)" style="font-family:'Open Sans',verdana,arial,sans-serif;font-size:12px;fill:#2a3f5f;fill-opacity:1;white-space:pre"><tspan x="0" y="320" class="line" dy="0em">00:00</tspan><tspan x="0" y="320" class="line" dy="1.3em">Jan 4, 2020</tspan></text></g><g class="xtick"><text x="0" y="320" text-anchor="middle" transform="translate(576.5,0)" style="font-family:'Open Sans',verdana,arial,sans-serif;font-size:12px;fill:#2a3f5f;fill-opacity:1;white-space:pre">12:00</text></g><g class="xtick"><text x="0" y="320" text-anchor="middle" transform="translate(652,0)" style="font-family:'Open Sans',verdana,arial,sans-serif;font-size:12px;fill:#2a3f5f;fill-opacity:1;white-space:pre"><tspan x="0" y="320" class="line" dy="0em">00:00</tspan><tspan x="0" y="320" class="line" dy="1.3em">Jan 5, 2020</tspan></text></g></g><g class="yaxislayer-above"><g class="ytick"><text x="47" y="4.2" text-anchor="end" transform="translate(0,293.95)" style="font-family:'Open Sans',verdana,arial,sans-serif;font-size:12px;fill:#2a3f5f;fill-opacity:1;white-space:pre">false</text></g><g class="ytick"><text x="47" y="4.2" text-anchor="end" transform="translate(0,59.05)" style="font-family:'Open Sans',verdana,arial,sans-serif;font-size:12px;fill:#2a3f5f;fill-opacity:1;white-space:pre">true</text></g></g></g></g><defs id="topdefs-876ee5"><clipPath id="legend876ee5"><rect width="104" height="29" x="0" y="0"/></clipPath></defs><g class="infolayer"><g class="legend" pointer-events="all" transform="translate(548, 11.779999999999994)"><rect width="104" height="29" x="0" y="0" class="bg" shape-rendering="crispEdges" style="stroke:#444;stroke-opacity:1;fill:#fff;fill-opacity:1;stroke-width:0"/><g class="scrollbox" clip-path="url('#legend876ee5')" transform="translate(0, 0)"><g class="groups"><g class="traces" transform="translate(0, 14.5)" style="opacity:1"><text x="40" y="4.68" class="legendtext" text-anchor="start" style="font-family:'Open Sans',verdana,arial,sans-serif;font-size:12px;fill:#2a3f5f;fill-opacity:1;white-space:pre">a</text><g class="layers" style="opacity:1"><g class="legendlines"><path d="M5,0h30" class="js-line" style="fill:none;stroke:#1f77b4;stroke-opacity:1;stroke-width:2px"/></g></g><rect width="49.719" height="19" x="0" y="-9.5" class="legendtoggle" style="fill:#000;fill-opacity:0"/></g><g class="traces" transform="translate(52.21875, 14.5)" style="opacity:1"><text x="40" y="4.68" class="legendtext" text-anchor="start" style="font-family:'Open Sans',verdana,arial,sans-serif;font-size:12px;fill:#2a3f5f;fill-opacity:1;white-space:pre">c</text><g class="layers" style="opacity:1"><g class="legendlines"><path d="M5,0h30" class="js-line" style="fill:none;stroke:#ff7f0e;stroke-opacity:1;stroke-width:2px"/></g></g><rect width="48.766" height="19" x="0" y="-9.5" class="legendtoggle" style="fill:#000;fill-opacity:0"/></g></g></g><rect width="0" height="0" x="0" y="0" class="scrollbar" rx="20" ry="3" style="fill:#808ba4;fill-opacity:1"/></g></g></svg>