<svg xmlns="http://www.w3.org/2000/svg" xmlns:xlink="http://www.w3.org/1999/xlink" width="700" height="350" class="main-svg" viewBox="0 0 700 350"><rect width="700" height="350" x="0" y="0" style="fill:#fff;fill-opacity:1"/><defs id="defs-c3615f"><g class="clips"><clipPath id="clipc3615fxyplot" class="plotclip"><rect width="634" height="274"/></clipPath><clipPath id="clipc3615fx" class="axesclip"><rect width="634" height="350" x="36" y="0"/></clipPath><clipPath id="clipc3615fy" class="axesclip"><rect width="700" height="274" x="0" y="46"/></clipPath><clipPath id="clipc3615fxy" class="axesclip"><rect width="634" height="274" x="36" y="46"/></clipPath></g></defs><g class="bglayer"><rect width="634" height="274" x="36" y="46" class="bg" style="fill:#e5ecf6;fill-opacity:1;stroke-width:0"/></g><g class="cartesianlayer"><g class="subplot xy"><g class="gridlayer"><g class="x"><path d="M0,46v274" class="xgrid crisp" transform="translate(212.22,0)" style="stroke:#fff;stroke-opacity:1;stroke-width:1px"/><path d="M0,46v274" class="xgrid crisp" transform="translate(353,0)" style="stroke:#fff;stroke-opacity:1;stroke-width:1px"/><path d="M0,46v274" class="xgrid crisp" transform="translate(493.77,0)" style="stroke:#fff;stroke-opacity:1;stroke-width:1px"/><path d="M0,46v274" class="xgrid crisp" transform="translate(634.55,0)" style="stroke:#fff;stroke-opacity:1;stroke-width:1px"/></g><g class="y"><path d="M36,0h634" class="ygrid crisp" transform="translate(0,258.28999999999996)" style="stroke:#fff;stroke-opacity:1;stroke-width:1px"/><path d="M36,0h634" class="ygrid crisp" transform="translate(0,206.08)" style="stroke:#fff;stroke-opacity:1;stroke-width:1px"/><path d="M36,0h634" class="ygrid crisp" transform="translate(0,153.87)" style="stroke:#fff;stroke-opacity:1;stroke-width:1px"/><path d="M36,0h634" class="ygrid crisp" transform="translate(0,101.66)" style="stroke:#fff;stroke-opacity:1;stroke-width:1px"/><path d="M36,0h634" class="ygrid crisp" transform="translate(0,49.45)" style="stroke:#fff;stroke-opacity:1;stroke-width:1px"/></g></g><g class="zerolinelayer"><path d="M0,46v274" class="xzl zl crisp" transform="translate(71.45,0)" style="stroke:#fff;stroke-opacity:1;stroke-width:2px"/><path d="M36,0h634" class="yzl zl crisp" transform="translate(0,310.49)" style="stroke:#fff;stroke-opacity:1;stroke-width:2px"/></g><path class="xlines-below"/><path class="ylines-below"/><g class="plot" clip-path="url('#clipc3615fxyplot')" transform="translate(36, 46)"><g class="scatterlayer mlayer"><g class="trace scatter trace9633944e-994b-4282-b8d2-299805024343" style="stroke-miterlimit:2;opacity:1"><g class="lines"><path d="M35.45,177.48L176.22,137.33L317,213.47L457.77,17.45L598.55,155.06" class="js-line" style="vector-effect:non-scaling-stroke;fill:none;stroke:#1f77b4;stroke-opacity:1;stroke-width:2px;opacity:1"/></g><g class="points"><path d="M3,0A3,3 0 1,1 0,-3A3,3 0 0,1 3,0Z" class="point" transform="translate(35.45,177.48)" style="opacity:1;stroke-width:0;fill:#1f77b4;fill-opacity:1"/><path d="M3,0A3,3 0 1,1 0,-3A3,3 0 0,1 3,0Z" class="point" transform="translate(176.22,137.33)" style="opacity:1;stroke-width:0;fill:#1f77b4;fill-opacity:1"/><path d="M3,0A3,3 0 1,1 0,-3A3,3 0 0,1 3,0Z" class="point" transform="translate(317,213.47)" style="opacity:1;stroke-width:0;fill:#1f77b4;fill-opacity:1"/><path d="M3,0A3,3 0 1,1 0,-3A3,3 0 0,1 3,0Z" class="point" transform="translate(457.77,17.45)" style="opacity:1;stroke-width:0;fill:#1f77b4;fill-opacity:1"/><path d="M3,0A3,3 0 1,1 0,-3A3,3 0 0,1 3,0Z" class="point" transform="translate(598.55,155.06)" style="opacity:1;stroke-width:0;fill:#1f77b4;fill-opacity:1"/></g></g><g class="trace scatter trace7a411bf3-5ff6-438e-b05a-1f65bff1d839" style="stroke-miterlimit:2;opacity:1"><g class="lines"><path d="M35.45,177.48L176.22,242.6L317,205.54L457.77,256.55L598.55,163.57" class="js-line" style="vector-effect:non-scaling-stroke;fill:none;stroke:#ff7f0e;stroke-opacity:1;stroke-width:2px;opacity:1"/></g><g class="points"><path d="M3,0A3,3 0 1,1 0,-3A3,3 0 0,1 3,0Z" class="point" transform="translate(35.45,177.48)" style="opacity:1;stroke-width:0;fill:#ff7f0e;fill-opacity:1"/><path d="M3,0A3,3 0 1,1 0,-3A3,3 0 0,1 3,0Z" class="point" transform="translate(176.22,242.6)" style="opacity:1;stroke-width:0;fill:#ff7f0e;fill-opacity:1"/><path d="M3,0A3,3 0 1,1 0,-3A3,3 0 0,1 3,0Z" class="point" transform="translate(317,205.54)" style="opacity:1;stroke-width:0;fill:#ff7f0e;fill-opacity:1"/><path d="M3,0A3,3 0 1,1 0,-3A3,3 0 0,1 3,0Z" class="point" transform="translate(457.77,256.55)" style="opacity:1;stroke-width:0;fill:#ff7f0e;fill-opacity:1"/><path d="M3,0A3,3 0 1,1 0,-3A3,3 0 0,1 3,0Z" class="point" transform="translate(598.55,163.57)" style="opacity:1;stroke-width:0;fill:#ff7f0e;fill-opacity:1"/></g></g><g class="trace scatter tracefcf4e36c-dada-458b-9a94-d979e2359ae7" style="stroke-miterlimit:2;opacity:1"><g class="lines"><path d="M35.45,185.82L176.22,239.57L317,205.54L457.77,175.01L598.55,155.06" class="js-line" style="vector-effect:non-scaling-stroke;fill:none;stroke:#2ca02c;stroke-opacity:1;stroke-width:2px;opacity:1"/></g><g class="points"><path d="M3,0A3,3 0 1,1 0,-3A3,3 0 0,1 3,0Z" class="point" transform="translate(35.45,185.82)" style="opacity:1;stroke-width:0;fill:#2ca02c;fill-opacity:1"/><path d="M3,0A3,3 0 1,1 0,-3A3,3 0 0,1 3,0Z" class="point" transform="translate(176.22,239.57)" style="opacity:1;stroke-width:0;fill:#2ca02c;fill-opacity:1"/><path d="M3,0A3,3 0 1,1 0,-3A3,3 0 0,1 3,0Z" class="point" transform="translate(317,205.54)" style="opacity:1;stroke-width:0;fill:#2ca02c;fill-opacity:1"/><path d="M3,0A3,3 0 1,1 0,-3A3,3 0 0,1 3,0Z" class="point" transform="translate(457.77,175.01)" style="opacity:1;stroke-width:0;fill:#2ca02c;fill-opacity:1"/><path d="M3,0A3,3 0 1,1 0,-3A3,3 0 0,1 3,0Z" class="point" transform="translate(598.55,155.06)" style="opacity:1;stroke-width:0;fill:#2ca02c;fill-opacity:1"/></g></g></g></g><path d="M0,0" class="xlines-above crisp" style="fill:none"/><path d="M0,0" class="ylines-above crisp" style="fill:none"/><g class="xaxislayer-above"><g class="xtick"><text x="0" y="333" text-anchor="middle" transform="translate(71.45,0)" style="font-family:'Open Sans',verdana,arial,sans-serif;font-size:12px;fill:#2a3f5f;fill-opacity:1;white-space:pre">0</text></g><g class="xtick"><text x="0" y="333" text-anchor="middle" transform="translate(212.22,0)" style="font-family:'Open Sans',verdana,arial,sans-serif;font-size:12px;fill:#2a3f5f;fill-opacity:1;white-space:pre">1</text></g><g class="xtick"><text x="0" y="333" text-anchor="middle" transform="translate(353,0)" style="font-family:'Open Sans',verdana,arial,sans-serif;font-size:12px;fill:#2a3f5f;fill-opacity:1;white-space:pre">2</text></g><g class="xtick"><text x="0" y="333" text-anchor="middle" transform="translate(493.77,0)" style="font-family:'Open Sans',verdana,arial,sans-serif;font-size:12px;fill:#2a3f5f;fill-opacity:1;white-space:pre">3</text></g><g class="xtick"><text x="0" y="333" text-anchor="middle" transform="translate(634.55,0)" style="font-family:'Open Sans',verdana,arial,sans-serif;font-size:12px;fill:#2a3f5f;fill-opacity:1;white-space:pre">4</text></g></g><g class="yaxislayer-above"><g class="ytick"><text x="35" y="4.2" text-anchor="end" transform="translate(0,310.49)" style="font-family:'Open Sans',verdana,arial,sans-serif;font-size:12px;fill:#2a3f5f;fill-opacity:1;white-space:pre">0</text></g><g class="ytick"><text x="35" y="4.2" text-anchor="end" transform="translate(0,258.28999999999996)" style="font-family:'Open Sans',verdana,arial,sans-serif;font-size:12px;fill:#2a3f5f;fill-opacity:1;white-space:pre">20</text></g><g class="ytick"><text x="35" y="4.2" text-anchor="end" transform="translate(0,206.08)" style="font-family:'Open Sans',verdana,arial,sans-serif;font-size:12px;fill:#2a3f5f;fill-opacity:1;white-space:pre">40</text></g><g class="ytick"><text x="35" y="4.2" text-anchor="end" transform="translate(0,153.87)" style="font-family:'Open Sans',verdana,arial,sans-serif;font-size:12px;fill:#2a3f5f;fill-opacity:1;white-space:pre">60</text></g><g class="ytick"><text x="35" y="4.2" text-anchor="end" transform="translate(0,101.66)" style="font-family:'Open Sans',verdana,arial,sans-serif;font-size:12px;fill:#2a3f5f;fill-opacity:1;white-space:pre">80</text></g><g class="ytick"><text x="35" y="4.2" text-anchor="end" transform="translate(0,49.45)" style="font-family:'Open Sans',verdana,arial,sans-serif;font-size:12px;fill:#2a3f5f;fill-opacity:1;white-space:pre">100</text></g></g></g></g><defs id="topdefs-c3615f"><clipPath id="legendc3615f"><rect width="158" height="29" x="0" y="0"/></clipPath></defs><g class="infolayer"><g class="legend" pointer-events="all" transform="translate(512, 11.519999999999996)"><rect style="stroke:#444;stroke-opacity:1;fill:#fff;fill-opacity:1;stroke-width:0" width="158" height="29" x="0" y="0" class="bg" shape-rendering="crispEdges"/><g class="scrollbox" clip-path="url('#legendc3615f')" transform="translate(0, 0)"><g class="groups"><g class="traces" transform="translate(0, 14.5)" style="opacity:1"><text x="40" y="4.68" class="legendtext" text-anchor="start" style="font-family:'Open Sans',verdana,arial,sans-serif;font-size:12px;fill:#2a3f5f;fill-opacity:1;white-space:pre">0</text><g class="layers" style="opacity:1"><g class="legendlines"><path d="M5,0h30" class="js-line" style="fill:none;stroke:#1f77b4;stroke-opacity:1;stroke-width:2px"/></g><g class="legendsymbols"><g class="legendpoints"><path d="M3,0A3,3 0 1,1 0,-3A3,3 0 0,1 3,0Z" class="scatterpts" transform="translate(20,0)" style="opacity:1;stroke-width:0;fill:#1f77b4;fill-opacity:1"/></g></g></g><rect width="50.141" height="19" x="0" y="-9.5" class="legendtoggle" style="fill:#000;fill-opacity:0"/></g><g class="traces" transform="translate(52.640625, 14.5)" style="opacity:1"><text x="40" y="4.68" class="legendtext" text-anchor="start" style="font-family:'Open Sans',verdana,arial,sans-serif;font-size:12px;fill:#2a3f5f;fill-opacity:1;white-space:pre">1</text><g class="layers" style="opacity:1"><g class="legendlines"><path d="M5,0h30" class="js-line" style="fill:none;stroke:#ff7f0e;stroke-opacity:1;stroke-width:2px"/></g><g class="legendsymbols"><g class="legendpoints"><path d="M3,0A3,3 0 1,1 0,-3A3,3 0 0,1 3,0Z" class="scatterpts" transform="translate(20,0)" style="opacity:1;stroke-width:0;fill:#ff7f0e;fill-opacity:1"/></g></g></g><rect width="50.141" height="19" x="0" y="-9.5" class="legendtoggle" style="fill:#000;fill-opacity:0"/></g><g class="traces" transform="translate(105.28125, 14.5)" style="opacity:1"><text x="40" y="4.68" class="legendtext" text-anchor="start" style="font-family:'Open Sans',verdana,arial,sans-serif;font-size:12px;fill:#2a3f5f;fill-opacity:1;white-space:pre">2</text><g class="layers" style="opacity:1"><g class="legendlines"><path d="M5,0h30" class="js-line" style="fill:none;stroke:#2ca02c;stroke-opacity:1;stroke-width:2px"/></g><g class="legendsymbols"><g class="legendpoints"><path d="M3,0A3,3 0 1,1 0,-3A3,3 0 0,1 3,0Z" class="scatterpts" transform="translate(20,0)" style="opacity:1;stroke-width:0;fill:#2ca02c;fill-opacity:1"/></g></g></g><rect width="50.141" height="19" x="0" y="-9.5" class="legendtoggle" style="fill:#000;fill-opacity:0"/></g></g></g><rect width="0" height="0" x="0" y="0" class="scrollbar" rx="20" ry="3" style="fill:#808ba4;fill-opacity:1"/></g></g></svg>