<svg xmlns="http://www.w3.org/2000/svg" xmlns:xlink="http://www.w3.org/1999/xlink" width="700" height="350" class="main-svg" viewBox="0 0 700 350"><rect width="700" height="350" x="0" y="0" style="fill:#fff;fill-opacity:1"/><defs id="defs-b1f952"><g class="clips"><clipPath id="clipb1f952xyplot" class="plotclip"><rect width="599" height="261"/></clipPath><clipPath id="clipb1f952x" class="axesclip"><rect width="599" height="350" x="71" y="0"/></clipPath><clipPath id="clipb1f952y" class="axesclip"><rect width="700" height="261" x="0" y="46"/></clipPath><clipPath id="clipb1f952xy" class="axesclip"><rect width="599" height="261" x="71" y="46"/></clipPath></g></defs><g class="bglayer"><rect width="599" height="261" x="71" y="46" class="bg" style="fill:#e5ecf6;fill-opacity:1;stroke-width:0"/></g><g class="cartesianlayer"><g class="subplot xy"><g class="gridlayer"><g class="x"><path d="M0,46v261" class="xgrid crisp" transform="translate(107.2,0)" style="stroke:#fff;stroke-opacity:1;stroke-width:1px"/><path d="M0,46v261" class="xgrid crisp" transform="translate(212.65,0)" style="stroke:#fff;stroke-opacity:1;stroke-width:1px"/><path d="M0,46v261" class="xgrid crisp" transform="translate(318.09000000000003,0)" style="stroke:#fff;stroke-opacity:1;stroke-width:1px"/><path d="M0,46v261" class="xgrid crisp" transform="translate(423.53,0)" style="stroke:#fff;stroke-opacity:1;stroke-width:1px"/><path d="M0,46v261" class="xgrid crisp" transform="translate(528.98,0)" style="stroke:#fff;stroke-opacity:1;stroke-width:1px"/><path d="M0,46v261" class="xgrid crisp" transform="translate(634.42,0)" style="stroke:#fff;stroke-opacity:1;stroke-width:1px"/></g><g class="y"><path d="M71,0h599" class="ygrid crisp" transform="translate(0,268.28)" style="stroke:#fff;stroke-opacity:1;stroke-width:1px"/><path d="M71,0h599" class="ygrid crisp" transform="translate(0,188.09)" style="stroke:#fff;stroke-opacity:1;stroke-width:1px"/><path d="M71,0h599" class="ygrid crisp" transform="translate(0,147.99)" style="stroke:#fff;stroke-opacity:1;stroke-width:1px"/><path d="M71,0h599" class="ygrid crisp" transform="translate(0,107.9)" style="stroke:#fff;stroke-opacity:1;stroke-width:1px"/><path d="M71,0h599" class="ygrid crisp" transform="translate(0,67.8)" style="stroke:#fff;stroke-opacity:1;stroke-width:1px"/></g></g><g class="zerolinelayer"><path d="M71,0h599" class="yzl zl crisp" transform="translate(0,228.18)" style="stroke:#fff;stroke-opacity:1;stroke-width:2px"/></g><path class="xlines-below"/><path class="ylines-below"/><g class="plot" clip-path="url(#clipb1f952xyplot)" transform="translate(71,46)"><g class="scatterlayer mlayer"><g class="trace scatter traced06dba6b-a6f0-4d02-bd0c-cfd3b4f2ad48" style="stroke-miterlimit:2;opacity:1"><g class="points"><path d="M5,0A5,5 0 1,1 0,-5A5,5 0 0,1 5,0Z" class="point plotly-customdata" transform="translate(36.2,101.99)" style="opacity:.814286;stroke-width:1px;fill:#37b13f;fill-opacity:1;stroke:#267b2c;stroke-opacity:1"/><path d="M7,0A7,7 0 1,1 0,-7A7,7 0 0,1 7,0Z" class="point plotly-customdata" transform="translate(141.65,21.8)" style="opacity:.9;stroke-width:1px;fill:#37b13f;fill-opacity:1;stroke:#267b2c;stroke-opacity:1"/></g></g><g class="trace scatter trace1423324f-9bd4-4dd2-9725-022120fbde4c" style="stroke-miterlimit:2;opacity:1"><g class="points"><path d="M3.5,0A3.5,3.5 0 1,1 0,-3.5A3.5,3.5 0 0,1 3.5,0Z" class="point plotly-customdata" transform="translate(352.53,202.23)" style="opacity:.75;stroke-width:1px;fill:#ea4335;fill-opacity:1;stroke:#b51f12;stroke-opacity:1"/><path d="M4,0A4,4 0 1,1 0,-4A4,4 0 0,1 4,0Z" class="point plotly-customdata" transform="translate(457.98,222.28)" style="opacity:.771429;stroke-width:1px;fill:#ea4335;fill-opacity:1;stroke:#b51f12;stroke-opacity:1"/><path d="M4.5,0A4.5,4.5 0 1,1 0,-4.5A4.5,4.5 0 0,1 4.5,0Z" class="point plotly-customdata" transform="translate(563.42,242.33)" style="opacity:.792857;stroke-width:1px;fill:#ea4335;fill-opacity:1;stroke:#b51f12;stroke-opacity:1"/></g></g><g class="trace scatter tracea7c70884-137d-4065-a485-957193af2fc6" style="stroke-miterlimit:2;opacity:1"><g class="points"><path d="M4.5,0A4.5,4.5 0 1,1 0,-4.5A4.5,4.5 0 0,1 4.5,0Z" class="point plotly-customdata" transform="translate(563.42,242.33)" style="opacity:.792857;stroke-width:1px;fill:#fa0;fill-opacity:1;stroke:#b27600;stroke-opacity:1"/></g></g></g></g><path d="M0,0" class="xlines-above crisp" style="fill:none"/><path d="M0,0" class="ylines-above crisp" style="fill:none"/><g class="xaxislayer-above"><g class="xtick"><text x="0" y="320" text-anchor="middle" transform="translate(107.2,0)" style="font-family:'Open Sans',verdana,arial,sans-serif;font-size:12px;fill:#2a3f5f;fill-opacity:1;white-space:pre;opacity:1"><tspan x="0" y="320" class="line" dy="0em">Jan 2</tspan><tspan x="0" y="320" class="line" dy="1.3em">2020</tspan></text></g><g class="xtick"><text x="0" y="320" text-anchor="middle" transform="translate(212.65,0)" style="font-family:'Open Sans',verdana,arial,sans-serif;font-size:12px;fill:#2a3f5f;fill-opacity:1;white-space:pre;opacity:1">Jan 3</text></g><g class="xtick"><text x="0" y="320" text-anchor="middle" transform="translate(318.09000000000003,0)" style="font-family:'Open Sans',verdana,arial,sans-serif;font-size:12px;fill:#2a3f5f;fill-opacity:1;white-space:pre;opacity:1">Jan 4</text></g><g class="xtick"><text x="0" y="320" text-anchor="middle" transform="translate(423.53,0)" style="font-family:'Open Sans',verdana,arial,sans-serif;font-size:12px;fill:#2a3f5f;fill-opacity:1;white-space:pre;opacity:1">Jan 5</text></g><g class="xtick"><text x="0" y="320" text-anchor="middle" transform="translate(528.98,0)" style="font-family:'Open Sans',verdana,arial,sans-serif;font-size:12px;fill:#2a3f5f;fill-opacity:1;white-space:pre;opacity:1">Jan 6</text></g><g class="xtick"><text x="0" y="320" text-anchor="middle" transform="translate(634.42,0)" style="font-family:'Open Sans',verdana,arial,sans-serif;font-size:12px;fill:#2a3f5f;fill-opacity:1;white-space:pre;opacity:1">Jan 7</text></g></g><g class="yaxislayer-above"><g class="ytick"><text x="70" y="4.2" text-anchor="end" transform="translate(0,268.28)" style="font-family:'Open Sans',verdana,arial,sans-serif;font-size:12px;fill:#2a3f5f;fill-opacity:1;white-space:pre;opacity:1">−50.00%</text></g><g class="ytick"><text x="70" y="4.2" text-anchor="end" transform="translate(0,228.18)" style="font-family:'Open Sans',verdana,arial,sans-serif;font-size:12px;fill:#2a3f5f;fill-opacity:1;white-space:pre;opacity:1">0.00%</text></g><g class="ytick"><text x="70" y="4.2" text-anchor="end" transform="translate(0,188.09)" style="font-family:'Open Sans',verdana,arial,sans-serif;font-size:12px;fill:#2a3f5f;fill-opacity:1;white-space:pre;opacity:1">50.00%</text></g><g class="ytick"><text x="70" y="4.2" text-anchor="end" transform="translate(0,147.99)" style="font-family:'Open Sans',verdana,arial,sans-serif;font-size:12px;fill:#2a3f5f;fill-opacity:1;white-space:pre;opacity:1">100.00%</text></g><g class="ytick"><text x="70" y="4.2" text-anchor="end" transform="translate(0,107.9)" style="font-family:'Open Sans',verdana,arial,sans-serif;font-size:12px;fill:#2a3f5f;fill-opacity:1;white-space:pre;opacity:1">150.00%</text></g><g class="ytick"><text x="70" y="4.2" text-anchor="end" transform="translate(0,67.8)" style="font-family:'Open Sans',verdana,arial,sans-serif;font-size:12px;fill:#2a3f5f;fill-opacity:1;white-space:pre;opacity:1">200.00%</text></g></g></g></g><defs id="topdefs-b1f952"><clipPath id="legendb1f952"><rect width="333" height="29" x="0" y="0"/></clipPath></defs><g class="layer-above"><g class="shapelayer"><path fill-rule="evenodd" d="M71,228.18L670,228.18" clip-path="url(#clipb1f952y)" data-index="0" style="opacity:1;stroke:gray;stroke-opacity:1;fill:#000;fill-opacity:0;stroke-dasharray:9px,9px;stroke-width:2px"/></g></g><g class="infolayer"><g class="legend" pointer-events="all" transform="translate(337,11.779999999999994)"><rect style="stroke:#444;stroke-opacity:1;fill:#fff;fill-opacity:1;stroke-width:0" width="333" height="29" x="0" y="0" class="bg" shape-rendering="crispEdges"/><g class="scrollbox" clip-path="url(#legendb1f952)"><g class="groups"><g class="traces" transform="translate(0,14.5)" style="opacity:1"><text x="40" y="4.68" class="legendtext" text-anchor="start" style="font-family:'Open Sans',verdana,arial,sans-serif;font-size:12px;fill:#2a3f5f;fill-opacity:1;white-space:pre">Closed - Profit</text><g class="layers" style="opacity:1"><g class="legendsymbols"><g class="legendpoints"><path d="M6,0A6,6 0 1,1 0,-6A6,6 0 0,1 6,0Z" class="scatterpts" transform="translate(20,0)" style="opacity:.857143;stroke-width:1px;fill:#37b13f;fill-opacity:1;stroke:#267b2c;stroke-opacity:1"/></g></g></g><rect width="128.109" height="19" x="0" y="-9.5" class="legendtoggle" style="fill:#000;fill-opacity:0"/></g><g class="traces" transform="translate(130.609375,14.5)" style="opacity:1"><text x="40" y="4.68" class="legendtext" text-anchor="start" style="font-family:'Open Sans',verdana,arial,sans-serif;font-size:12px;fill:#2a3f5f;fill-opacity:1;white-space:pre">Closed - Loss</text><g class="layers" style="opacity:1"><g class="legendsymbols"><g class="legendpoints"><path d="M4,0A4,4 0 1,1 0,-4A4,4 0 0,1 4,0Z" class="scatterpts" transform="translate(20,0)" style="opacity:.771429;stroke-width:1px;fill:#ea4335;fill-opacity:1;stroke:#b51f12;stroke-opacity:1"/></g></g></g><rect width="122.688" height="19" x="0" y="-9.5" class="legendtoggle" style="fill:#000;fill-opacity:0"/></g><g class="traces" transform="translate(255.796875,14.5)" style="opacity:1"><text x="40" y="4.68" class="legendtext" text-anchor="start" style="font-family:'Open Sans',verdana,arial,sans-serif;font-size:12px;fill:#2a3f5f;fill-opacity:1;white-space:pre">Open</text><g class="layers" style="opacity:1"><g class="legendsymbols"><g class="legendpoints"><path d="M4.5,0A4.5,4.5 0 1,1 0,-4.5A4.5,4.5 0 0,1 4.5,0Z" class="scatterpts" transform="translate(20,0)" style="opacity:.792857;stroke-width:1px;fill:#fa0;fill-opacity:1;stroke:#b27600;stroke-opacity:1"/></g></g></g><rect width="74.172" height="19" x="0" y="-9.5" class="legendtoggle" style="fill:#000;fill-opacity:0"/></g></g></g><rect width="0" height="0" x="0" y="0" class="scrollbar" rx="20" ry="3" style="fill:#808ba4;fill-opacity:1"/></g></g></svg>